<?xml version="1.0" standalone="no"?> <!DOCTYPE svg PUBLIC "-//W3C//DTD SVG 1.0//EN" "http://www.w3.org/TR/2001/REC-SVG-20010904/DTD/svg10.dtd" > <svg xmlns="http://www.w3.org/2000/svg" width="100%" height="100%">
<defs >
<font id="Foglihten" horiz-adv-x="517" ><font-face
    font-family="Foglihten"
    units-per-em="1000"
    panose-1="0 0 6 0 0 0 0 0 0 0"
    ascent="892"
    descent="-260"
    alphabetic="0" />
<missing-glyph horiz-adv-x="322" d="M59 29H235V562H59V29ZM29 0V591H265V0H29Z" />
<glyph unicode=" " glyph-name="space" horiz-adv-x="266" />
<glyph unicode="!" glyph-name="exclam" horiz-adv-x="230" d="M115 80Q135 80 147 68T160 35Q160 15 148 3T115 -9Q95 -9 83 2T71 35Q71 55 82 67T115 80ZM80 732Q80 741 115 741Q151 741 151 732Q151 634 140 468T129 204H102Q102 301 91 467T80 732Z" />
<glyph unicode="&quot;" glyph-name="quotedbl" horiz-adv-x="204" d="M115 618L125 761Q139 760 145 759T156 753T160 739Q160 723 154 681L146 616L115 618ZM35 618L45 761Q59 760 65 759T76 753T80 739Q80 723 74 681L66 616L35 618Z" />
<glyph unicode="#" glyph-name="numbersign" horiz-adv-x="461" d="M138 55L111 57L127 216H27V242H130L145 384H44V411H147L164 572L191 570L174 411H298L315 572L342 570L325 411H435V384H322L308 242H417V216H305L289 55L262 57L278 216H154L138 55ZM171 384L157
242H281L296 384H171Z" />
<glyph unicode="$" glyph-name="dollar" horiz-adv-x="505" d="M53 91V44H35V231H58Q58 163 112 110T240 53V316Q198 339 173 354T117 394T73 447T58 509Q58 566 107 601T240 639V701H257V639Q345 636 400 583L399 621H417V462H396V465Q395 521 359 565T257 613V383Q368
322 400 298Q479 238 479 170Q479 107 418 68T257 27V-35H240V27Q184 28 131 48T53 91ZM257 307V53Q323 55 363 86T404 165Q404 187 393 206T358 244T314 275T257 307ZM240 393V613Q120 610 120 521Q120 485 151 456T240 393Z" />
<glyph unicode="%" glyph-name="percent" horiz-adv-x="647" d="M96 63L76 81L551 603L571 584L96 63ZM546 123Q546 241 465 241T384 136Q384 87 403 53T466 18Q546 18 546 123ZM403 268T465 268T565 230T604 130T566 30T465 -9T365 29T327 130T365 230ZM264 530Q264
579 245 613T182 648Q102 648 102 542Q102 424 183 424Q223 424 243 452T264 530ZM121 675T183 675T283 637T321 536T283 436T183 398T83 436T44 536T82 636Z" />
<glyph unicode="&amp;" glyph-name="ampersand" horiz-adv-x="754" d="M586 -18Q492 -18 445 55Q391 -18 297 -18Q183 -18 114 43T44 204Q44 288 99 353T248 428V430Q201 443 174 478T146 562Q146 624 197 662T331 701Q387 701 421 682T464 641H467L470 737H488V463Q488
446 479 437V435H675V408H488V124Q488 72 515 41T586 9Q627 9 658 33T702 101L728 94Q714 42 676 12T586 -18ZM440 479V560Q440 675 331 675Q276 675 247 645T218 559Q218 435 331 435H395Q422 435 431 443T440 479ZM417 408H291Q208 408 165 356T122 204Q122 109
167 59T297 9Q385 9 431 81Q417 117 417 160V408Z" />
<glyph unicode="&apos;" glyph-name="quotesingle" horiz-adv-x="124" d="M35 618L45 761Q59 760 65 759T76 753T80 739Q80 723 74 681L66 616L35 618Z" />
<glyph unicode="(" glyph-name="parenleft" horiz-adv-x="248" d="M240 774Q176 710 141 564T106 275T141 -13T240 -224L222 -244Q135 -157 85 -9T35 275Q35 412 83 557T222 794L240 774Z" />
<glyph unicode=")" glyph-name="parenright" horiz-adv-x="248" d="M9 774L27 794Q118 703 165 558T213 275Q213 140 164 -8T27 -244L9 -224Q72 -161 107 -14T142 275T107 564T9 774Z" />
<glyph unicode="*" glyph-name="asterisk" horiz-adv-x="266" d="M148 635L232 595Q233 594 233 592L222 572H219Q215 574 180 598T141 624L140 626L138 625L140 623Q140 618 143 576T146 530Q146 528 145 527H122L120 530Q120 534 123 576T126 623L128 625L126
626L125 624Q121 622 87 598T48 572H44L33 592L35 595L118 635H120V638L118 637L35 678Q33 679 33 681L44 701H48Q52 699 86 675T125 649L126 647L128 648L126 650Q126 654 123 696T120 743Q121 745 122 746H145L146 743Q146 738 143 696T140 650L138 648L140 647L141
649Q145 651 180 675T219 701H222L233 681L232 678L148 637L146 638V635H148Z" />
<glyph unicode="+" glyph-name="plus" horiz-adv-x="434" d="M233 328H408L406 302H233V127L206 129V302H27L28 328H206V510L233 509V328Z" />
<glyph unicode="," glyph-name="comma" horiz-adv-x="195" d="M142 35Q142 -21 120 -55T60 -90V-72Q79 -72 93 -56T111 -22Q112 -14 117 -4L114 -2Q109 -9 98 -9Q53 -9 53 35Q53 80 98 80Q118 80 130 68T142 35Z" />
<glyph unicode="-" glyph-name="hyphen" horiz-adv-x="248" d="M226 275H18L22 302H231L226 275Z" />
<glyph unicode="." glyph-name="period" horiz-adv-x="195" d="M98 80Q118 80 130 68T142 35Q142 15 131 3T98 -9Q78 -9 66 2T53 35Q53 55 65 67T98 80Z" />
<glyph unicode="/" glyph-name="slash" horiz-adv-x="488" d="M18 -172L447 734L470 722L42 -184L18 -172Z" />
<glyph unicode="0" glyph-name="zero" horiz-adv-x="523" d="M418 297Q418 472 377 564T258 657Q184 657 145 583T106 368Q106 193 146 101T265 9Q339 9 378 83T418 297ZM31 176T31 333T94 587T262 684T429 587T493 333T430 79T262 -18T95 79Z" />
<glyph unicode="1" glyph-name="one" horiz-adv-x="257" d="M98 504Q98 548 100 562L96 563Q86 549 72 533L44 504L25 522Q96 604 146 684H169V80Q169 38 177 28T222 18H240V0H18V18H44Q80 18 89 28T98 80V504Z" />
<glyph unicode="2" glyph-name="two" horiz-adv-x="463" d="M72 515H55V666H72V631Q131 684 217 684Q305 684 359 634T413 503Q413 456 379 391T290 271L122 92Q117 86 104 78T87 68L90 61Q97 62 146 62H360Q397 62 406 69T419 110H437L430 0H35V57Q69 61 115
122L250 299Q289 347 315 407T342 515Q342 584 310 620T217 657Q157 657 119 619T72 526V515Z" />
<glyph unicode="3" glyph-name="three" horiz-adv-x="470" d="M204 -18Q162 -18 116 1T35 55V160H52V149Q63 89 100 49T204 9Q280 9 320 55T360 187Q360 278 324 325T219 373H204V399Q264 399 296 433T328 533Q328 594 297 625T205 657Q141 657 112 622T72 526V515H55V665H73V656Q73
639 72 634L74 633Q82 647 96 654Q144 682 204 684Q287 684 338 643T390 535Q390 481 355 440T269 389V388Q343 378 389 322T435 187Q435 95 372 39T204 -18Z" />
<glyph unicode="4" glyph-name="four" horiz-adv-x="488" d="M339 666L60 177H320V417H391V177H454V142H391V80Q391 38 401 28T453 18H470V0H240V18H257Q299 18 309 28T320 80V142H18V164Q40 198 74 254T173 445T256 666H339Z" />
<glyph unicode="5" glyph-name="five" horiz-adv-x="470" d="M67 666H329Q365 666 374 673T388 714H406L399 604H151Q106 604 98 597T86 547L77 423Q136 462 204 462Q308 462 371 394T435 213Q435 110 372 46T204 -18Q161 -17 115 2T35 57V160H52V144Q64 85 101
47T204 9Q280 9 320 61T360 213Q360 321 320 378T204 435T67 382L48 386L63 632Q65 666 67 666Z" />
<glyph unicode="6" glyph-name="six" horiz-adv-x="488" d="M377 116T377 218T347 373T260 426Q204 426 160 370T114 224Q122 121 155 65T244 9Q309 9 343 62ZM395 526Q388 554 381 573T359 614T320 646T262 657Q188 657 149 575T110 338H114Q136 394 177 423T266
453Q350 453 401 389T453 218T396 47T244 -18T93 70T35 302Q35 474 97 579T262 684Q345 682 413 613V524H395V526Z" />
<glyph unicode="7" glyph-name="seven" horiz-adv-x="452" d="M352 576Q369 597 380 601L379 607Q371 604 305 604H94Q57 604 48 597T35 556H18L25 666H435V616Q422 612 398 589T344 521T286 418T241 278T222 108V0H151V48Q151 149 192 268T275 461T352 576Z" />
<glyph unicode="8" glyph-name="eight" horiz-adv-x="514" d="M111 187Q111 9 257 9Q404 9 404 187Q404 373 257 373Q111 373 111 187ZM257 399Q309 399 340 435T372 533Q372 657 257 657Q143 657 143 533Q143 471 174 435T257 399ZM360 -18T257 -18T95 38T35
187Q35 266 81 322T201 388V389Q151 398 116 439T81 535Q81 603 128 643T257 684T386 644T434 535Q434 481 399 440T313 389V388Q387 378 433 322T479 187Q479 94 420 38Z" />
<glyph unicode="9" glyph-name="nine" horiz-adv-x="488" d="M111 550T111 448T141 293T228 240Q284 240 328 296T374 442Q366 545 333 601T244 657Q179 657 145 604ZM93 140Q100 112 107 93T129 52T168 20T226 9Q300 9 339 91T379 328H375Q353 272 312 243T222
213Q138 213 87 277T35 448T92 619T244 684T395 596T453 364Q453 192 391 87T226 -18Q143 -16 75 53V142H93V140Z" />
<glyph unicode=":" glyph-name="colon" horiz-adv-x="195" d="M98 431Q118 431 130 419T142 386Q142 366 131 354T98 342Q78 342 66 353T53 386Q53 406 65 418T98 431ZM98 80Q118 80 130 68T142 35Q142 15 131 3T98 -9Q78 -9 66 2T53 35Q53 55 65 67T98 80Z" />
<glyph unicode=";" glyph-name="semicolon" horiz-adv-x="195" d="M142 35Q142 -21 120 -55T60 -90V-72Q79 -72 93 -56T111 -22Q112 -14 117 -4L114 -2Q109 -9 98 -9Q53 -9 53 35Q53 80 98 80Q118 80 130 68T142 35ZM98 431Q118 431 130 419T142 386Q142 366 131
354T98 342Q78 342 66 353T53 386Q53 406 65 418T98 431Z" />
<glyph unicode="&lt;" glyph-name="less" horiz-adv-x="372" d="M9 314V316L305 553L340 517L116 365Q47 319 38 317V313Q47 311 116 265L340 113L305 77L9 314Z" />
<glyph unicode="=" glyph-name="equal" horiz-adv-x="461" d="M422 368H35L40 404H426L422 368ZM422 226H35L40 262H426L422 226Z" />
<glyph unicode="&gt;" glyph-name="greater" horiz-adv-x="372" d="M364 314L67 77L32 113L257 265Q326 311 335 313V317Q326 319 257 365L32 517L67 553L364 316V314Z" />
<glyph unicode="?" glyph-name="question" horiz-adv-x="443" d="M187 80Q207 80 219 68T231 35Q231 15 220 3T187 -9Q167 -9 155 2T142 35Q142 55 154 67T187 80ZM62 577H44V719H62V700Q117 744 193 746Q282 746 336 702T391 586Q391 550 372 515T324 451T268
397T220 343T200 293V204H173V293Q173 324 187 355T223 414T265 469T300 526T315 586Q315 719 194 719Q130 719 101 684T62 588V577Z" />
<glyph unicode="@" glyph-name="at" horiz-adv-x="869" d="M574 436Q590 447 614 469L628 468L592 140Q589 107 589 106Q589 27 640 27Q706 27 752 101T799 280Q799 420 705 505T457 591Q291 591 181 483T71 219Q71 130 100 58T179 -59T294 -129T432 -153Q543
-153 634 -103L647 -126Q546 -179 432 -179Q268 -179 156 -74T44 219Q44 386 162 502T457 618Q623 618 724 525T826 280Q826 166 771 85T637 4Q602 4 574 34T533 121H530Q508 72 470 37T379 1Q312 1 265 56T218 207Q218 312 280 388T458 464Q519 464 574 436ZM551
421Q511 438 463 438Q378 438 334 365T290 193Q290 112 317 70T387 28T470 71T527 187L551 421Z" />
<glyph unicode="A" glyph-name="A" horiz-adv-x="630" d="M155 222H430L306 609Q299 631 299 649H292Q292 639 282 609L155 222ZM9 0V18H24Q62 18 79 71L293 728H358V723Q358 722 358 719T357 713Q357 679 367 649L554 71Q566 35 575 27T613 18H621V0H428V18H514V20Q493
28 483 57L439 195H147L106 71Q103 63 103 50Q103 18 149 18H187V0H9Z" />
<glyph unicode="B" glyph-name="B" horiz-adv-x="621" d="M177 80Q177 45 160 28V27H317Q410 27 467 76T524 208Q524 298 467 353T317 408H213V435H304Q370 435 410 471T450 566Q450 626 400 659T264 692H160V691Q177 674 177 639V80ZM18 0V18H53Q89 18 97 26T106
71V648Q106 684 98 692T53 701H18V719H271Q381 719 454 677T528 568Q528 522 489 480T384 428V424Q478 417 541 352T604 208Q604 116 525 58T328 0H18Z" />
<glyph unicode="C" glyph-name="C" horiz-adv-x="568" d="M35 362Q35 531 113 634T320 737Q416 737 483 680Q490 673 493 662H496Q493 674 493 685L490 736L508 737L517 559L490 558L488 574Q482 631 436 670T316 710Q219 710 168 627T117 383Q117 201 170 105T323
9Q387 10 439 44T518 140L542 130Q514 59 455 21T320 -18Q192 -18 114 86T35 362Z" />
<glyph unicode="D" glyph-name="D" horiz-adv-x="656" d="M160 27H280Q398 27 470 118T542 360Q542 522 475 607T280 692H160V691Q177 674 177 644V75Q177 45 160 28V27ZM18 0V18H53Q89 18 97 26T106 71V648Q106 684 98 692T53 701H18V719H293Q441 719 531 621T621
360T531 99T293 0H18Z" />
<glyph unicode="E" glyph-name="E" horiz-adv-x="585" d="M18 0V18H53Q89 18 97 26T106 71V648Q106 684 98 692T53 701H18V719H452Q470 719 479 710H480L477 760H494L506 586H488Q484 654 454 673T346 692H155V691Q177 669 177 639V391H265Q311 391 328 410T345
497H363V257H345Q345 325 328 344T265 364H177V80Q177 50 155 28V27H404Q481 27 509 46T542 133H559L548 -41L530 -40L533 9H532Q523 0 505 0H18Z" />
<glyph unicode="F" glyph-name="F" horiz-adv-x="559" d="M18 0V18H53Q89 18 97 26T106 71V648Q106 684 98 692T53 701H18V719H480Q497 719 506 710H507L503 760H521L533 586H515Q511 654 481 673T373 692H155V691Q177 669 177 639V355H301Q347 355 364 374T381
462H399V222H381Q381 290 364 309T301 328H177V71Q177 35 186 27T231 18H266V0H18Z" />
<glyph unicode="G" glyph-name="G" horiz-adv-x="638" d="M307 710Q215 710 166 627T117 383Q117 201 165 105T306 9Q416 11 479 95V275Q479 311 471 319T426 328H320V346H630V328H604Q568 328 559 320T550 275V-40H533V20Q533 69 506 69Q494 69 480 55Q412 -18
302 -18Q182 -18 109 86T35 362Q35 531 111 634T311 737Q408 737 474 680Q481 673 484 662H487Q487 663 486 671T484 685L481 736L499 737L508 559L481 558L479 574Q473 631 427 670T307 710Z" />
<glyph unicode="H" glyph-name="H" horiz-adv-x="674" d="M18 0V18H53Q89 18 97 26T106 71V648Q106 684 98 692T53 701H18V719H257V701H231Q195 701 186 693T177 648V391H497V648Q497 684 489 692T444 701H417V719H657V701H621Q585 701 577 693T568 648V71Q568
35 576 27T621 18H657V0H417V18H444Q480 18 488 26T497 71V364H177V71Q177 35 186 27T231 18H257V0H18Z" />
<glyph unicode="I" glyph-name="I" horiz-adv-x="283" d="M18 0V18H53Q89 18 97 26T106 71V648Q106 684 98 692T53 701H18V719H266V701H231Q195 701 186 693T177 648V71Q177 35 186 27T231 18H266V0H18Z" />
<glyph unicode="J" glyph-name="J" horiz-adv-x="337" d="M160 673Q160 690 169 699V701H71V719H320V701H284Q231 701 231 648V151Q231 75 185 29T63 -18Q38 -18 6 -8L13 21Q54 9 72 9Q114 9 137 38T160 115V673Z" />
<glyph unicode="K" glyph-name="K" horiz-adv-x="638" d="M224 376L435 645Q456 670 456 684Q456 701 413 701H404V719H606V701H578Q542 701 519 690T466 641L260 380L261 376Q291 366 313 349T348 317T386 266L510 91Q545 42 562 31Q578 20 597 20Q599 20 603
20T609 21L637 25L639 8Q573 -9 548 -9Q518 -9 494 8T438 70L324 230Q284 286 258 311T199 337H177V80Q177 38 186 28T231 18H266V0H18V18H53Q89 18 97 28T106 80V648Q106 684 98 692T53 701H18V719H240V701H231Q195 701 186 693T177 648V360Q211 360 224 376Z"
/>
<glyph unicode="L" glyph-name="L" horiz-adv-x="568" d="M106 71V648Q106 684 98 692T53 701H18V719H266V701H231Q195 701 186 693T177 648V80Q177 50 155 28V27H370Q450 27 483 46T521 133L524 173H542L527 -41L510 -40L513 9H512Q503 0 485 0H18V18H53Q89 18
97 26T106 71Z" />
<glyph unicode="M" glyph-name="M" horiz-adv-x="896" d="M40 719H179L428 141Q443 108 443 98H448Q448 111 462 141L711 719H853V701H817Q784 701 774 694T763 661Q763 658 763 651T764 639L802 80Q805 37 815 28T866 18H888V0H635V18H671Q709 18 721 25T733
54Q733 56 733 59T732 65L698 568Q697 586 697 609H691Q691 605 675 568L427 -9H415L172 557Q157 590 157 597H150Q150 575 149 557L114 67Q114 64 114 59T113 51Q113 30 124 24T176 18H212V0H9V18H25Q63 18 73 28T87 80L129 657Q129 660 129 665T130 673Q130 691
121 696T80 701H40V719Z" />
<glyph unicode="N" glyph-name="N" horiz-adv-x="656" d="M18 0V18H44Q80 18 89 26T98 71V648Q98 684 89 692T44 701H18V719H165L510 157Q528 126 528 120H534Q533 131 533 162V648Q533 684 524 692T479 701H453V719H639V701H613Q577 701 568 693T559 648V-9H529L149
610Q129 645 129 649H123Q124 638 124 606V71Q124 35 132 27T177 18H213V0H18Z" />
<glyph unicode="O" glyph-name="O" horiz-adv-x="638" d="M192 737T320 737T526 633T604 360Q604 190 526 86T320 -18Q192 -18 114 86T35 360T113 633ZM117 383Q117 201 170 105T323 9Q420 9 471 92T522 336Q522 518 469 614T316 710Q219 710 168 627T117 383Z" />
<glyph unicode="P" glyph-name="P" horiz-adv-x="630" d="M155 692L160 691Q177 674 177 639V266H315Q417 266 470 320T524 479T471 637T315 692H155ZM18 0V18H53Q89 18 97 26T106 71V648Q106 684 98 692T53 701H18V719H333Q455 719 529 653T604 479T530 306T333
240H177V71Q177 35 186 27T231 18H266V0H18Z" />
<glyph unicode="Q" glyph-name="Q" horiz-adv-x="638" d="M320 737Q447 737 525 636T604 375Q604 264 546 169T361 11Q339 0 302 -16T247 -43T221 -62Q260 -62 355 -98T484 -135Q513 -135 529 -119T545 -75Q545 -62 545 -62H571Q573 -82 573 -91Q573 -139 548
-166T478 -194Q440 -194 386 -169T286 -118T225 -92Q194 -92 194 -128Q194 -156 220 -160L216 -187Q167 -178 167 -118Q167 -62 210 -38Q223 -31 268 -9T340 29Q434 85 478 177T523 378Q523 540 469 625T313 710Q218 710 168 631T117 401Q117 346 122 299T137 218T157
156T183 110T209 78T236 56T258 44T275 36L251 22Q144 59 90 160T35 397Q35 545 115 641T320 737Z" />
<glyph unicode="R" glyph-name="R" horiz-adv-x="638" d="M18 0V18H53Q89 18 97 26T106 71V648Q106 684 98 692T53 701H18V719H302Q422 719 495 658T568 497Q568 407 508 348T356 281V276Q377 272 403 251T447 205L527 83Q554 41 567 27T597 12H605L635 18L637
0Q565 -18 549 -18Q523 -18 505 -2T456 62L366 198Q338 241 318 258T267 275H213V302H311Q391 302 439 355T488 497T440 638T311 692H160V691Q177 674 177 639V71Q177 35 186 27T231 18H249V0H18Z" />
<glyph unicode="S" glyph-name="S" horiz-adv-x="568" d="M72 36Q58 46 55 55L52 54Q52 53 54 42T56 25L58 -17L40 -18L30 195L56 196V188Q60 114 128 62T275 9Q364 9 412 44T460 147Q460 182 431 218T359 282T266 345T172 412T100 489T71 580Q71 656 126 696T284
737Q327 737 368 724T435 693Q444 686 449 672L452 674Q450 683 448 704L446 736L463 737L473 551L448 550L447 562Q443 624 399 667T284 710Q138 710 138 601Q138 561 178 521T277 445T393 368T492 275T533 162Q533 74 467 28T275 -18Q224 -18 163 -2T72 36Z"
/>
<glyph unicode="T" glyph-name="T" horiz-adv-x="603" d="M177 0V18H213Q249 18 257 26T266 71V692H151Q78 692 59 675T35 586H18L29 760H47L44 719H559L557 760H574L586 586H568Q563 660 548 676T462 692H339V71Q339 35 347 27T392 18H426V0H177Z" />
<glyph unicode="U" glyph-name="U" horiz-adv-x="656" d="M18 719H266V701H222Q186 701 178 693T169 648V177Q169 102 215 56T333 9Q423 9 478 62T533 204L534 630Q534 670 525 685T481 701H444V719H639V701H613Q579 701 570 686T561 630L559 204Q559 104 497
43T333 -18Q230 -18 164 43T98 204V648Q98 684 89 692T44 701H18V719Z" />
<glyph unicode="V" glyph-name="V" horiz-adv-x="656" d="M9 719H199V701H122V699Q143 692 153 662L340 115Q348 93 348 80V79H356V80Q356 92 366 118L551 648Q558 669 558 678Q558 701 509 701H470V719H648V701H636Q609 701 599 692T578 648L354 -5L308 -9L83
648Q71 683 61 692T24 701H9V719Z" />
<glyph unicode="W" glyph-name="W" horiz-adv-x="985" d="M9 719H145V716V705Q145 686 152 662L316 115Q322 95 322 80V79H329V80Q329 95 335 115L481 594L465 648Q455 683 445 692T406 701H383V719H599V701H504V699Q527 691 535 662L699 115Q705 91 705 80V79H711V80Q711
93 719 119L880 648Q886 666 886 678Q886 691 876 696T838 701H799V719H977V701H962Q938 701 927 690T907 648L710 -4L662 -9L494 549L328 -5L280 -9L82 648Q71 684 62 692T24 701H9V719Z" />
<glyph unicode="X" glyph-name="X" horiz-adv-x="616" d="M18 0V17H32Q64 17 80 29T122 87L277 357L124 632Q99 677 85 689T48 701H35V719H198V701H146V699Q175 689 195 653L325 419L458 635Q480 671 480 684Q480 701 433 701H415V719H582V701H563Q541 701 529
690T487 632L340 392L509 87Q534 42 546 30T582 18H599V0H375V18H396Q426 18 437 21T449 36Q449 48 430 83L292 330L150 83Q129 46 129 33Q129 23 140 20T178 17H197V0H18Z" />
<glyph unicode="Y" glyph-name="Y" horiz-adv-x="647" d="M206 0V18H242Q278 18 286 26T295 71V259L96 641Q73 686 64 693Q53 701 32 701H9V719H190V701H130V699Q149 692 169 653L337 333Q348 313 350 301H354Q356 310 367 333L525 639Q539 664 539 680Q539 701
493 701H456V719H639V701H616Q594 701 585 691T555 640L366 274V71Q366 35 374 27T419 18H455V0H206Z" />
<glyph unicode="Z" glyph-name="Z" horiz-adv-x="603" d="M18 0V18Q26 18 37 32T74 87L406 627Q434 670 460 689V692H210Q132 692 106 674T75 585L58 586L67 755L84 754L82 711H83Q92 719 109 719H560V701Q538 701 494 632L161 92Q132 44 112 30V27H415Q492 27
520 44T552 127V134L570 133L562 -36L544 -35L546 9H545Q536 0 520 0H18Z" />
<glyph unicode="[" glyph-name="bracketleft" horiz-adv-x="212" d="M106 710V-160Q106 -194 89 -211V-213H204V-231H31V-226Q35 -186 35 -151V701Q35 736 31 776V781H204V763H89V762Q106 745 106 710Z" />
<glyph unicode="\" glyph-name="backslash" horiz-adv-x="488" d="M470 -172L447 -184L18 722L42 734L470 -172Z" />
<glyph unicode="]" glyph-name="bracketright" horiz-adv-x="212" d="M106 710Q106 744 124 762V763H9V781H182V776Q177 726 177 701V-151Q177 -176 182 -226V-231H9V-213H124V-211Q106 -193 106 -160V710Z" />
<glyph unicode="^" glyph-name="asciicircum" horiz-adv-x="368" d="M27 494L183 647H186L342 494L312 463L232 550Q192 593 187 618H182Q177 593 137 550L56 463L27 494Z" />
<glyph unicode="_" glyph-name="underscore" horiz-adv-x="408" d="M408 -142H0V-115H408V-142Z" />
<glyph unicode="`" glyph-name="grave" horiz-adv-x="177" d="M39 692Q45 696 48 696Q52 696 57 691L155 574L141 562L34 646L21 661Q18 666 18 669Q18 675 23 679L39 692Z" />
<glyph unicode="a" glyph-name="a" horiz-adv-x="505" d="M417 311V71Q417 40 422 30T450 20Q453 20 459 20T470 21L487 22L488 4L357 -9V-1Q357 24 353 51T349 94H345Q321 42 280 12T187 -18Q119 -18 77 16T35 106Q35 178 104 226T284 275Q318 275 346 270V320Q346
453 236 453Q185 453 158 435T115 372V364H98V435Q153 479 235 479Q324 479 370 436T417 311ZM187 9Q259 9 302 68T346 226V246Q316 252 289 252Q204 252 159 215T113 106Q113 9 187 9Z" />
<glyph unicode="b" glyph-name="b" horiz-adv-x="559" d="M89 -9V71V675Q89 711 80 719T35 728H18V746L164 750V743Q160 703 160 689V392Q160 368 155 360V358H160Q183 416 225 447T322 479Q413 479 468 411T524 231T469 51T322 -18Q259 -18 215 22T150 132Q138
174 127 174Q115 174 115 99V-9H89ZM160 331T160 231T201 70T311 9Q376 9 410 66T444 231T410 396T311 453Q243 453 202 392Z" />
<glyph unicode="c" glyph-name="c" horiz-adv-x="470" d="M444 92Q386 -18 266 -18Q162 -18 99 50T35 228Q35 341 96 410T255 479Q323 479 376 443Q385 436 390 419L394 420Q389 438 389 445L387 488L405 489L413 329L387 328L386 331Q378 393 343 423T255 453Q185
453 148 399T111 241Q111 128 152 69T272 9Q366 9 419 103L444 92Z" />
<glyph unicode="d" glyph-name="d" horiz-adv-x="559" d="M399 675Q399 711 391 719T346 728H328V746L475 750V743Q470 693 470 689V71Q470 40 476 30T504 20Q507 20 513 20T523 21L540 22L542 4L411 -9V-1Q411 24 408 57T404 104H399Q351 -13 238 -13Q147 -13
91 54T35 231T91 407T238 475Q351 475 399 358H405V361Q399 370 399 392V675ZM399 133T399 231T358 388T249 448Q184 448 150 393T115 231T149 69T249 13Q317 13 358 73Z" />
<glyph unicode="e" glyph-name="e" horiz-adv-x="488" d="M111 275H369Q377 275 377 284Q377 367 344 410T248 453Q189 453 152 404T111 275ZM453 266Q453 249 435 249H111Q113 132 154 71T272 9Q376 9 429 121L453 111Q395 -18 266 -18Q162 -18 99 50T35 231T97
411T262 479Q340 479 396 427T453 284V266Z" />
<glyph unicode="f" glyph-name="f" horiz-adv-x="363" d="M18 0V18H53Q106 18 106 71V435H18V461H106V582Q106 657 152 703T275 750Q358 750 413 706V635H395V643Q379 686 351 704T275 723Q228 723 203 698T177 626V461H311V435H164V433Q177 426 177 402V46Q177
28 169 20V18H253V0H18Z" />
<glyph unicode="g" glyph-name="g" horiz-adv-x="505" d="M470 435H444H368Q417 389 417 314Q417 240 370 195T244 149Q164 149 118 203Q89 186 89 151Q89 78 249 61Q366 48 418 9T470 -103Q470 -172 413 -210T260 -249Q155 -249 91 -208T27 -98Q27 -59 55 -26T133
23Q62 64 62 151Q62 190 104 221Q80 260 80 314Q80 388 125 433T244 479Q306 479 349 450Q378 450 444 461H470V435ZM245 453Q197 453 172 421T146 328Q146 254 171 215T245 176Q351 176 351 301Q351 453 245 453ZM163 9Q107 -1 80 -32T53 -98Q53 -150 106 -177T260
-204Q444 -204 444 -106Q444 -66 402 -45T250 -11Q205 -6 163 9Z" />
<glyph unicode="h" glyph-name="h" horiz-adv-x="603" d="M18 0V18H53Q89 18 97 26T106 71V675Q106 711 98 719T53 728H35V746L182 755V747Q177 697 177 689V379Q177 356 172 348V345H177Q201 407 247 443T355 479Q428 479 467 441T506 328V71Q506 35 514 27T559
18H586V0H368V18H444V20Q435 29 435 46V311Q435 453 347 453Q271 453 224 389T177 218V71Q177 35 186 27T231 18H266V0H18Z" />
<glyph unicode="i" glyph-name="i" horiz-adv-x="283" d="M143 687Q163 687 175 676T187 643Q187 623 176 611T143 598Q123 598 111 610T98 643Q98 663 110 675T143 687ZM35 462L182 466V458Q177 408 177 405V71Q177 35 186 27T231 18H266V0H18V18H53Q89 18 97
26T106 71V391Q106 427 98 435T53 444H35V462Z" />
<glyph unicode="j" glyph-name="j" horiz-adv-x="248" d="M143 687Q163 687 175 676T187 643Q187 623 176 611T143 598Q123 598 111 610T98 643Q98 663 110 675T143 687ZM10 -249Q-10 -249 -70 -232L-62 -204Q1 -222 18 -222Q60 -222 83 -193T106 -115V391Q106
427 98 435T53 444H35V462L182 466V458Q177 408 177 405V-80Q177 -156 131 -202T10 -249Z" />
<glyph unicode="k" glyph-name="k" horiz-adv-x="541" d="M18 0V18H53Q106 18 106 71V675Q106 711 98 719T53 728H35V746L182 750V743Q177 693 177 689V242Q177 220 174 208L177 206Q181 218 195 235L328 405Q352 436 368 442V444H321V462H494V444H471Q430 444
403 433T346 384L249 260V257Q278 247 301 230T337 197T374 146L413 91Q447 41 464 29Q482 17 501 17Q502 17 505 17T511 18L539 22L542 4Q476 -18 448 -18T399 1T341 70L312 111Q303 123 283 153T249 201T224 227L177 169V46Q177 28 169 20V18H235V0H18Z" />
<glyph unicode="l" glyph-name="l" horiz-adv-x="283" d="M18 0V18H53Q106 18 106 71V675Q106 711 98 719T53 728H35V746L182 750V743Q177 693 177 689V71Q177 18 231 18H266V0H18Z" />
<glyph unicode="m" glyph-name="m" horiz-adv-x="860" d="M18 0V18H53Q89 18 97 26T106 71V391Q106 427 98 435T53 444H35V462L182 470V463Q177 413 177 405V389Q177 366 172 358V355H177Q200 414 241 446T338 479Q440 479 465 392Q467 382 467 371Q467 356 466
351L465 348H470L471 351Q474 363 482 381Q531 479 631 479Q696 479 729 445T763 346V71Q763 35 772 27T817 18H843V0H625V18H701V20Q692 29 692 46V328Q692 453 622 453Q554 453 512 390T470 222V71Q470 35 479 27T524 18H550V0H341V18H408V20Q399 29 399 46V328Q399
453 329 453Q261 453 219 390T177 222V71Q177 35 186 27T231 18H266V0H18Z" />
<glyph unicode="n" glyph-name="n" horiz-adv-x="603" d="M18 0V18H53Q89 18 97 26T106 71V391Q106 427 98 435T53 444H35V462L182 470V463Q177 413 177 405V379Q177 361 172 348V345H177Q200 406 247 442T355 479Q428 479 467 441T506 328V71Q506 35 514 27T559
18H586V0H368V18H444V20Q435 29 435 46V311Q435 453 347 453Q271 453 224 388T177 218V71Q177 35 186 27T231 18H266V0H18Z" />
<glyph unicode="o" glyph-name="o" horiz-adv-x="497" d="M384 195Q384 320 348 386T245 453Q181 453 147 405T113 266Q113 141 148 75T252 9Q316 9 350 56T384 195ZM35 119T35 231T94 411T249 479T403 411T462 231T404 51T249 -18T94 50Z" />
<glyph unicode="p" glyph-name="p" horiz-adv-x="576" d="M177 358Q227 479 339 479Q430 479 486 411T542 231T487 51T340 -18Q285 -18 243 13T177 104H172V101Q177 93 177 69V-185Q177 -203 169 -211V-213H235V-231H18V-213H53Q106 -213 106 -160V391Q106 424
100 435T70 446Q68 446 63 446T54 445L37 444L35 462L167 470V463Q167 438 170 405T173 358H177ZM177 231Q177 133 218 71T328 9Q393 9 427 66T462 231T428 396T328 453Q260 453 219 392T177 231Z" />
<glyph unicode="q" glyph-name="q" horiz-adv-x="576" d="M399 -133V69Q399 92 405 101V104H399Q351 -18 238 -18Q148 -18 92 51T35 231T91 410T238 479Q352 479 399 358H404Q404 372 407 405T411 463V470L542 462L540 444L523 445Q520 445 515 445T507 446Q483
446 477 435T470 391V-160Q470 -193 476 -204T507 -215Q509 -215 514 -215T523 -214L540 -213L542 -231L395 -240V-232Q395 -208 397 -179T399 -133ZM399 133T399 231T358 391T249 453Q184 453 150 396T115 231T149 66T249 9Q317 9 358 71Z" />
<glyph unicode="r" glyph-name="r" horiz-adv-x="445" d="M177 333Q201 404 243 446T346 488Q377 488 398 480Q428 469 428 438Q428 420 415 407T384 393T353 406T339 438Q339 450 346 461V462Q270 462 224 385T177 182V71Q177 18 231 18H266V0H18V18H53Q106 18
106 71V391Q106 427 98 435T53 444H35V462L182 475V467Q177 417 177 405V367Q177 342 172 335V333H177Z" />
<glyph unicode="s" glyph-name="s" horiz-adv-x="426" d="M399 106Q399 50 348 16T213 -18Q177 -18 137 -5T72 27Q63 33 58 47L54 45Q60 31 60 17L62 -17L44 -18L35 138H62Q63 87 109 48T213 9Q332 9 332 93Q332 120 304 145T237 193T158 238T90 295T62 369Q62
419 103 449T213 479Q282 479 323 448Q334 439 338 427H341Q338 451 338 456L336 479L354 480L362 339L336 337L335 352Q331 394 299 423T213 453Q120 453 120 391Q120 361 148 333T218 283T301 236T370 178T399 106Z" />
<glyph unicode="t" glyph-name="t" horiz-adv-x="408" d="M177 435V98Q177 9 249 9Q297 9 326 35T355 106H382Q382 50 346 16T249 -18Q185 -18 146 21T106 124V435H18V462H80Q105 462 116 474T133 515L151 604L177 621V494Q177 470 164 463V462H382V435H177Z" />
<glyph unicode="u" glyph-name="u" horiz-adv-x="576" d="M559 0L413 -9V-1Q417 39 417 56V82Q417 105 423 114V116H417Q394 55 347 19T239 -18Q166 -18 128 20T89 133V391Q89 427 80 435T35 444H18V462L164 466V458Q160 418 160 405V151Q160 9 248 9Q323 9 370
74T417 244V391Q417 427 409 435T364 444H346V462L493 466V458Q488 408 488 405V71Q488 35 497 27T542 18H559V0Z" />
<glyph unicode="v" glyph-name="v" horiz-adv-x="514" d="M9 462H187V444H116V442Q134 436 147 404L264 106Q274 82 274 69V67H283V69Q283 80 296 111L406 391Q414 415 414 420Q414 444 364 444H327V462H506V444H493Q467 444 458 435T435 391L279 -5L238 -9L80
391Q65 428 57 436T22 444H9V462Z" />
<glyph unicode="w" glyph-name="w" horiz-adv-x="781" d="M9 462H141V458Q141 456 141 452T140 446Q140 425 148 404L259 106Q267 84 267 69V67H275V69Q275 77 285 106L378 359L366 391Q351 428 343 436T308 444H284V462H479V444H402V442Q422 435 433 404L543
106Q551 84 551 69V67H559V69Q559 82 570 111L674 391Q681 412 681 420Q681 444 632 444H604V462H772V444H761Q735 444 726 435T703 391L556 -5L514 -9L392 320L272 -4L230 -9L82 391Q67 428 59 436T24 444H9V462Z" />
<glyph unicode="x" glyph-name="x" horiz-adv-x="514" d="M40 462H198V444H156V442Q179 434 205 396L279 282L342 379Q365 414 365 426Q365 444 311 444H300V462H475V444H460Q430 444 416 433T372 375L295 258L407 87Q412 79 419 68T430 52T438 40T445 31T452
25T459 21T468 19T479 18H497V0H273V18H297Q351 18 351 36Q351 49 329 83L242 216L155 83Q133 49 133 36Q133 18 187 18H206V0H18V18H37Q67 18 81 29T125 87L226 240L138 375Q109 420 96 432T62 444H40V462Z" />
<glyph unicode="y" glyph-name="y" horiz-adv-x="514" d="M9 462H187V444H116V442Q134 436 147 404L264 106Q271 90 271 64V62L278 64L406 391Q414 415 414 420Q414 444 364 444H327V462H506V444H493Q467 444 458 435T435 391L230 -129Q183 -249 90 -249Q70 -249
10 -232L20 -189Q80 -204 100 -204Q172 -204 204 -122L236 -41Q238 -37 238 -26Q238 -8 233 4L80 391Q65 428 57 436T22 444H9V462Z" />
<glyph unicode="z" glyph-name="z" horiz-adv-x="488" d="M27 0V18Q29 18 31 19T37 22T42 28T49 37T58 50T71 66T86 87L295 369Q302 378 313 394T332 419T345 432V435H195Q117 435 91 417T60 328L43 329L52 498L69 497L67 453Q76 462 93 462H444V444Q436 444 426
432T382 375L174 92Q139 45 118 30V27H302Q378 27 404 44T435 127V134L453 133L444 -36L426 -35L428 9H427Q418 0 401 0H27Z" />
<glyph unicode="{" glyph-name="braceleft" horiz-adv-x="275" d="M20 277Q86 349 95 364Q105 381 105 396Q105 422 85 516T65 639Q65 702 96 741T177 781H266V763H213Q173 763 151 740T128 677Q128 647 151 540T174 413Q174 393 143 362Q113 331 88 308T56 277V273Q63
265 88 242T143 188Q174 157 174 137Q174 118 151 11T128 -126Q128 -165 150 -189T213 -213H266V-231H177Q128 -231 97 -192T65 -89Q65 -60 85 35T105 155Q105 160 104 165T101 175T97 184T90 195T81 206T69 220T56 235T39 253T20 273V277Z" />
<glyph unicode="|" glyph-name="bar" horiz-adv-x="150" d="M53 781H98V-231H53V781Z" />
<glyph unicode="}" glyph-name="braceright" horiz-adv-x="275" d="M255 277V273Q247 265 236 253T220 235T206 220T195 207T186 196T178 185T174 175T171 165T170 155Q170 130 190 35T210 -89Q210 -152 179 -191T98 -231H9V-213H62Q102 -213 124 -189T147 -126Q147
-96 125 11T102 137Q102 158 132 188Q162 219 187 242T219 273V277Q212 285 187 308T132 362Q102 392 102 413Q102 432 124 539T147 677Q147 716 125 739T62 763H9V781H98Q147 781 178 742T210 639Q210 611 190 517T170 396Q170 377 184 358T236 297Q242 291 246
287T255 277Z" />
<glyph unicode="~" glyph-name="asciitilde" horiz-adv-x="461" d="M425 356Q407 283 347 283Q316 283 280 302T215 344T155 387T99 406Q70 406 62 372L50 320L24 326L37 379Q53 446 111 446Q149 446 195 416T285 355T359 324Q391 324 399 362L411 415L437 408L425 356Z" />
</font>
</defs>
</svg>
