<?xml version="1.0" standalone="no"?> <!DOCTYPE svg PUBLIC "-//W3C//DTD SVG 1.0//EN" "http://www.w3.org/TR/2001/REC-SVG-20010904/DTD/svg10.dtd" > <svg xmlns="http://www.w3.org/2000/svg" width="100%" height="100%">
<defs >
<font id="Mermaid-Bold" horiz-adv-x="1064" ><font-face
    font-family="Mermaid-Bold"
    units-per-em="2000"
    panose-1="0 0 0 0 0 0 0 0 0 0"
    ascent="1500"
    descent="-500"
    alphabetic="0" />
<missing-glyph horiz-adv-x="390" />
<glyph unicode=" " glyph-name="space" horiz-adv-x="390" />
<glyph unicode="!" glyph-name="exclam" horiz-adv-x="541" d="M414 1225Q414 1151 406 1086T384 961T357 842T329 724T308 600T299 463Q299 436 289 430T272 424Q265 424 255 430T245 463Q245 535 236 599T214 723T185 841T156 959T133 1084T124 1222Q124 1298
165 1339T272 1381Q337 1381 375 1341T414 1225ZM414 120Q414 90 403 64T371 18T324 -13T266 -25Q235 -25 209 -14T164 16T135 61T124 117Q124 147 135 173T167 220T214 251T272 263Q303 263 329 252T374 222T403 176T414 120Z" />
<glyph unicode="&quot;" glyph-name="quotedbl" horiz-adv-x="840" d="M180 1100Q167 1113 154 1126T131 1155T115 1189T108 1232Q108 1261 119 1287T149 1332T195 1363T253 1375Q284 1375 310 1362T354 1328T383 1278T393 1218Q393 1151 371 1095T312 995T232
918T146 862Q132 854 125 863T131 888Q152 909 169 938T194 997T201 1054T180 1100ZM520 1100Q507 1113 494 1126T471 1155T455 1189T448 1232Q448 1261 459 1287T489 1332T535 1363T593 1375Q624 1375 650 1362T694 1328T723 1278T733 1218Q733 1151 711 1095T652
995T572 918T486 862Q472 854 465 863T471 888Q492 909 509 938T534 997T541 1054T520 1100Z" />
<glyph unicode="#" glyph-name="numbersign" horiz-adv-x="917" d="M865 664Q889 664 894 660T900 646Q900 628 888 614T855 599H699Q686 599 682 586L645 374Q644 369 647 365T657 360H811Q835 360 840 356T846 342Q846 324 834 310T801 295H645Q631 295 629
282L581 14Q579 0 565 0H517Q503 0 505 14L553 282Q555 295 541 295H312Q307 295 302 291T296 282L249 14Q245 0 232 0H184Q178 0 175 4T173 14L220 282Q222 295 208 295H60Q36 295 31 299T25 313Q25 331 37 345T69 360H220Q225 360 230 364T236 374L273 586Q275
591 271 595T262 599H114Q90 599 85 603T79 617Q79 635 91 649T123 664H273Q279 664 283 668T290 678L337 946Q338 952 343 956T353 960H402Q415 960 413 946L366 678Q364 673 368 669T377 664H606Q612 664 616 668T622 678L670 946Q672 960 686 960H734Q748 960
746 946L699 678Q697 673 700 669T710 664H865ZM606 586Q608 599 595 599H366Q352 599 350 586L312 374Q311 369 314 365T324 360H552Q558 360 563 364T569 374L606 586Z" />
<glyph unicode="$" glyph-name="dollar" horiz-adv-x="797" d="M462 603Q535 574 588 542T677 470T730 382T748 272Q748 217 730 166T673 73T573 6T427 -25Q416 -26 410 -29T404 -43V-165Q404 -189 400 -194T386 -200Q368 -200 354 -188T339 -156V-40Q339 -23
321 -22Q265 -16 224 -5T154 19T111 42T92 55Q86 60 82 66T75 83Q75 85 72 109T64 162T56 217T51 250Q50 257 53 261T59 266T67 266T74 261Q75 259 83 244T105 208T140 160T186 110T245 66T316 36Q328 33 334 35T340 51Q340 55 340 77T340 131T340 199T339 266T339
319T339 344Q339 353 337 360T323 372Q315 376 305 380T285 388Q214 417 170 454T101 533T67 616T58 696Q58 732 68 778T108 866T187 940T319 981Q330 983 334 986T339 1002V1109Q339 1133 343 1138T357 1144Q375 1144 389 1132T404 1099V1004Q404 993 407 989T424
982Q473 977 513 966T581 944T626 922T646 911Q656 905 660 900T666 884Q666 882 668 872T672 845T677 811T682 777T686 750T688 737Q689 726 681 724T665 731Q653 748 632 775T580 832T511 886T426 924Q404 930 404 908V644Q404 635 406 630T420 620Q430 616 440
612T462 603ZM339 912Q339 932 317 927Q270 915 249 882T228 809Q228 774 246 742T316 674Q326 668 332 670T339 684V912ZM427 34Q467 48 492 79T517 155Q517 199 499 238T426 315Q418 322 411 319T404 305V49Q404 26 427 34Z" />
<glyph unicode="%" glyph-name="percent" horiz-adv-x="1133" d="M306 985Q364 985 412 967T496 917T550 842T570 750Q570 701 549 658T490 581T403 529T294 510Q236 510 188 528T104 578T50 653T30 745Q30 794 51 837T110 914T197 966T306 985ZM300 557Q321 557
337 572T363 613T379 673T385 747Q385 786 380 821T364 881T337 922T300 937Q279 937 263 922T237 882T221 821T215 747Q215 708 220 674T236 613T263 572T300 557ZM840 450Q898 450 946 432T1030 382T1084 307T1104 215Q1104 166 1083 123T1024 46T937 -6T828
-25Q770 -25 722 -7T638 43T584 118T564 210Q564 259 585 302T644 379T731 431T840 450ZM834 22Q855 22 871 37T897 78T913 138T919 212Q919 251 914 286T898 346T871 387T834 402Q813 402 797 387T771 347T755 286T749 212Q749 173 754 139T770 78T797 37T834
22ZM999 960Q1007 960 1009 956T1006 945L226 15Q221 9 211 5T193 0H135Q127 0 125 4T128 15L908 945Q913 951 923 955T941 960H999Z" />
<glyph unicode="&amp;" glyph-name="ampersand" horiz-adv-x="1353" d="M1198 56Q1211 46 1212 39T1205 23Q1200 18 1190 10T1161 -6T1116 -19T1050 -25Q1002 -25 965 -11T897 24T843 70T796 116Q788 123 776 137T748 172Q742 180 735 180T725 171Q705 130 677
94T612 32T529 -10T427 -25Q368 -25 318 -8T231 42T173 125T152 240Q152 306 178 362T247 466T340 552T439 617Q454 625 445 644Q414 706 397 760T380 858Q380 914 404 955T469 1023T562 1063T671 1076Q713 1076 752 1065T822 1032T871 976T890 896Q890 826 851
778T747 701Q739 697 736 693T739 677Q771 620 811 560T894 439Q905 423 916 437Q959 489 1003 520T1099 551Q1156 551 1189 518T1223 426Q1223 407 1216 387T1195 350T1159 322T1108 311Q1039 311 1014 373Q1009 387 1003 403T977 419Q970 419 960 414T939 399Q928
390 937 378Q979 319 1020 266T1095 169T1157 97T1198 56ZM723 999Q708 999 693 996T664 984T643 959T634 918Q634 891 652 847T700 746Q705 738 710 737T726 740Q759 757 778 776T808 815T822 854T826 888Q826 909 820 929T800 964T768 989T723 999ZM599 182Q625
182 649 187T693 202Q706 208 706 216T701 233Q675 267 647 307T590 391T533 482T480 575Q476 583 470 583T457 577Q424 547 406 502T387 401Q387 351 403 311T447 242T514 198T599 182Z" />
<glyph unicode="&apos;" glyph-name="quotesingle" horiz-adv-x="375" d="M138 1100Q125 1113 112 1126T89 1155T73 1189T66 1232Q66 1261 77 1287T107 1332T153 1363T211 1375Q242 1375 268 1362T312 1328T341 1278T351 1218Q351 1151 329 1095T270 995T190 918T104
862Q90 854 83 863T89 888Q110 909 127 938T152 997T159 1054T138 1100Z" />
<glyph unicode="(" glyph-name="parenleft" horiz-adv-x="570" d="M340 555Q340 304 384 84T507 -306Q515 -323 505 -330T480 -327Q396 -275 326 -187T206 16T127 268T98 555Q98 705 126 842T205 1094T326 1297T480 1438Q497 1449 506 1442T507 1416Q429 1247
385 1027T340 555Z" />
<glyph unicode=")" glyph-name="parenright" horiz-adv-x="570" d="M230 555Q230 807 186 1027T63 1416Q55 1435 64 1442T90 1438Q174 1385 244 1297T365 1095T444 843T472 555Q472 405 444 268T365 16T244 -187T90 -327Q76 -337 66 -330T63 -306Q141 -137 185
83T230 555Z" />
<glyph unicode="*" glyph-name="asterisk" horiz-adv-x="597" d="M529 1009Q561 990 567 967T560 922Q547 900 524 893T469 905Q450 916 430 934T390 974T349 1015T311 1051Q314 1028 322 1001T338 945T352 890T358 841Q358 803 341 787T298 771Q273 771 256 787T238
841Q238 863 244 889T258 944T275 1000T286 1051Q268 1036 248 1016T207 974T167 935T128 905Q95 886 72 893T37 922Q24 944 29 967T68 1009Q86 1020 112 1028T167 1043T223 1057T273 1073Q251 1082 224 1089T168 1103T113 1118T68 1137Q35 1156 30 1179T37 1224Q49
1246 72 1253T128 1241Q146 1230 166 1211T207 1171T247 1130T286 1095Q283 1118 275 1145T259 1201T244 1256T238 1305Q238 1343 255 1359T298 1375Q324 1375 341 1359T358 1305Q358 1283 352 1257T338 1202T322 1146T311 1095Q329 1109 349 1129T389 1171T430
1211T469 1241Q501 1260 524 1253T560 1224Q573 1202 567 1179T529 1137Q510 1126 484 1118T430 1103T374 1089T324 1073Q346 1064 373 1057T429 1043T484 1028T529 1009Z" />
<glyph unicode="+" glyph-name="plus" horiz-adv-x="985" d="M949 487Q973 487 978 483T984 468Q984 450 972 436T940 422H547Q539 422 533 416T527 402V3Q527 -6 522 -13T510 -25T493 -34T477 -37Q467 -37 462 -32T457 -2V402Q457 410 451 416T437 422H35Q11
422 6 427T0 442Q0 456 11 471T40 487H437Q445 487 451 493T457 507V903Q457 922 473 934T508 947Q518 947 522 942T527 912V507Q527 499 533 493T547 487H949V487Z" />
<glyph unicode="," glyph-name="comma" horiz-adv-x="500" d="M180 -6Q167 7 154 20T131 49T115 83T108 126Q108 155 119 181T149 226T195 257T253 269Q284 269 310 256T354 222T383 172T393 112Q393 45 371 -11T312 -111T232 -188T146 -244Q132 -252 125 -243T131
-218Q152 -197 169 -168T194 -109T201 -52T180 -6Z" />
<glyph unicode="-" glyph-name="hyphen" horiz-adv-x="884" d="M782 355Q782 347 776 341T762 335H122Q114 335 108 341T102 355V545Q102 553 108 559T122 565H762Q770 565 776 559T782 545V355Z" />
<glyph unicode="." glyph-name="period" horiz-adv-x="500" d="M400 124Q400 93 388 66T356 19T307 -13T247 -25Q215 -25 188 -14T142 17T111 63T100 121Q100 151 112 178T144 226T193 258T253 270Q285 270 312 259T358 228T389 181T400 124Z" />
<glyph unicode="/" glyph-name="slash" horiz-adv-x="639" d="M572 1350Q580 1350 584 1345T586 1331L160 19Q157 11 150 6T134 0H95Q87 0 83 5T81 19L507 1331Q510 1339 517 1344T533 1350H572Z" />
<glyph unicode="0" glyph-name="zero" horiz-adv-x="1099" d="M560 985Q669 985 760 946T916 840T1018 681T1055 485Q1055 380 1015 288T906 126T742 16T539 -25Q431 -25 340 14T184 120T82 279T45 475Q45 579 85 672T194 834T358 944T560 985ZM550 28Q604 28
644 63T711 160T751 304T765 480Q765 574 752 656T712 799T645 896T550 932Q496 932 456 897T388 800T348 656T335 480Q335 386 348 304T388 161T455 64T550 28Z" />
<glyph unicode="1" glyph-name="one" horiz-adv-x="1100" d="M706 172Q706 128 728 101T778 59T832 37T866 29Q874 27 877 23T880 13T875 4T862 0H280Q272 0 268 4T262 13T264 22T276 29Q284 30 310 36T364 58T414 101T436 172V600Q436 632 405 642Q402 643 383
646T340 654T297 662T274 667Q261 670 261 678T275 695Q330 724 384 758T490 830T589 907T678 984Q686 992 696 990T706 974V172Z" />
<glyph unicode="2" glyph-name="two" horiz-adv-x="1001" d="M890 382Q904 397 915 393T924 374Q923 367 919 342T909 281T895 205T882 128T870 65T864 30Q860 11 854 6T826 0H51H48Q37 1 34 9T37 28Q69 77 105 114T179 184T256 247T334 312T411 387T487 482Q510
515 524 557T542 643T539 729T510 804T454 857T368 877Q326 877 292 867T230 842T179 807T136 769Q123 757 114 763T113 787Q127 815 154 849T226 914T331 964T472 985Q552 985 617 962T727 895T798 790T823 655Q823 591 805 541T754 452T680 384T591 331T493 289T396
253Q367 242 336 228T274 198H474Q504 198 537 200T605 209T671 224T732 246Q760 259 785 279T832 319T868 357T890 382Z" />
<glyph unicode="3" glyph-name="three" horiz-adv-x="1099" d="M468 376Q508 389 554 394T646 393T734 369T810 318T862 237T882 121Q882 21 828 -69T676 -229T446 -346T153 -404Q145 -405 140 -402T134 -394T135 -384T146 -374Q156 -370 192 -357T278 -321T381
-265T482 -188T558 -88T588 37Q588 126 562 178T501 258T431 292T376 300Q360 300 342 298T308 294Q293 292 289 301T296 320Q301 324 323 338T374 375T437 430T498 504T544 597T563 708Q563 783 517 828T385 874Q353 874 323 863T268 837T224 807T195 784Q185
776 178 782T175 800Q179 809 208 839T286 901T405 959T558 985Q600 985 640 976T714 947T773 897T811 825Q828 768 823 716T795 619T738 534T658 465T565 412T468 376Z" />
<glyph unicode="4" glyph-name="four" horiz-adv-x="1101" d="M1041 20Q1041 12 1035 6T1021 0H917Q909 0 903 -6T897 -20V-285Q897 -302 892 -311T869 -325Q856 -329 827 -338T766 -358T705 -379T660 -394Q627 -405 627 -371V-20Q627 -12 621 -6T607 0H32Q10
0 3 12T13 44Q17 48 52 86T143 184T270 321T415 477T562 636T694 779T795 888T847 944Q856 954 865 956T881 955T892 945T897 929V200Q897 192 903 186T917 180H1021Q1029 180 1035 174T1041 160V20ZM627 590Q627 601 620 602T606 596Q604 594 577 565T511 493T426
401T340 309T273 236T242 203Q233 193 237 187T250 180H607Q615 180 621 186T627 200V590Z" />
<glyph unicode="5" glyph-name="five" horiz-adv-x="1100" d="M193 382V1096Q193 1112 203 1116T223 1120Q292 1120 358 1100T490 1058Q556 1036 622 1025T758 1011Q781 1010 805 1010T855 1012Q866 1013 868 1005T864 988Q839 958 798 930T702 879T585 843T452
829Q401 829 352 840T275 869Q268 874 263 872T258 861V467Q258 459 263 458T275 461Q280 465 309 483T384 520T488 556T608 572Q676 572 734 554T834 499T900 405T924 270Q924 224 909 167T860 51T771 -66T634 -170T442 -246T190 -282Q181 -282 176 -279T169 -270T172
-260T188 -251Q222 -240 268 -224T364 -183T463 -124T550 -43T612 64T636 202Q636 274 616 317T565 384T496 414T424 422Q397 422 366 415T307 399T256 381T226 366Q209 356 201 362T193 382Z" />
<glyph unicode="6" glyph-name="six" horiz-adv-x="1100" d="M563 -25Q478 -25 404 0T276 81T190 222T159 430Q159 510 178 601T235 786T329 968T458 1134T622 1268T820 1356Q832 1359 838 1357T846 1349T844 1337T833 1326Q780 1299 735 1255T651 1156T583 1036T529
904T489 770T462 642Q468 659 483 674T520 702T569 721T626 729Q687 729 745 707T847 640T918 526T945 363Q945 275 914 204T830 81T708 3T563 -25ZM554 645Q524 645 502 621T466 554T444 456T436 335Q436 271 443 215T465 116T502 50T554 25Q584 25 606 49T642
116T664 214T671 335Q671 399 664 455T643 554T606 620T554 645Z" />
<glyph unicode="7" glyph-name="seven" horiz-adv-x="1099" d="M895 704Q904 717 904 726T886 735H497Q404 735 339 721T219 679Q192 665 166 645T119 603T83 563T61 538Q47 523 36 527T27 546Q28 550 36 579T57 648T83 736T110 824T132 894T143 930Q149 948 154
954T181 960H1064Q1077 960 1084 955T1081 932Q959 726 875 547T735 223T645 -32T591 -207Q581 -239 568 -265T537 -311T494 -342T435 -353Q405 -353 383 -343T345 -314T322 -273T314 -225Q314 -190 335 -137T387 -26T453 90T518 189Q537 217 572 265T648 369T731
482T809 588T868 668T895 704Z" />
<glyph unicode="8" glyph-name="eight" horiz-adv-x="1100" d="M712 755Q704 750 703 745T710 735Q761 710 810 684T898 621T959 534T983 411Q983 305 944 224T839 88T690 4T515 -25Q436 -25 362 -7T231 49T139 148T104 291Q104 347 126 396T185 488T266 564T355
625Q363 630 363 636T355 647Q316 669 279 695T213 756T167 836T149 939Q149 1020 178 1089T261 1208T389 1286T552 1315Q607 1315 664 1307T771 1277T859 1220T915 1128Q932 1072 921 1018T880 915T806 826T712 755ZM527 1265Q502 1265 478 1254T434 1222T402
1167T389 1090Q389 1049 398 1014T430 945T490 878T581 807Q593 799 605 791T631 776Q645 768 653 772T669 786Q692 820 706 869T720 984Q720 1046 708 1097T671 1186T610 1244T527 1265ZM545 28Q590 28 623 44T677 89T710 153T721 227Q721 288 706 337T662 426T593
501T503 567Q489 576 474 584T442 601Q415 614 397 593Q361 550 338 491T314 351Q314 270 335 210T389 109T463 48T545 28Z" />
<glyph unicode="9" glyph-name="nine" horiz-adv-x="1099" d="M516 985Q601 985 675 960T803 879T889 738T920 530Q920 450 901 359T844 174T750 -8T621 -174T457 -309T259 -396Q247 -399 241 -397T233 -389T234 -377T246 -366Q299 -340 344 -296T428 -196T496
-76T550 56T590 190T617 318Q611 301 596 286T559 258T510 239T453 231Q391 231 334 252T232 319T161 433T134 597Q134 685 165 756T249 879T371 957T516 985ZM525 315Q555 315 577 339T613 406T635 504T642 625Q642 689 635 745T614 844T577 910T525 935Q495 935
473 911T437 844T415 746T407 625Q407 561 414 505T436 406T473 340T525 315Z" />
<glyph unicode=":" glyph-name="colon" horiz-adv-x="500" d="M400 124Q400 93 388 66T356 19T307 -13T247 -25Q215 -25 188 -14T142 17T111 63T100 121Q100 151 112 178T144 226T193 258T253 270Q285 270 312 259T358 228T389 181T400 124ZM400 779Q400 748 388
721T356 674T307 642T247 630Q215 630 188 641T142 672T111 718T100 776Q100 806 112 833T144 881T193 913T253 925Q285 925 312 914T358 883T389 836T400 779Z" />
<glyph unicode=";" glyph-name="semicolon" horiz-adv-x="515" d="M191 -6Q178 7 165 20T142 49T126 83T119 126Q119 155 130 181T160 226T206 257T264 269Q295 269 321 256T365 222T394 172T404 112Q404 45 382 -11T323 -111T243 -188T157 -244Q143 -252 136
-243T142 -218Q163 -197 180 -168T205 -109T212 -52T191 -6ZM408 779Q408 748 396 721T364 674T315 642T255 630Q223 630 196 641T150 672T119 718T108 776Q108 806 120 833T152 881T201 913T261 925Q293 925 320 914T366 883T397 836T408 779Z" />
<glyph unicode="&lt;" glyph-name="less" horiz-adv-x="755" d="M675 85Q675 77 670 74T658 75L27 439Q20 443 15 452T10 469V492Q10 500 15 508T27 522L658 885Q665 890 670 887T675 875V829Q675 821 670 812T658 799L123 490Q115 486 115 481T123 470L658 161Q665
157 670 148T675 131V85Z" />
<glyph unicode="=" glyph-name="equal" horiz-adv-x="950" d="M862 710Q886 710 891 706T897 691Q897 673 885 657T853 640H88Q64 640 59 645T53 660Q53 667 56 676T64 692T77 705T93 710H862ZM862 326Q886 326 891 322T897 307Q897 289 885 273T853 256H88Q64
256 59 261T53 276Q53 283 56 292T64 308T77 321T93 326H862Z" />
<glyph unicode="&gt;" glyph-name="greater" horiz-adv-x="755" d="M80 131Q80 139 85 148T97 161L632 470Q640 475 640 480T632 490L97 799Q90 803 85 812T80 829V875Q80 883 85 886T97 885L728 522Q735 517 740 509T745 492V469Q745 461 740 452T728 439L97
75Q90 70 85 73T80 85V131Z" />
<glyph unicode="?" glyph-name="question" horiz-adv-x="764" d="M485 120Q485 90 474 64T442 18T395 -13T337 -25Q306 -25 280 -14T235 16T206 61T195 117Q195 147 206 173T238 220T285 251T343 263Q374 263 400 252T445 222T474 176T485 120ZM287 473Q269 548
270 605T282 706T313 785T351 847Q370 875 394 902T441 964T479 1041T495 1143Q495 1182 483 1210T451 1259T408 1292T361 1312T319 1322T289 1325Q257 1325 230 1319T193 1291Q188 1280 193 1268T207 1240T223 1206T231 1167Q231 1146 223 1125T199 1088T159 1061T101
1051Q70 1051 49 1062T15 1091T-5 1130T-11 1171Q-11 1184 -6 1204T13 1247T51 1293T112 1335T203 1365T327 1377Q375 1377 427 1371T529 1349T621 1305T691 1233Q722 1183 733 1127T739 1014T710 903T650 805Q614 762 568 727T477 656T397 578T343 477Q338 461
330 454T314 446T298 453T287 473Z" />
<glyph unicode="@" glyph-name="at" horiz-adv-x="1625" d="M823 1305Q985 1305 1126 1260T1371 1119T1536 878T1596 531Q1596 396 1563 297T1473 134T1345 38T1197 6Q1082 6 1021 59T965 221Q951 173 926 134T866 67T788 24T695 9Q460 9 460 316Q460 430 486
534T561 719T677 846T828 894Q873 894 908 878T967 838T1004 783T1020 723Q1022 749 1025 772Q1027 792 1029 811T1032 839Q1035 867 1064 867Q1070 867 1088 867T1129 867T1172 866T1201 866Q1218 866 1223 857T1227 835Q1227 833 1224 807T1215 738T1204 641T1191
531T1178 419T1166 318T1157 241T1152 201Q1150 184 1156 167T1176 135T1211 111T1261 101Q1315 101 1364 132T1451 221T1511 360T1534 540Q1534 719 1479 849T1329 1065T1106 1191T833 1232Q688 1232 561 1177T340 1024T190 791T135 495Q135 326 186 190T329 -43T544
-192T813 -245Q825 -245 840 -245T870 -245T901 -245T930 -243Q942 -242 949 -246T958 -256T956 -268T939 -279Q907 -289 870 -292T803 -295Q637 -295 496 -246T251 -99T89 140T30 468Q30 593 58 703T139 907T264 1074T425 1199T614 1277T823 1305ZM985 459Q995
526 996 584T989 686T959 759T901 795Q860 803 826 785T765 727T719 630T690 504Q663 320 683 233T777 137Q853 128 906 204T985 459Z" />
<glyph unicode="A" glyph-name="A" horiz-adv-x="1348" d="M1388 33Q1396 31 1399 26T1401 15T1395 5T1381 0H753Q746 0 742 4T736 13T737 24T751 32Q761 35 786 43T835 69T872 119T869 198Q864 211 856 237T837 294T816 359T795 421T779 470T771 494Q768 503
760 503H329Q320 503 317 495Q313 483 305 455T285 392T263 319T241 247T224 190T215 158Q207 121 218 98T250 62T293 42T331 32Q340 30 343 25T345 14T339 4T327 0H-43Q-51 0 -55 4T-60 13T-58 23T-46 31Q-20 38 5 48T51 73T90 111T120 163Q126 178 146 234T195
373T259 556T329 758T399 958T459 1132T501 1255T519 1305Q523 1316 529 1322T548 1330Q570 1334 599 1341T658 1356T719 1373T774 1394Q791 1402 798 1398T811 1382Q812 1379 827 1332T868 1210T926 1037T992 837T1061 632T1123 445T1172 299T1200 215Q1215 172
1235 141T1280 87T1332 51T1388 33ZM345 581Q340 568 353 568H734Q746 568 742 580Q741 583 733 609T710 677T679 771T644 876T609 981T579 1073T557 1139T548 1165Q546 1172 540 1171T531 1164Q530 1162 519 1128T491 1040T453 921T412 791T374 671T345 581Z"
/>
<glyph unicode="B" glyph-name="B" horiz-adv-x="1198" d="M905 697Q987 676 1040 641T1124 561T1167 465T1179 359Q1179 287 1154 222T1073 108T925 29T700 0H41Q31 0 26 4T21 14T24 25T38 32Q50 34 76 40T128 64T175 110T195 186V1164Q195 1210 175 1239T129
1285T76 1309T38 1318Q29 1319 25 1324T20 1335T26 1345T41 1350H737Q842 1350 912 1325T1026 1257T1088 1155T1107 1030Q1107 984 1097 938T1064 850T1001 772T903 709Q897 706 898 703T905 697ZM525 785Q525 757 540 741T585 724Q611 724 642 736T701 782T746
879T764 1043Q764 1087 761 1132T745 1213T707 1273T638 1296Q602 1296 580 1283T545 1242T529 1174T525 1079V785ZM658 57Q697 57 723 73T767 117T794 177T808 245T813 310T814 363Q814 439 802 491T770 578T726 630T677 657T630 667T592 669Q561 669 543 653T525
608V294Q525 240 530 196T551 122T591 74T658 57Z" />
<glyph unicode="C" glyph-name="C" horiz-adv-x="1229" d="M40 668Q40 814 96 943T250 1169T482 1322T770 1378Q855 1378 922 1365T1038 1336T1113 1305T1144 1287Q1156 1278 1156 1266V1029Q1156 1022 1152 1018T1143 1013T1133 1015T1125 1024Q1106 1069 1080
1121T1013 1217T918 1291T786 1320Q689 1320 621 1270T509 1132T445 927T425 676Q425 542 456 438T550 263T705 154T922 116Q987 116 1057 130T1195 179Q1202 183 1208 182T1218 176T1222 166T1214 152Q1127 66 1010 19T745 -28Q578 -28 447 26T226 174T88 395T40
668Z" />
<glyph unicode="D" glyph-name="D" horiz-adv-x="1453" d="M755 1350Q926 1350 1050 1298T1256 1156T1376 944T1415 682Q1415 540 1374 416T1248 200T1037 54T739 0H41Q31 0 26 4T21 14T24 25T38 32Q50 34 76 40T128 64T175 110T195 186V1164Q195 1210 175 1239T129
1285T76 1309T38 1318Q29 1319 25 1324T20 1335T26 1345T41 1350H755ZM739 61Q817 61 872 107T962 234T1014 428T1030 675Q1030 808 1015 917T966 1106T881 1232T755 1286Q743 1287 722 1287T677 1288T630 1289T592 1289Q561 1289 543 1272T525 1227V479Q525 366
535 287T571 158T637 84T739 61Z" />
<glyph unicode="E" glyph-name="E" horiz-adv-x="1135" d="M1092 288Q1098 304 1111 303T1124 285V19Q1124 0 1103 0H41Q31 0 26 4T21 14T24 25T38 32Q50 34 76 40T128 64T175 110T195 186V1164Q195 1210 175 1239T129 1285T76 1309T38 1318Q29 1319 25 1324T20
1335T26 1345T41 1350H1016Q1037 1350 1037 1331V1123Q1037 1108 1025 1107T1005 1119Q999 1132 981 1160T931 1218T851 1270T736 1293Q689 1293 650 1285T584 1260T541 1215T525 1148V726V741Q525 735 529 731T540 726H668Q713 726 741 744T786 786T810 833T819
869Q820 877 825 880T836 884T846 879T851 866V526Q851 518 847 514T837 509T826 511T819 523Q817 535 810 558T787 606T742 648T668 666H540Q534 666 530 662T525 651V666V205Q525 134 587 97T763 60Q817 60 861 74T941 111T1003 160T1048 213T1077 258T1092 288Z"
/>
<glyph unicode="F" glyph-name="F" horiz-adv-x="1052" d="M1016 1350Q1037 1350 1037 1331V1113Q1037 1098 1025 1097T1005 1109Q999 1122 981 1152T931 1213T851 1269T736 1293Q689 1293 650 1285T584 1260T541 1215T525 1148V711V726Q525 720 529 716T540 711H668Q713
711 741 729T786 771T810 818T819 854Q820 862 825 865T836 869T846 864T851 851V511Q851 503 847 499T837 494T826 496T819 508Q817 520 810 543T787 591T742 633T668 651H540Q534 651 530 647T525 636V651V186Q525 139 545 110T591 64T644 41T682 32Q691 30 695
25T700 15T694 5T679 0H41Q31 0 26 4T21 14T24 25T38 32Q50 34 76 40T128 64T175 110T195 186V1164Q195 1210 175 1239T129 1285T76 1309T38 1318Q29 1319 25 1324T20 1335T26 1345T41 1350H1016V1350Z" />
<glyph unicode="G" glyph-name="G" horiz-adv-x="1365" d="M40 667Q40 764 66 854T140 1024T255 1168T405 1280T582 1352T780 1378Q865 1378 934 1365T1053 1335T1132 1304T1164 1286Q1176 1277 1176 1265V1055Q1176 1048 1172 1044T1163 1039T1153 1041T1145
1050Q1126 1095 1098 1143T1027 1230T925 1294T786 1319Q689 1319 621 1269T509 1131T445 926T425 675Q425 541 445 424T505 220T607 82T750 31Q827 31 870 64T935 149T962 266T967 392V471Q967 516 947 545T901 591T848 616T810 625Q801 626 797 631T792 642T798
652T813 657H1265Q1280 657 1288 649T1297 626V117Q1297 101 1291 94T1274 83Q1197 60 1134 40T1009 5T882 -19T735 -28Q582 -28 455 26T235 174T92 394T40 667Z" />
<glyph unicode="H" glyph-name="H" horiz-adv-x="1485" d="M1446 32Q1455 30 1459 25T1464 15T1458 5T1443 0H805Q795 0 790 4T785 14T788 25T802 32Q814 34 840 40T892 64T939 110T959 186V662H525V186Q525 139 545 110T591 64T644 41T682 32Q691 30 695 25T700
15T694 5T679 0H41Q31 0 26 4T21 14T24 25T38 32Q50 34 76 40T128 64T175 110T195 186V1164Q195 1210 175 1239T129 1285T76 1309T38 1318Q29 1319 25 1324T20 1335T26 1345T41 1350H679Q689 1350 694 1346T699 1336T696 1325T682 1318Q670 1316 644 1309T592 1286T545
1240T525 1164V727H959V1164Q959 1210 939 1239T893 1285T840 1309T802 1318Q793 1319 789 1324T784 1335T790 1345T805 1350H1443Q1453 1350 1458 1346T1463 1336T1460 1325T1446 1318Q1434 1316 1408 1309T1356 1286T1309 1240T1289 1164V186Q1289 139 1309 110T1355
64T1408 41T1446 32Z" />
<glyph unicode="I" glyph-name="I" horiz-adv-x="719" d="M682 32Q691 30 695 25T700 15T694 5T679 0H41Q31 0 26 4T21 14T24 25T38 32Q50 34 76 40T128 64T175 110T195 186V1164Q195 1210 175 1239T129 1285T76 1309T38 1318Q29 1319 25 1324T20 1335T26 1345T41
1350H679Q689 1350 694 1346T699 1336T696 1325T682 1318Q670 1316 644 1309T592 1286T545 1240T525 1164V186Q525 139 545 110T591 64T644 41T682 32Z" />
<glyph unicode="J" glyph-name="J" horiz-adv-x="777" d="M572 349Q572 207 552 101T496 -82T412 -208T307 -286T188 -326T62 -338Q-33 -338 -91 -322T-182 -279T-226 -222T-238 -162Q-238 -111 -204 -78T-115 -44Q-101 -44 -90 -45T-64 -51Q-41 -59 -26 -73T1
-105T19 -144T31 -187Q34 -199 38 -213T49 -241T67 -263T95 -272Q126 -272 153 -252T200 -180T231 -39T242 187V1164Q242 1210 222 1239T176 1285T123 1309T85 1318Q76 1319 72 1324T67 1335T73 1345T88 1350H726Q736 1350 741 1346T746 1336T743 1325T729 1318Q717
1316 691 1309T639 1286T592 1240T572 1164V349V349Z" />
<glyph unicode="K" glyph-name="K" horiz-adv-x="1229" d="M1222 127Q1233 131 1244 126T1250 101Q1244 78 1225 56T1175 14T1107 -16T1025 -28Q988 -28 951 -21T881 3T821 48T775 118Q760 154 752 200T739 307Q732 384 722 438T700 528T674 584T644 615T614 627T585
630Q568 630 557 624T538 608T528 587T525 565V186Q525 139 545 110T591 64T644 41T682 32Q691 30 695 25T700 15T694 5T679 0H41Q31 0 26 4T21 14T24 25T38 32Q50 34 76 40T128 64T175 110T195 186V1164Q195 1210 175 1239T129 1285T76 1309T38 1318Q29 1319 25
1324T20 1335T26 1345T41 1350H679Q689 1350 694 1346T699 1336T696 1325T682 1318Q670 1316 644 1309T592 1286T545 1240T525 1164V755Q525 727 533 709T566 690Q582 690 594 696T618 714T639 742T662 778Q670 791 689 823T732 898T784 989T835 1082T878 1165T906
1224Q919 1256 912 1274T888 1301T852 1313T820 1318Q811 1319 807 1324T802 1335T808 1345T823 1350H1202Q1212 1350 1217 1346T1222 1335T1219 1324T1205 1318Q1190 1316 1167 1313T1118 1298T1064 1264T1012 1204Q995 1179 967 1135T906 1038T839 933T777 835T731
762T711 730Q707 723 710 721T720 719Q729 720 739 720T761 720Q802 720 843 712T921 686T989 639T1043 568Q1063 530 1071 474T1083 355Q1086 286 1091 241T1108 169Q1117 148 1131 138T1162 123T1194 120T1222 127Z" />
<glyph unicode="L" glyph-name="L" horiz-adv-x="1086" d="M1052 315Q1058 331 1071 330T1084 312V19Q1084 0 1063 0H41Q31 0 26 4T21 14T24 25T38 32Q50 34 76 40T128 64T175 110T195 186V1164Q195 1210 175 1239T129 1285T76 1309T38 1318Q29 1319 25 1324T20
1335T26 1345T41 1350H679Q689 1350 694 1346T699 1336T696 1325T682 1318Q670 1316 644 1309T592 1286T545 1240T525 1164V133Q525 109 531 95T556 73T608 63T696 60Q761 60 811 76T900 118T966 174T1011 233T1038 283T1052 315Z" />
<glyph unicode="M" glyph-name="M" horiz-adv-x="1739" d="M1701 32Q1710 30 1714 25T1719 15T1713 5T1698 0H1060Q1050 0 1045 4T1040 14T1043 25T1057 32Q1069 34 1095 40T1147 64T1194 110T1214 186V1113Q1214 1120 1209 1122T1198 1115Q1196 1111 1183 1079T1149
993T1100 870T1041 722T978 562T914 403T856 256T807 135T773 51T759 18Q753 8 744 8T729 18Q728 20 715 53T680 143T629 273T568 431T501 603T435 776T373 935T322 1067T286 1160T271 1199Q268 1207 262 1207T255 1197Q255 1194 255 1150T255 1033T255 871T255
686V186Q255 139 275 110T321 64T374 41T412 32Q421 30 425 25T430 15T424 5T409 0H31Q21 0 16 4T11 14T14 25T28 32Q40 34 66 40T118 64T165 110T185 186V1164Q185 1210 165 1239T119 1285T66 1309T28 1318Q19 1319 15 1324T10 1335T16 1345T31 1350H524Q553 1350
563 1326Q572 1301 590 1254T631 1148T680 1019T732 882T782 749T826 634T859 550T875 509Q877 504 881 504T887 508Q889 513 902 546T935 629T982 744T1035 878T1090 1016T1142 1145T1186 1253T1215 1326Q1225 1350 1256 1350H1698Q1708 1350 1713 1346T1718 1336T1715
1325T1701 1318Q1689 1316 1663 1309T1611 1286T1564 1240T1544 1164V186Q1544 139 1564 110T1610 64T1663 41T1701 32Z" />
<glyph unicode="N" glyph-name="N" horiz-adv-x="1398" d="M1368 1350Q1378 1350 1383 1346T1388 1336T1385 1325T1371 1318Q1359 1316 1333 1309T1281 1286T1234 1240T1214 1164V12Q1214 -3 1203 -8T1178 -1Q1175 2 1149 33T1078 117T976 237T854 382T721 540T589
697T468 842T368 961T300 1042T273 1073Q266 1080 261 1078T256 1066V186Q256 139 276 110T322 64T375 41T413 32Q422 30 426 25T431 15T425 5T410 0H30Q20 0 15 4T10 14T13 25T27 32Q39 34 65 40T117 64T164 110T184 186V1164Q184 1210 164 1239T118 1285T65 1309T27
1318Q18 1319 14 1324T9 1335T15 1345T30 1350H427Q458 1350 476 1329Q495 1306 533 1261T619 1159T723 1035T834 903T941 776T1033 668T1097 591T1124 560Q1132 552 1137 554T1142 566V1164Q1142 1210 1122 1239T1076 1285T1023 1309T985 1318Q976 1319 972 1324T967
1335T973 1345T988 1350H1368V1350Z" />
<glyph unicode="O" glyph-name="O" horiz-adv-x="1500" d="M765 1378Q866 1378 957 1354T1125 1284T1265 1176T1370 1035T1436 869T1460 682Q1460 585 1435 495T1363 326T1250 182T1104 70T930 -2T735 -28Q582 -28 455 26T235 174T92 394T40 667Q40 764 65 854T137
1024T250 1168T396 1280T570 1352T765 1378ZM750 31Q832 31 893 81T994 219T1055 424T1075 675Q1075 808 1055 925T995 1130T893 1268T750 1319Q668 1319 607 1269T506 1131T445 926T425 675Q425 541 445 424T505 220T607 82T750 31Z" />
<glyph unicode="P" glyph-name="P" horiz-adv-x="1167" d="M1165 1156Q1186 1111 1196 1059T1205 955T1191 852T1155 757Q1129 709 1086 674T991 615T883 580T776 569Q751 569 722 570T663 575T601 586T539 608Q530 612 528 609T525 602V186Q525 139 545 110T591
64T644 41T682 32Q691 30 695 25T700 15T694 5T679 0H41Q31 0 26 4T21 14T24 25T38 32Q50 34 76 40T128 64T175 110T195 186V1164Q195 1210 175 1239T129 1285T76 1309T38 1318Q29 1319 25 1324T20 1335T26 1345T41 1350H525H691Q748 1350 803 1349T911 1338T1013
1305T1109 1239Q1126 1222 1140 1200T1165 1156ZM644 647Q701 647 740 669T804 734T840 835T851 969Q851 1032 847 1090T825 1192T772 1262T676 1289Q630 1289 601 1274T555 1232T532 1173T525 1103V773Q525 707 557 677T644 647Z" />
<glyph unicode="Q" glyph-name="Q" horiz-adv-x="1500" d="M735 -28Q582 -28 455 26T235 174T92 394T40 667Q40 764 65 854T137 1024T250 1168T396 1280T570 1352T765 1378Q866 1378 957 1354T1125 1284T1265 1176T1370 1035T1436 869T1460 682Q1460 585 1435
495T1363 326T1250 182T1104 70T930 -2T735 -28ZM750 1319Q668 1319 607 1269T506 1131T445 926T425 675Q425 541 445 424T505 220T607 82T750 31Q832 31 893 81T994 219T1055 424T1075 675Q1075 808 1055 925T995 1130T893 1268T750 1319ZM1363 -20Q1372 -15 1381
-22T1383 -40Q1350 -87 1298 -140T1175 -238T1016 -313T824 -343Q763 -343 712 -332T617 -305T534 -269T458 -233T383 -205T306 -194Q267 -194 242 -200T207 -210Q194 -215 186 -206T191 -183Q197 -177 227 -156T305 -113T419 -72T560 -54Q626 -54 681 -61T785
-80Q814 -87 842 -94T900 -108T962 -118T1034 -122Q1089 -122 1138 -112T1230 -86T1306 -52T1363 -20Z" />
<glyph unicode="R" glyph-name="R" horiz-adv-x="1313" d="M1254 127Q1266 131 1276 126T1282 101Q1276 78 1257 56T1208 14T1140 -16T1058 -28Q1021 -28 984 -21T914 3T853 48T808 118Q792 154 784 200T770 307Q760 423 741 490T696 592T641 636T585 645Q551
645 538 632T525 587V186Q525 139 545 110T591 64T644 41T682 32Q691 30 695 25T700 15T694 5T679 0H41Q31 0 26 4T21 14T24 25T38 32Q50 34 76 40T128 64T175 110T195 186V1164Q195 1210 175 1239T129 1285T76 1309T38 1318Q29 1319 25 1324T20 1335T26 1345T41
1350H657Q714 1350 769 1349T877 1339T979 1309T1075 1248Q1112 1215 1135 1170T1168 1074T1173 972T1146 875Q1110 795 1052 752T913 685Q905 683 904 679T910 673Q918 671 938 666T983 650T1033 618T1075 568Q1096 531 1104 475T1115 355Q1119 286 1123 241T1140
169Q1149 148 1163 138T1194 123T1226 120T1254 127ZM548 703Q574 703 605 705T668 716T729 746T781 804T817 899T831 1039Q831 1111 820 1159T789 1237T739 1280T672 1293Q639 1293 612 1285T566 1257T536 1209T525 1138V725Q525 703 548 703Z" />
<glyph unicode="S" glyph-name="S" horiz-adv-x="1073" d="M45 5V361Q45 378 57 380T75 369Q111 287 153 224T247 119T361 54T499 32Q542 32 581 44T649 84T696 153T714 254Q714 310 694 352T639 428T560 485T470 530Q419 552 370 576T275 630T193 699T129 789Q106
833 94 879T81 974Q81 1045 106 1117T188 1247T336 1341T562 1378Q647 1378 709 1365T812 1335T876 1304T901 1286Q913 1277 913 1265V1083Q913 1076 909 1072T900 1067T890 1068T882 1078Q863 1123 837 1167T772 1246T675 1302T538 1324Q434 1324 376 1275T318
1142Q318 1094 334 1058T388 991T491 928T652 857Q746 819 818 775T938 677T1011 553T1036 395Q1036 307 1005 230T908 96T744 5T511 -28Q426 -28 343 -7T181 41Q170 45 157 49T132 53Q108 53 97 38T76 -1Q70 -15 58 -13T45 5Z" />
<glyph unicode="T" glyph-name="T" horiz-adv-x="1230" d="M1199 1350Q1220 1350 1220 1331V1053Q1220 1037 1207 1036T1188 1050Q1184 1059 1174 1080T1146 1129T1102 1184T1041 1237T963 1276T865 1292Q840 1292 824 1285T799 1265T785 1235T780 1200V186Q780
139 800 110T846 64T899 41T937 32Q946 30 950 25T955 15T949 5T934 0H296Q286 0 281 4T276 14T279 25T293 32Q305 34 331 40T383 64T430 110T450 186Q450 194 450 236T450 343T450 488T450 652T451 819T451 970T451 1088T451 1155Q451 1180 450 1204T440 1248T415
1280T365 1292Q311 1292 267 1277T189 1237T128 1185T84 1129T56 1081T42 1050Q36 1034 23 1035T10 1053V1331Q10 1350 31 1350H1199V1350Z" />
<glyph unicode="U" glyph-name="U" horiz-adv-x="1354" d="M1210 547Q1210 411 1185 304T1102 124T947 11T706 -28Q569 -28 471 1T309 91T217 246T187 471V1164Q187 1210 167 1239T121 1285T68 1309T30 1318Q21 1319 17 1324T12 1335T18 1345T33 1350H671Q681
1350 686 1346T691 1336T688 1325T674 1318Q662 1316 636 1309T584 1286T537 1240T517 1164V406Q517 236 590 146T816 55Q838 55 863 59T912 70T959 88T1000 111Q1047 144 1072 194T1109 301T1123 417T1125 527V1164Q1125 1210 1105 1239T1059 1285T1006 1309T968
1318Q959 1319 955 1324T950 1335T956 1345T971 1350H1364Q1374 1350 1379 1346T1384 1336T1381 1325T1367 1318Q1355 1316 1329 1309T1277 1286T1230 1240T1210 1164V547Z" />
<glyph unicode="V" glyph-name="V" horiz-adv-x="1153" d="M956 1193Q966 1229 955 1251T924 1287T879 1307T840 1318Q831 1320 828 1325T826 1336T831 1346T844 1350H1214Q1221 1350 1225 1346T1231 1337T1229 1326T1217 1319Q1164 1305 1122 1276T1053 1187Q1039
1155 1016 1095T962 957T897 788T826 602T755 414T690 239T634 91T594 -16Q589 -28 579 -29T563 -17Q550 20 529 81T480 219T421 385T357 563T292 741T232 905T180 1041T140 1135Q102 1217 56 1261T-48 1317Q-56 1318 -59 1323T-61 1335T-55 1345T-41 1350H587Q594
1350 598 1346T604 1337T603 1326T589 1318Q582 1316 569 1312T539 1301T507 1282T481 1252T467 1210T472 1152Q482 1113 500 1059T541 942T586 816T632 693T672 588T700 514Q704 505 710 505T720 514Q730 542 748 593T789 707T837 840T885 976T926 1099T956 1193Z"
/>
<glyph unicode="W" glyph-name="W" horiz-adv-x="1791" d="M1855 1349Q1862 1349 1866 1345T1872 1336T1870 1325T1858 1318Q1805 1304 1763 1275T1694 1186Q1680 1154 1657 1094T1603 956T1538 787T1467 602T1396 414T1331 239T1275 91T1235 -16Q1230 -28 1220
-29T1204 -17Q1196 7 1180 53T1142 159T1096 287T1047 424T1000 555T960 668T931 748T918 782Q914 790 908 789T898 779Q869 704 840 626T781 470T725 320T674 183T631 69T599 -16Q594 -28 584 -29T568 -17Q555 20 534 81T485 219T426 385T362 563T297 741T237
905T185 1040T145 1134Q107 1217 61 1261T-43 1316Q-51 1317 -54 1322T-56 1334T-50 1344T-36 1349H1228Q1235 1349 1239 1345T1245 1336T1244 1325T1230 1317Q1223 1315 1210 1311T1180 1300T1148 1281T1122 1251T1108 1209T1113 1151Q1123 1112 1141 1058T1182
941T1227 815T1273 692T1313 587T1341 513Q1345 504 1351 504T1361 513Q1371 541 1389 592T1430 706T1478 839T1526 975T1567 1098T1597 1192Q1607 1228 1596 1251T1565 1287T1520 1307T1481 1317Q1472 1319 1469 1324T1467 1335T1472 1345T1485 1349H1855ZM725
513Q731 530 742 561T768 631T797 712T824 794T843 864T851 914Q851 941 843 972T824 1034T800 1091T781 1134Q763 1174 743 1203T697 1252T640 1281T568 1290Q547 1290 526 1283T491 1260T472 1217T477 1151Q487 1112 505 1058T545 941T591 815T637 692T677 587T705
513Q709 504 715 504T725 513Z" />
<glyph unicode="X" glyph-name="X" horiz-adv-x="1242" d="M1000 1204Q992 1193 976 1171T940 1119T896 1055T848 986Q793 906 728 810Q808 662 880 532Q910 476 942 419T1003 311T1057 216T1099 146Q1114 122 1136 102T1182 68T1229 44T1270 32Q1280 30 1284
25T1288 15T1282 5T1267 0H656Q646 0 641 4T636 14T639 25T653 32Q665 34 683 38T715 52T735 79T728 126Q716 152 701 184T668 250T632 318T597 386Q557 462 514 542Q449 442 394 358Q371 322 348 286T305 218T271 162T250 126Q235 95 240 77T261 50T294 37T325
32Q334 30 338 25T343 15T337 5T322 0H-28Q-38 0 -43 4T-48 15T-45 26T-31 32Q-16 34 5 39T52 56T104 89T157 146Q167 160 186 187T230 250T283 326T338 407Q402 501 477 611Q406 743 343 859Q316 908 288 959T233 1057T185 1141T146 1204Q130 1228 108 1247T62
1282T15 1306T-27 1318Q-36 1319 -40 1324T-45 1335T-39 1345T-24 1350H588Q598 1350 603 1346T608 1336T605 1325T591 1318Q579 1316 561 1312T529 1299T509 1271T515 1224Q537 1173 567 1113T625 1001Q658 940 691 880Q743 960 788 1030Q807 1060 826 1089T861
1145T890 1192T908 1224Q924 1254 919 1272T900 1299T868 1312T837 1318Q828 1319 824 1324T819 1335T825 1345T840 1350H1185Q1195 1350 1200 1346T1206 1335T1203 1324T1188 1318Q1173 1316 1152 1311T1106 1294T1054 1260T1000 1204Z" />
<glyph unicode="Y" glyph-name="Y" horiz-adv-x="1260" d="M1056 1224Q1072 1255 1068 1272T1049 1299T1016 1312T986 1318Q977 1319 973 1324T968 1335T974 1345T989 1350H1334Q1344 1350 1349 1346T1354 1335T1351 1324T1337 1318Q1322 1316 1301 1311T1256
1293T1204 1259T1149 1204Q1136 1188 1108 1151T1045 1067T973 968T903 871T848 793T820 750Q809 726 804 705T799 649V186Q799 139 819 110T865 64T918 41T956 32Q965 30 969 25T974 15T968 5T953 0H325Q315 0 310 4T305 14T308 25T322 32Q334 34 360 40T412 64T459
110T479 186V552Q479 566 479 579T477 604T470 630T456 660Q450 670 434 695T393 757T341 838T282 928T223 1018T168 1100T125 1164T99 1204Q83 1227 61 1247T15 1282T-31 1306T-72 1318Q-81 1319 -85 1324T-90 1335T-84 1345T-69 1350H559Q569 1350 574 1346T579
1336T576 1325T562 1318Q550 1316 532 1312T500 1299T480 1271T487 1224Q496 1204 517 1167T564 1085T620 993T675 907T719 840T742 808Q757 791 773 806Q777 810 798 839T848 910T911 1002T975 1097T1027 1176T1056 1224Z" />
<glyph unicode="Z" glyph-name="Z" horiz-adv-x="1177" d="M1094 325Q1100 341 1113 340T1126 322V19Q1126 0 1105 0H71Q33 0 49 36Q50 39 69 75T121 171T196 309T285 474T383 654T481 834T571 1000T646 1138T699 1235T721 1276Q724 1283 722 1286T714 1290H478Q419
1290 372 1276T290 1239T229 1190T187 1137T161 1092T149 1062Q143 1046 130 1047T117 1065V1331Q117 1350 138 1350H1083Q1101 1350 1106 1341T1105 1315Q1104 1312 1085 1277T1034 1182T960 1044T870 878T772 698T674 517T584 351T509 214T458 119T437 80Q430
65 445 65H738Q805 65 857 82T947 124T1012 181T1055 241T1081 293T1094 325Z" />
<glyph unicode="[" glyph-name="bracketleft" horiz-adv-x="617" d="M413 1377Q405 1377 399 1371T393 1357V-258Q393 -266 399 -272T413 -278H723Q731 -278 737 -284T743 -298V-318Q743 -326 737 -332T723 -338H213Q205 -338 199 -332T193 -318V1417Q193 1425
199 1431T213 1437H723Q731 1437 737 1431T743 1417V1397Q743 1389 737 1383T723 1377H413Z" />
<glyph unicode="\" glyph-name="backslash" horiz-adv-x="639" d="M106 1350Q114 1350 121 1345T132 1331L558 19Q560 11 556 6T544 0H505Q497 0 490 5T479 19L53 1331Q50 1339 54 1344T67 1350H106Z" />
<glyph unicode="]" glyph-name="bracketright" horiz-adv-x="616" d="M-106 1377Q-114 1377 -120 1383T-126 1397V1417Q-126 1425 -120 1431T-106 1437H404Q412 1437 418 1431T424 1417V-318Q424 -326 418 -332T404 -338H-106Q-114 -338 -120 -332T-126 -318V-298Q-126
-290 -120 -284T-106 -278H204Q212 -278 218 -272T224 -258V1357Q224 1365 218 1371T204 1377H-106Z" />
<glyph unicode="^" glyph-name="asciicircum" horiz-adv-x="855" d="M33 684Q25 684 22 689T23 701L387 1332Q391 1339 400 1344T417 1349H440Q448 1349 456 1344T470 1332L833 701Q838 694 835 689T823 684H777Q769 684 760 689T747 701L438 1236Q434 1244 429
1244T418 1236L109 701Q105 694 96 689T79 684H33Z" />
<glyph unicode="_" glyph-name="underscore" horiz-adv-x="1505" d="M1409 70Q1433 70 1438 66T1444 51Q1444 33 1432 17T1400 0H95Q71 0 66 5T60 20Q60 27 63 36T71 52T84 65T100 70H1409V70Z" />
<glyph unicode="`" glyph-name="grave" horiz-adv-x="500" d="M446 990Q452 980 447 974T431 973Q390 991 339 1019T237 1082T143 1154T78 1227Q67 1243 61 1264T54 1304T64 1341T95 1367Q115 1376 133 1375T168 1365T199 1344T224 1315Q226 1313 241 1291T279
1235T328 1163T379 1089T421 1026T446 990Z" />
<glyph unicode="a" glyph-name="a" horiz-adv-x="969" d="M916 92Q930 95 938 87T939 64Q933 53 920 38T884 10T829 -12T752 -21Q691 -21 650 3T592 60Q588 68 581 67T568 61Q565 58 550 45T506 16T437 -12T345 -25Q256 -25 196 0T98 64T44 153T27 252Q27 331
71 390T187 478Q225 493 266 499T349 513T429 530T504 565Q541 590 555 629T570 712Q570 744 562 773T538 825T502 860T457 873Q414 873 394 851T363 798T341 734T309 676Q291 657 263 648T208 638Q181 638 160 647T124 671T102 707T94 751Q94 782 109 813T162
869T266 909T431 925Q542 925 620 903T748 837T820 731T843 586Q843 489 837 404T829 254T831 146T859 93Q869 88 884 88T916 92ZM569 539Q569 545 564 547T555 544Q547 535 541 527T523 508Q504 488 484 471T444 435Q424 419 405 403T368 368Q342 338 330 303T317
227Q317 200 325 173T349 124T391 89T453 75Q489 75 511 90T546 126T564 168T569 202V539Z" />
<glyph unicode="b" glyph-name="b" horiz-adv-x="1137" d="M716 925Q796 925 856 904T959 847T1031 765T1076 668T1099 566T1106 470Q1106 357 1079 266T996 110T856 10T660 -25Q597 -25 549 -17T462 6T389 43T321 96Q317 99 314 100T305 96Q294 87 275 70T233
31T190 -11T155 -47Q147 -56 138 -53T129 -36V620Q129 702 129 782T129 936T129 1071T130 1179T130 1251T130 1277Q130 1290 118 1293Q116 1293 104 1296T75 1303T46 1310T29 1314Q16 1317 16 1328T30 1342Q69 1351 114 1366T206 1401T295 1443T372 1489Q381 1495
390 1494T400 1479V786Q402 782 406 781T413 785Q422 796 443 819T500 866T590 907T716 925ZM816 423Q816 446 816 483T810 563T792 650T757 729T698 786T609 809Q541 809 500 784T437 723T408 647T401 575V305Q401 267 409 220T440 131T500 61T597 32Q656 32 697
62T765 144T804 268T816 423Z" />
<glyph unicode="c" glyph-name="c" horiz-adv-x="920" d="M491 870Q451 870 418 843T360 765T323 645T310 489Q310 403 331 336T391 221T480 149T590 124Q647 124 694 141T778 179T838 219T871 242Q885 248 893 240T893 214Q887 203 873 181T836 133T779 78T703
27T605 -10T483 -25Q379 -25 296 5T154 93T64 235T32 428Q32 523 56 597T119 726T210 819T314 880T420 914T514 925Q582 925 639 913T737 878T801 825T824 759Q824 728 814 707T787 673T750 653T708 647Q678 647 652 658T608 695Q595 714 587 744T569 802T541 850T491
870Z" />
<glyph unicode="d" glyph-name="d" horiz-adv-x="1152" d="M1129 29Q1137 27 1140 23T1143 13T1138 4T1125 0H763Q752 0 746 5T739 21V109Q739 116 734 118T725 115Q716 104 695 81T638 34T548 -7T422 -25Q342 -25 282 -4T179 53T107 135T62 232T39 334T32 430Q32
542 59 633T142 790T281 890T478 925Q541 925 587 918T663 901T708 883T725 873Q730 869 734 871T739 878V1283Q739 1296 727 1299Q725 1299 713 1302T684 1309T655 1316T638 1320Q625 1323 625 1333T639 1348Q678 1357 723 1372T815 1407T904 1449T981 1495Q990
1501 999 1500T1009 1485V157Q1009 117 1025 93T1061 55T1101 36T1129 29ZM738 595Q738 620 735 650T723 710T700 769T663 819T611 854T542 868Q483 868 441 838T373 756T335 632T323 477Q323 455 323 418T329 337T347 250T382 171T441 114T530 91Q598 91 639 116T702
177T731 253T738 325V595Z" />
<glyph unicode="e" glyph-name="e" horiz-adv-x="907" d="M330 530Q314 530 314 513Q314 411 332 338T384 219T470 150T590 128Q642 128 682 139T753 164T802 192T830 209Q844 215 852 207T852 181Q849 175 839 158T808 117T758 69T687 23T592 -11T472 -25Q372
-25 291 6T153 98T64 244T32 438Q32 556 71 647T173 799T316 893T479 925Q557 925 616 904T719 848T791 771T837 686T862 607T869 548Q869 538 863 534T845 530H330ZM319 596Q317 583 331 583Q334 583 351 583T392 585T445 587T498 589T542 590T566 592Q582 593
599 606T617 651Q617 680 609 718T584 790T539 847T473 871Q442 871 419 855T380 812T352 753T334 691T324 635T319 596Z" />
<glyph unicode="f" glyph-name="f" horiz-adv-x="687" d="M563 1495Q621 1495 670 1482T754 1445T810 1391T830 1325Q830 1273 799 1239T714 1205Q660 1205 627 1236T594 1322Q594 1336 595 1357T593 1399T580 1433T548 1448Q513 1448 491 1422T457 1350T441 1239T436
1098V908Q436 900 444 900H629Q653 900 658 897T664 884Q664 871 651 857T620 842H443Q436 842 436 835V162Q436 121 453 96T493 57T537 36T567 29Q575 27 578 23T581 13T576 4T563 0H39Q31 0 27 4T21 13T23 22T35 29Q43 30 64 36T108 56T148 96T166 162V834Q166
842 159 842H129Q105 842 100 845T94 858Q94 871 105 885T134 900H159Q166 900 166 908Q166 1011 169 1083T182 1207T206 1296T244 1366Q271 1403 307 1428T386 1468T473 1489T563 1495Z" />
<glyph unicode="g" glyph-name="g" horiz-adv-x="1000" d="M656 105Q765 86 837 60T953 -1T1013 -76T1031 -167Q1031 -198 1020 -232T984 -298T917 -360T814 -411T670 -447T480 -460Q373 -460 294 -450T160 -422T69 -382T15 -335T-12 -286T-19 -239Q-19 -208 -3
-179T42 -124T113 -81T207 -52Q213 -50 213 -47T209 -39Q167 -11 140 29T113 125Q113 162 126 191T163 242T220 279T294 304Q301 306 301 311T295 318Q244 337 204 366T135 432T91 512T75 602Q75 668 108 726T199 829T335 899T504 925Q622 925 716 882Q730 877
739 884Q759 900 766 918T774 954T773 989T770 1019Q770 1051 791 1076T854 1101Q896 1101 919 1076T942 1007Q942 977 931 952T900 908T855 873T801 849Q793 847 793 842T798 834Q853 791 884 733T915 608Q915 542 882 483T791 380T655 311T486 285Q463 285 440
287T394 286Q373 283 354 270T335 234Q335 214 348 198T396 167T494 137T656 105ZM495 875Q462 875 438 854T397 796T373 710T365 605Q365 549 373 500T397 414T437 356T495 335Q528 335 552 356T592 414T617 500T625 605Q625 661 617 710T593 796T552 854T495
875ZM523 -403Q568 -403 615 -395T703 -370T768 -328T794 -271Q794 -240 771 -219T708 -181T620 -155T518 -135Q472 -127 413 -115T296 -82Q291 -80 284 -82Q248 -95 221 -121T194 -195Q194 -250 222 -289T295 -353T400 -391T523 -403Z" />
<glyph unicode="h" glyph-name="h" horiz-adv-x="1159" d="M1143 29Q1151 27 1154 23T1157 13T1152 4T1139 0H1023H1014H762H753H637Q629 0 625 4T619 13T621 22T633 29Q641 30 660 35T700 54T737 92T753 157V524V532V588Q752 630 747 674T724 755T673 815T583
839Q525 839 493 816T446 759T427 687T423 618V157Q423 117 439 93T475 55T515 36T543 29Q551 27 554 23T557 13T552 4T539 0H37Q29 0 25 4T19 13T21 22T33 29Q41 30 60 35T100 54T137 92T153 157V1283Q153 1296 141 1299Q139 1299 127 1302T98 1309T69 1316T52
1320Q39 1323 39 1333T53 1348Q92 1357 137 1372T229 1407T318 1449T395 1495Q404 1501 413 1500T423 1485V829Q444 848 471 865T531 896T606 917T698 925Q780 925 835 907T927 859T983 790T1011 709T1021 626T1023 548V543V157Q1023 117 1039 93T1075 55T1115
36T1143 29Z" />
<glyph unicode="i" glyph-name="i" horiz-adv-x="573" d="M428 915Q428 929 419 930T400 925Q366 902 323 880T234 838T143 803T58 778Q43 774 43 764T57 750Q60 749 73 746T103 739T131 732T146 729Q158 726 158 713V157Q158 117 142 93T106 55T66 36T38 29Q30
27 27 23T24 13T29 4T42 0H544Q552 0 556 4T562 13T560 22T548 29Q540 30 521 35T481 54T444 92T428 157V915ZM448 1221Q448 1188 435 1159T399 1108T346 1073T279 1060Q244 1060 215 1072T164 1106T130 1156T118 1218Q118 1251 131 1280T166 1332T220 1367T286
1380Q322 1380 351 1368T402 1334T436 1283T448 1221Z" />
<glyph unicode="j" glyph-name="j" horiz-adv-x="576" d="M423 -9V915Q423 929 414 930T395 925Q361 902 318 880T229 838T138 803T53 778Q38 774 38 764T52 750Q55 749 68 746T98 739T126 732T141 729Q153 726 153 713V45Q153 -38 157 -86T168 -165T183 -212T197
-250Q204 -272 209 -297T213 -344T202 -384T171 -407Q153 -412 140 -407T118 -391T102 -369T93 -347Q90 -338 82 -316T59 -271T20 -230T-41 -212Q-92 -212 -124 -239T-157 -319Q-157 -352 -141 -380T-95 -430T-21 -463T79 -476Q112 -476 150 -471T226 -448T300
-400T363 -316T406 -189T423 -9ZM443 1221Q443 1188 430 1159T394 1108T341 1073T274 1060Q239 1060 210 1072T159 1106T125 1156T113 1218Q113 1251 126 1280T161 1332T215 1367T281 1380Q317 1380 346 1368T397 1334T431 1283T443 1221Z" />
<glyph unicode="k" glyph-name="k" horiz-adv-x="1123" d="M1204 30Q1218 23 1218 12T1200 0H656Q639 0 638 12T652 29Q667 33 683 40T710 59T723 88T714 129Q711 135 697 153T662 197T618 252T572 307T533 353T509 380Q489 401 478 410T453 419Q435 419 429 409T423
378V162Q423 121 440 96T480 57T524 36T554 29Q562 27 565 23T568 13T563 4T550 0H26Q18 0 14 4T8 13T10 22T22 29Q30 30 51 36T95 56T135 96T153 162V1283Q153 1296 141 1299Q139 1299 127 1302T98 1309T69 1316T52 1320Q39 1323 39 1333T53 1348Q92 1357 137
1372T229 1407T318 1449T395 1495Q404 1501 413 1500T423 1485V521Q423 496 431 483T459 469Q485 469 500 487Q521 511 550 549T608 628T662 709T704 775Q723 807 722 826T708 855T681 868T657 873Q649 874 646 879T643 889T648 898T661 902H948Q956 902 960 898T965
889T962 879T950 873Q942 872 924 866T882 847T830 814T774 763Q766 755 749 732T714 684T682 639T667 615Q661 602 668 592Q675 581 700 548T762 470T840 375T921 278T993 195T1043 142Q1068 119 1094 100T1142 66T1181 42T1204 30Z" />
<glyph unicode="l" glyph-name="l" horiz-adv-x="578" d="M424 162Q424 121 441 96T481 57T525 36T555 29Q563 27 566 23T569 13T564 4T551 0H27Q19 0 15 4T9 13T11 22T23 29Q31 30 52 36T96 56T136 96T154 162V1283Q154 1296 142 1299Q140 1299 128 1302T99 1309T70
1316T53 1320Q40 1323 40 1333T54 1348Q93 1357 138 1372T230 1407T319 1449T396 1495Q405 1501 414 1500T424 1485V162Z" />
<glyph unicode="m" glyph-name="m" horiz-adv-x="1690" d="M1669 29Q1677 27 1680 23T1683 13T1678 4T1665 0H1195Q1187 0 1183 4T1177 13T1179 22T1191 29Q1199 30 1216 34T1250 51T1281 86T1295 149V612Q1294 652 1288 692T1265 765T1218 818T1136 839Q1092
839 1065 824T1022 786T1001 733T994 675V149Q994 109 1007 86T1038 51T1073 35T1098 29Q1106 27 1109 23T1112 13T1107 4T1094 0H624Q616 0 612 4T606 13T608 22T620 29Q628 30 645 34T679 51T710 86T724 149V613Q723 653 717 693T694 765T646 818T565 839Q520
839 493 824T451 786T430 733T423 674V149Q423 109 436 86T467 51T502 35T527 29Q535 27 538 23T541 13T536 4T523 0H53Q45 0 41 4T35 13T37 22T49 29Q57 30 74 34T108 51T139 86T153 149V713Q153 726 141 729Q139 729 127 732T98 739T69 746T52 750Q39 753 39
763T53 778Q92 787 137 802T229 837T318 879T395 925Q404 931 413 930T423 915V841Q468 876 530 900T680 925Q737 925 781 916T857 891T913 852T951 802Q973 825 1002 847T1068 886T1150 914T1251 925Q1332 925 1386 907T1476 859T1529 790T1555 709T1564 626T1565
548V543V149Q1565 109 1578 86T1609 51T1644 35T1669 29Z" />
<glyph unicode="n" glyph-name="n" horiz-adv-x="1145" d="M1140 29Q1148 27 1151 23T1154 13T1149 4T1136 0H1020H1011H759H750H634Q626 0 622 4T616 13T618 22T630 29Q638 30 657 35T697 54T734 92T750 157V524V532V588Q749 630 744 674T721 755T670 815T580
839Q522 839 490 816T443 759T424 687T420 618V157Q420 117 436 93T472 55T512 36T540 29Q548 27 551 23T554 13T549 4T536 0H34Q26 0 22 4T16 13T18 22T30 29Q38 30 57 35T97 54T134 92T150 157V713Q150 726 138 729Q136 729 124 732T95 739T66 746T49 750Q36
753 36 763T50 778Q89 787 134 802T226 837T315 879T392 925Q401 931 410 930T420 915V829Q441 848 468 865T528 896T603 917T695 925Q777 925 832 907T924 859T980 790T1008 709T1018 626T1020 548V543V157Q1020 117 1036 93T1072 55T1112 36T1140 29Z" />
<glyph unicode="o" glyph-name="o" horiz-adv-x="1014" d="M517 925Q620 925 706 889T855 789T952 639T987 455Q987 356 949 269T845 117T690 13T497 -25Q394 -25 308 11T159 111T62 260T27 445Q27 543 65 630T169 783T324 887T517 925ZM507 28Q555 28 590 61T649
151T685 286T697 450Q697 537 685 614T650 748T591 839T507 872Q459 872 424 839T364 749T329 614T317 450Q317 363 328 286T364 152T423 61T507 28Z" />
<glyph unicode="p" glyph-name="p" horiz-adv-x="1156" d="M734 925Q814 925 874 904T977 847T1049 765T1094 668T1117 566T1124 470Q1124 357 1097 266T1014 110T874 10T678 -25Q615 -25 569 -18T493 -1T448 17T431 27Q426 31 422 29T417 22V-288Q417 -329 434
-354T474 -393T518 -414T548 -421Q556 -423 559 -427T562 -437T557 -446T544 -450H20Q12 -450 8 -446T2 -437T4 -428T16 -421Q24 -420 45 -414T89 -394T129 -354T147 -288V718Q147 731 135 734Q133 734 121 737T92 744T63 751T46 755Q33 758 33 768T47 783Q86 792
131 807T223 842T312 884T389 930Q398 936 407 935T417 920V791Q417 784 422 782T431 785Q440 796 461 819T518 866T608 907T734 925ZM834 423Q834 446 834 483T828 563T810 650T775 729T716 786T627 809Q559 809 518 784T455 723T426 647T419 575V305Q419 267
427 220T458 131T518 61T615 32Q674 32 715 62T783 144T822 268T834 423Z" />
<glyph unicode="q" glyph-name="q" horiz-adv-x="1141" d="M739 109Q739 116 734 118T725 115Q716 104 695 81T638 34T548 -7T422 -25Q342 -25 282 -4T179 53T107 135T62 232T39 334T32 430Q32 542 59 633T142 790T281 890T478 925Q541 925 589 917T676 894T749
857T817 804Q821 801 824 800T833 804Q844 813 863 830T905 869T948 911T983 947Q991 956 1000 953T1009 936V718V-288Q1009 -329 1026 -354T1066 -393T1110 -414T1140 -421Q1148 -423 1151 -427T1154 -437T1149 -446T1136 -450H612Q604 -450 600 -446T594 -437T596
-428T608 -421Q616 -420 637 -414T681 -394T721 -354T739 -288V109ZM737 595Q737 620 734 650T722 710T699 769T662 819T610 854T541 868Q482 868 440 838T372 756T334 632T322 477Q322 455 322 418T328 337T346 250T381 171T440 114T529 91Q597 91 638 116T701
177T730 253T737 325V595Z" />
<glyph unicode="r" glyph-name="r" horiz-adv-x="778" d="M653 925Q695 925 724 915T771 887T797 846T805 796Q805 748 775 721T693 694Q654 694 632 708T595 738T566 769T534 783Q517 783 498 772T462 728T434 640T423 495V149Q423 109 436 86T467 51T502 35T527
29Q535 27 538 23T541 13T536 4T523 0H423H414H162H153H53Q45 0 41 4T35 13T37 22T49 29Q57 30 74 34T108 51T139 86T153 149V713Q153 726 141 729Q139 729 127 732T98 739T69 746T52 750Q39 753 39 763T53 778Q92 787 137 802T229 837T318 879T395 925Q404 931
413 930T423 915V772Q458 849 518 887T653 925Z" />
<glyph unicode="s" glyph-name="s" horiz-adv-x="833" d="M79 69Q79 71 75 97T65 156T56 216T50 252Q48 266 58 268T73 263Q74 260 86 242T119 198T169 142T235 87T315 45T407 28Q464 28 496 59T529 141Q529 168 522 194T492 246T426 297T311 349Q245 372 200
404T127 475T87 560T74 657Q74 696 88 742T138 829T238 897T399 925Q461 925 514 915T606 893T669 869T696 857Q702 854 703 852T705 845Q705 843 710 818T720 762T730 707T735 679Q737 669 728 665T712 670Q698 690 668 724T595 791T500 848T388 873Q326 873 297
840T268 760Q268 736 275 714T305 670T371 628T488 584Q634 539 709 462T784 263Q784 201 763 149T698 58T586 -3T424 -25Q345 -25 284 -14T180 12T113 38T85 54Q83 56 82 60T79 69Z" />
<glyph unicode="t" glyph-name="t" horiz-adv-x="677" d="M647 145Q665 154 673 143T674 120Q656 88 629 62T566 16T490 -14T402 -25Q352 -25 303 -12T215 34T152 125T127 272V834Q127 842 119 842H93Q69 842 64 845T58 858Q58 871 69 885T98 900H120Q127 900
127 908V1147Q127 1169 145 1172Q170 1177 198 1185T256 1205T314 1230T367 1259Q378 1265 387 1261T397 1241V907Q397 900 405 900H593Q617 900 622 897T628 884Q628 871 614 857T583 842H404Q397 842 397 835V220Q397 193 406 173T431 138T467 116T509 109Q552
109 589 121T647 145Z" />
<glyph unicode="u" glyph-name="u" horiz-adv-x="1145" d="M1108 29Q1116 27 1119 23T1122 13T1117 4T1104 0H742Q731 0 725 5T718 21V80Q676 38 609 7T443 -25Q361 -25 306 -7T214 41T158 110T130 191T120 274T118 352V743Q118 783 102 807T66 845T26 864T-2
871Q-10 872 -13 877T-16 887T-11 896T2 900H364Q388 900 388 874V289Q389 249 395 209T419 137T468 84T553 64Q609 64 641 87T691 147T713 226T718 310V743Q718 783 702 807T666 845T626 864T598 871Q590 872 587 877T584 887T589 896T602 900H964Q988 900 988
874V157Q988 117 1004 93T1040 55T1080 36T1108 29Z" />
<glyph unicode="v" glyph-name="v" horiz-adv-x="916" d="M808 737Q802 726 785 688T742 594T687 472T627 337Q556 178 468 -17Q463 -26 454 -26T439 -18Q356 177 287 336Q258 404 229 470T176 592T135 686T112 737Q97 766 83 787T53 825T17 851T-30 869Q-38 871
-41 876T-45 886T-40 896T-27 900H498Q505 900 510 896T516 887T514 876T502 868Q487 864 466 858T427 838T401 802T404 743Q409 727 421 694T450 621T485 537T518 457T544 397T557 369Q564 356 571 369Q574 376 584 402T609 465T640 544T671 626T697 697T713 743Q724
779 716 801T692 837T655 857T619 868Q610 870 607 875T605 886T610 896T623 900H947Q954 900 958 896T964 887T962 876T950 869Q923 862 903 852T867 825T837 788T808 737Z" />
<glyph unicode="w" glyph-name="w" horiz-adv-x="1403" d="M1425 900Q1432 900 1436 896T1442 887T1440 876T1428 869Q1401 862 1381 852T1345 825T1315 788T1286 737Q1280 726 1263 688T1220 594T1165 472T1105 337Q1034 178 946 -17Q941 -26 932 -26T917 -18Q862
110 818 214Q799 258 781 301T747 379T722 438T708 467Q701 479 694 467Q691 462 681 439T654 381T619 303T580 216Q533 112 476 -17Q471 -26 462 -26T447 -18Q364 177 295 336Q266 404 237 470T184 592T143 686T120 737Q105 766 91 787T61 825T25 851T-22 869Q-30
871 -33 876T-37 886T-32 896T-19 900H506Q513 900 518 896T524 887T522 876T510 868Q495 864 474 858T435 838T409 802T412 743Q417 727 429 694T458 621T493 537T526 457T552 397T565 369Q572 356 579 369Q580 371 589 392T614 448T648 525T687 613T726 702T762
781T788 840T801 868Q806 879 817 880T835 868Q838 862 848 838T872 777T904 698T939 609T974 522T1004 446T1025 391T1035 369Q1042 356 1049 369Q1052 376 1062 402T1087 465T1118 544T1149 626T1175 697T1191 743Q1202 779 1194 801T1170 837T1133 857T1097
868Q1088 870 1085 875T1083 886T1088 896T1101 900H1425V900Z" />
<glyph unicode="x" glyph-name="x" horiz-adv-x="972" d="M204 163Q210 169 220 182T244 212T273 248T304 288Q339 334 381 388Q333 470 292 540Q274 570 256 600T222 656T192 704T171 737Q152 764 136 785T101 822T63 850T16 869Q8 871 5 876T1 886T6 896T19
900H533Q540 900 545 896T551 887T549 876T537 868Q522 864 507 857T482 837T471 801T484 743Q493 721 506 695T533 645Q548 618 564 591Q590 625 612 655Q631 681 648 706T670 743Q683 778 683 800T672 836T647 857T617 868Q608 870 605 875T603 886T608 896T621
900H905Q920 900 922 888T908 869Q864 848 833 821T764 750Q758 743 748 730T724 701T697 665T668 628Q635 584 596 534Q649 444 694 367Q713 334 732 302T768 242T798 193T817 163Q853 109 889 78T975 31Q983 28 986 23T989 13T984 4T972 0H447Q439 0 435 4T429
13T431 24T443 32Q458 36 475 42T503 63T516 99T506 157Q501 171 486 200T454 258Q435 292 413 331Q383 292 358 258Q347 243 337 228T317 200T301 175T291 157Q275 122 277 100T292 64T321 43T354 32Q363 30 366 25T368 14T362 4T350 0H15Q0 0 -2 12T12 31Q66
49 112 82T204 163Z" />
<glyph unicode="y" glyph-name="y" horiz-adv-x="889" d="M277 -239L408 53Q392 90 366 151T309 283T246 430T186 568T138 677T111 737Q96 766 82 787T52 825T16 851T-31 869Q-39 871 -42 876T-46 886T-41 896T-28 900H472Q479 900 484 896T490 887T488 876T476
868Q461 864 444 858T413 838T396 802T403 743Q408 727 420 696T447 628T478 552T508 480T532 425T544 399Q551 386 558 399Q561 406 571 430T593 487T621 560T649 634T672 699T687 743Q698 779 695 801T679 837T650 857T618 868Q609 870 606 875T604 886T609 896T622
900H921Q928 900 932 896T938 887T936 876T924 869Q898 862 878 852T842 825T811 788T782 737Q776 725 757 683T710 580T651 449T588 309T529 177T483 74L311 -310Q278 -385 234 -430T123 -475Q100 -475 77 -469T36 -449T7 -414T-5 -361Q-5 -333 5 -313T33 -280T73
-261T118 -255Q149 -255 172 -264T214 -279T248 -278T277 -239Z" />
<glyph unicode="z" glyph-name="z" horiz-adv-x="875" d="M814 231Q821 245 833 244T846 227V19Q846 0 825 0H59Q39 0 35 12T39 38Q41 41 59 72T108 154T177 268T257 401T339 538T416 665T477 767T515 830Q519 836 515 839T506 843H393Q326 843 278 822T198 773T148
718T124 677Q116 662 104 664T92 681V881Q92 900 113 900H817Q840 900 842 887T838 863Q836 860 818 829T769 749T701 635T622 503T539 366T463 240T402 137T363 73Q355 59 371 59H545Q612 59 660 81T740 132T790 189T814 231Z" />
<glyph unicode="{" glyph-name="braceleft" horiz-adv-x="547" d="M134 546Q138 544 159 542T210 532T272 509T333 466T379 399T397 299Q397 264 392 231T380 164T366 98T354 31Q350 2 349 -27T350 -85T362 -141T390 -194Q418 -230 458 -260T544 -305Q558 -310
560 -320T545 -334Q530 -337 512 -338T473 -339T433 -338T397 -334Q345 -326 295 -308T207 -251Q171 -214 156 -167T137 -67T139 37T151 135Q162 223 166 284T163 391T130 469T59 533Q28 553 59 573Q105 604 129 637T162 715T167 821T151 971Q145 1017 140 1069T137
1173T155 1272T207 1357Q245 1396 295 1414T397 1440Q413 1442 432 1443T472 1445T511 1444T545 1440Q562 1437 560 1427T544 1411Q499 1397 459 1366T390 1299Q372 1275 363 1248T350 1192T348 1134T354 1075Q358 1041 365 1008T380 941T392 875T397 807Q397 748
379 708T333 640T272 598T210 575T160 564T134 560Q127 558 127 553T134 546Z" />
<glyph unicode="|" glyph-name="bar" horiz-adv-x="583" d="M274 1521Q296 1521 316 1509T336 1476V-393Q336 -417 328 -422T308 -428Q286 -428 266 -416T246 -384V1476V1486Q246 1510 254 1515T274 1521Z" />
<glyph unicode="}" glyph-name="braceright" horiz-adv-x="546" d="M412 546Q419 548 419 553T412 560Q408 561 387 564T336 574T274 597T213 640T167 707T149 807Q149 841 154 874T166 941T180 1007T192 1075Q196 1104 197 1133T196 1191T184 1247T156 1299Q128
1335 88 1366T2 1411Q-12 1416 -14 1426T1 1440Q16 1443 34 1444T73 1445T113 1444T149 1440Q201 1432 251 1414T339 1357Q375 1320 390 1273T409 1173T407 1069T395 971Q384 883 380 822T383 715T416 637T487 573Q518 553 487 533Q440 502 416 469T384 391T379
285T395 135Q401 89 406 37T409 -67T391 -166T339 -251Q301 -290 251 -308T149 -334Q133 -336 114 -337T74 -339T35 -338T1 -334Q-16 -331 -14 -321T2 -305Q47 -291 87 -261T156 -194Q174 -169 183 -142T196 -86T198 -28T192 31Q188 65 181 98T166 164T154 230T149
299Q149 358 167 398T213 466T274 508T336 531T386 541T412 546Z" />
<glyph unicode="~" glyph-name="asciitilde" horiz-adv-x="986" d="M917 572Q905 525 881 485T821 416T736 370T629 353Q567 353 510 371T397 412T290 454T187 473Q149 473 126 462T88 441Q79 435 72 440T70 455Q91 493 115 526T172 583T246 620T340 634Q411 634
461 619T555 585T643 552T747 536Q802 536 836 550T898 584Q906 590 913 587T917 572Z" />
</font>
</defs>
</svg>
