<svg id="Layer_1" data-name="Layer 1" xmlns="http://www.w3.org/2000/svg" viewBox="0 0 25 25"><defs><style>.cls-1{fill:#574d8e;}</style></defs><title>quote</title><path class="cls-1" d="M9.5,0l.82,1.76C7.51,3.05,4.57,5,3.17,8.33a9.83,9.83,0,0,1-.94,2.11l.58.35A2.94,2.94,0,0,1,5.16,9.38c3.4,0,5.28,1.76,5.28,5.16s-1.88,5.28-5.28,5.28C2,19.82,0,17.71,0,14.54,0,5.75,4.34,2.46,9.5,0ZM23.07,0l.82,1.76C21.08,3.05,18.15,5,16.74,8.33a9.36,9.36,0,0,1-.94,2.11l.59.35a2.93,2.93,0,0,1,2.34-1.41c3.4,0,5.28,1.76,5.28,5.16s-1.88,5.28-5.28,5.28a4.9,4.9,0,0,1-5.16-5.28C13.57,5.75,17.91,2.46,23.07,0Z"/></svg>