<?xml version="1.0" encoding="utf-8"?>
<!-- Generator: Adobe Illustrator 22.0.0, SVG Export Plug-In . SVG Version: 6.00 Build 0)  -->
<svg version="1.1" id="Layer_1" xmlns="http://www.w3.org/2000/svg" xmlns:xlink="http://www.w3.org/1999/xlink" x="0px" y="0px"
	 viewBox="0 0 225 225" style="enable-background:new 0 0 225 225;" xml:space="preserve">
<style type="text/css">
	.st0{fill:#FAE8D4;}
	.st1{fill:#333363;}
	.st2{fill:#574D8E;}
	.st3{font-family:'Foglihten';}
	.st4{font-size:18.21px;}
	.st5{font-size:13.07px;}
	.st6{enable-background:new    ;}
	.st7{fill:none;stroke:#FAE8D4;stroke-width:0.5;stroke-miterlimit:10;}
</style>
<title>Asset 1</title>
<g id="Layer_2_1_">
	<g id="Layer_1-2">
		<rect x="2.5" y="105.7" class="st0" width="215.6" height="108"/>
		<path class="st1" d="M215.6,108.2v103H5v-103H215.6 M220.6,103.2H0v113h220.6V103.2z"/>
		<text transform="matrix(1 0 0 1 26.43 145.59)" class="st2 st3 st4">T</text>
		<text transform="matrix(1 0 0 1 36.44 145.59)" class="st2 st3 st4">r</text>
		<text transform="matrix(1 0 0 1 44.06 145.59)" class="st2 st3 st4">ans</text>
		<text transform="matrix(1 0 0 1 71.99 145.59)" class="st2 st3 st4">f</text>
		<text transform="matrix(1 0 0 1 78.27 145.59)" class="st2 st3 st4">or</text>
		<text transform="matrix(1 0 0 1 95.42 145.59)" class="st2 st3 st4">m</text>
		<text transform="matrix(1 0 0 1 110.92 145.59)" class="st2 st3 st4">e</text>
		<text transform="matrix(1 0 0 1 119.88 145.59)" class="st2 st3 st4">d </text>
		<text transform="matrix(1 0 0 1 134.9 145.59)" class="st2 st3 st4">pe</text>
		<text transform="matrix(1 0 0 1 154.42 145.59)" class="st2 st3 st4">o</text>
		<text transform="matrix(1 0 0 1 163.3 145.59)" class="st2 st3 st4">ple</text>
		<text transform="matrix(1 0 0 1 26.43 167.44)" class="st2 st3 st4">t</text>
		<text transform="matrix(1 0 0 1 33.86 167.44)" class="st2 st3 st4">r</text>
		<text transform="matrix(1 0 0 1 41.47 167.44)" class="st2 st3 st4">ans</text>
		<text transform="matrix(1 0 0 1 69.4 167.44)" class="st2 st3 st4">f</text>
		<text transform="matrix(1 0 0 1 75.68 167.44)" class="st2 st3 st4">orm </text>
		<text transform="matrix(1 0 0 1 113.34 167.44)" class="st2 st3 st4">pe</text>
		<text transform="matrix(1 0 0 1 132.86 167.44)" class="st2 st3 st4">o</text>
		<text transform="matrix(1 0 0 1 141.74 167.44)" class="st2 st3 st4">pl</text>
		<text transform="matrix(1 0 0 1 157.39 167.44)" class="st2 st3 st4">e</text>
		<text transform="matrix(1 0 0 1 165.94 167.44)" class="st2 st3 st4">.</text>
		<text transform="matrix(1 0 0 1 26.43 190.98)" class="st2 st3 st5">Ric</text>
		<text transform="matrix(1 0 0 1 44.61 190.98)" class="st2 st3 st5">h</text>
		<text transform="matrix(1 0 0 1 52.38 190.98)" class="st2 st3 st5">a</text>
		<text transform="matrix(1 0 0 1 58.98 190.98)" class="st2 st3 st5">r</text>
		<text transform="matrix(1 0 0 1 64.51 190.98)" class="st2 st3 st5">d </text>
		<text transform="matrix(1 0 0 1 75.3 190.98)" class="st2 st3 st5">R</text>
		<text transform="matrix(1 0 0 1 83.4 190.98)" class="st2 st3 st5">ohr</text>
		<rect x="2.5" y="2.5" class="st0" width="177.4" height="103.4"/>
		<path class="st1" d="M177.4,5v98.4H5V5H177.4 M182.4,0H0v108.4h182.4V0z"/>
		<g class="st6">
			<path class="st2" d="M39.2,36c0,0.1-0.1,0.2-0.2,0.2c-0.1,0-0.2-0.1-0.2-0.2c0-1.1-0.9-2-2-2h-2.9c0,2.4,0,10.9,0,10.9
				c0,1.1,0.9,2,2,2c0.1,0,0.2,0.1,0.2,0.2c0,0.1-0.1,0.2-0.2,0.2h-4.5c-0.1,0-0.2-0.1-0.2-0.2c0-0.1,0.1-0.2,0.2-0.2
				c1.1,0,2-0.9,2-2c0,0,0-8.5,0-10.9h-2.9c-1.1,0-2,0.9-2,2c0,0.1-0.1,0.2-0.2,0.2c-0.1,0-0.2-0.1-0.2-0.2v-2.2
				c0-0.1,0.1-0.2,0.2-0.2H39c0.1,0,0.2,0.1,0.2,0.2V36z"/>
			<path class="st2" d="M47.9,33.6c0.9,0,1.8,0.4,2.4,1.1c0.7,0.7,1,1.5,1,2.5c0,0.9-0.3,1.8-1,2.5c-0.5,0.6-1.2,0.9-2,1l1.8,4.6
				c0.4,1.1,1,1.7,2.3,1.7c0.1,0,0.2,0.1,0.2,0.2c0,0.1-0.1,0.2-0.2,0.2h-4.1c-0.1,0-0.2-0.1-0.2-0.2c0-0.1,0.1-0.2,0.2-0.2
				c0.5-0.1,0.9-0.1,1.2-0.4c0.2-0.3,0.4-0.5,0.2-1.2c-0.5-1.6-1.2-3.1-1.8-4.6h-4.4v4.2c0,1.1,0.9,2,2,2c0.1,0,0.2,0.1,0.2,0.2
				c0,0.1-0.1,0.2-0.2,0.2H41c-0.1,0-0.2-0.1-0.2-0.2c0-0.1,0.1-0.2,0.2-0.2c1.1,0,2-0.9,2-2V36c0-1.1-0.9-2-2-2
				c-0.1,0-0.2-0.1-0.2-0.2c0-0.1,0.1-0.2,0.2-0.2H47.9z M43.5,40.2h4.4c1.7,0,3-1.4,3-3.1c0-1.7-1.3-3.1-3-3.1h-2.4
				c-1.1,0-2,0.9-2,2V40.2z"/>
			<path class="st2" d="M64.8,47.1c0,0.1-0.1,0.2-0.2,0.2H54.5c-0.1,0-0.2-0.1-0.2-0.2c0-0.1,0.1-0.2,0.2-0.2c1.1,0,2-0.9,2-2v-8.9
				c0-1.1-0.9-2-2-2c-0.1,0-0.2-0.1-0.2-0.2c0-0.1,0.1-0.2,0.2-0.2h10.1c0.1,0,0.2,0.1,0.2,0.2V36c0,0.1-0.1,0.2-0.2,0.2
				c-0.1,0-0.2-0.1-0.2-0.2c0-1.1-0.9-2-2-2h-3.4c-1.1,0-2,0.9-2,2v4.2h4.4c1.3,0,1.5-1.2,1.5-2c0-0.1,0.1-0.2,0.2-0.2
				c0.1,0,0.2,0.1,0.2,0.2v4.4c0,0.1-0.1,0.2-0.2,0.2c-0.1,0-0.2-0.1-0.2-0.2c0-0.7-0.2-2-1.5-2h-4.4v4.2c0,1.1,0.9,2,2,2h3.4
				c1.1,0,2-0.9,2-2c0-0.1,0.1-0.2,0.2-0.2c0.1,0,0.2,0.1,0.2,0.2V47.1z"/>
			<path class="st2" d="M77,47.1c0,0.1-0.1,0.2-0.2,0.2H66.6c-0.1,0-0.2-0.1-0.2-0.2c0-0.1,0.1-0.2,0.2-0.2c1.1,0,2-0.9,2-2v-8.9
				c0-1.1-0.9-2-2-2c-0.1,0-0.2-0.1-0.2-0.2c0-0.1,0.1-0.2,0.2-0.2h10.1c0.1,0,0.2,0.1,0.2,0.2V36c0,0.1-0.1,0.2-0.2,0.2
				c-0.1,0-0.2-0.1-0.2-0.2c0-1.1-0.9-2-2-2h-3.4c-1.1,0-2,0.9-2,2v4.2h4.4c1.3,0,1.5-1.2,1.5-2c0-0.1,0.1-0.2,0.2-0.2
				c0.1,0,0.2,0.1,0.2,0.2v4.4c0,0.1-0.1,0.2-0.2,0.2c-0.1,0-0.2-0.1-0.2-0.2c0-0.7-0.2-2-1.5-2h-4.4v4.2c0,1.1,0.9,2,2,2h3.4
				c1.1,0,2-0.9,2-2c0-0.1,0.1-0.2,0.2-0.2c0.1,0,0.2,0.1,0.2,0.2V47.1z"/>
			<path class="st2" d="M83.2,47.4H81h-2.2c-0.1,0-0.2-0.1-0.2-0.2c0-0.1,0.1-0.2,0.2-0.2c1.1,0,2-0.9,2-2v-8.8c0-1.1-0.9-2-2-2
				c-0.1,0-0.2-0.1-0.2-0.2c0-0.1,0.1-0.2,0.2-0.2H81h2.3h2.4c0.9,0,1.8,0.4,2.4,1.1c0.7,0.7,1,1.6,1,2.5c0,0.9-0.3,1.8-1,2.5
				c-0.4,0.4-0.8,0.7-1.3,0.9c0.5,0.2,0.9,0.5,1.3,0.8c0.7,0.7,1,1.6,1,2.5c0,0.9-0.3,1.8-1,2.5c-0.6,0.7-1.5,1.1-2.4,1.1H83.2z
				 M85.6,34.1h-2.4c-1.1,0-2,0.9-2,2v4.2h4.4c1.7,0,3-1.4,3-3.1C88.6,35.5,87.3,34.1,85.6,34.1z M85.6,40.7h-4.4v4.2
				c0,1.1,0.9,2,2,2h2.4c1.7,0,3-1.4,3-3.1C88.6,42.1,87.3,40.7,85.6,40.7z"/>
			<path class="st2" d="M97.8,33.6c0.9,0,1.8,0.4,2.4,1.1c0.7,0.7,1,1.5,1,2.5c0,0.9-0.3,1.8-1,2.5c-0.5,0.6-1.2,0.9-2,1l1.8,4.6
				c0.4,1.1,1,1.7,2.3,1.7c0.1,0,0.2,0.1,0.2,0.2c0,0.1-0.1,0.2-0.2,0.2h-4.1c-0.1,0-0.2-0.1-0.2-0.2c0-0.1,0.1-0.2,0.2-0.2
				c0.5-0.1,0.9-0.1,1.2-0.4c0.2-0.3,0.4-0.5,0.2-1.2c-0.5-1.6-1.2-3.1-1.8-4.6h-4.4v4.2c0,1.1,0.9,2,2,2c0.1,0,0.2,0.1,0.2,0.2
				c0,0.1-0.1,0.2-0.2,0.2h-4.4c-0.1,0-0.2-0.1-0.2-0.2c0-0.1,0.1-0.2,0.2-0.2c1.1,0,2-0.9,2-2V36c0-1.1-0.9-2-2-2
				c-0.1,0-0.2-0.1-0.2-0.2c0-0.1,0.1-0.2,0.2-0.2H97.8z M93.4,40.2h4.4c1.7,0,3-1.4,3-3.1c0-1.7-1.3-3.1-3-3.1h-2.4
				c-1.1,0-2,0.9-2,2V40.2z"/>
			<path class="st2" d="M106.8,44.9c0,1.1,0.9,2,2,2c0.1,0,0.2,0.1,0.2,0.2c0,0.1-0.1,0.2-0.2,0.2h-4.5c-0.1,0-0.2-0.1-0.2-0.2
				c0-0.1,0.1-0.2,0.2-0.2c1.1,0,2-0.9,2-2v-8.9c0-1.1-0.9-2-2-2c-0.1,0-0.2-0.1-0.2-0.2c0-0.1,0.1-0.2,0.2-0.2h4.5
				c0.1,0,0.2,0.1,0.2,0.2c0,0.1-0.1,0.2-0.2,0.2c-1.1,0-2,0.9-2,2V44.9z"/>
			<path class="st2" d="M121.2,40.5c0,3.8-2,6.9-5.8,6.9h-4.5c-0.1,0-0.2-0.1-0.2-0.2c0-0.1,0.1-0.2,0.2-0.2c1.1,0,2-0.9,2-2V36
				c0-1.1-0.9-2-2-2c-0.1,0-0.2-0.1-0.2-0.2c0-0.1,0.1-0.2,0.2-0.2c5.1,0,4.3,0,4.5,0C119.1,33.6,121.2,36.7,121.2,40.5z
				 M120.7,40.5c0-3.6-1.8-6.4-5.4-6.4c-1.1,0-2,0.5-2,2v4.7v4.2c0,1.2,0.9,2,2,2C118.9,46.9,120.7,44,120.7,40.5z"/>
			<path class="st2" d="M122.8,40.5c0-3.6,1.9-7.1,5.9-7.1c1.1,0,2.3,0.3,3.2,1c0.2,0.2,0.4,0.3,0.7,0.5c0.1,0.1,0.2,0.1,0.4,0.1
				c0.6,0,0.7-1,0.7-1.4c0-0.1,0.1-0.2,0.2-0.2c0.1,0,0.2,0.1,0.2,0.2v4.4c0,0.1-0.1,0.2-0.2,0.2c-0.1,0-0.2-0.1-0.2-0.2
				c0-0.4-0.1-0.9-0.3-1.3c-0.9-1.8-2.6-2.9-4.6-2.9c-3.7,0-5.4,3.3-5.4,6.6c0,3.3,1.7,6.6,5.4,6.6c2.3,0,4.9-0.9,4.9-3.3
				c0-1.1-0.9-2-2-2c-0.1,0-0.2-0.1-0.2-0.2c0-0.1,0.1-0.2,0.2-0.2h4.4c0.1,0,0.2,0.1,0.2,0.2c0,0.1-0.1,0.2-0.2,0.2
				c-1.1,0-2,0.9-2,2c0,2.7-2.8,3.8-5.3,3.8C124.6,47.5,122.8,44.1,122.8,40.5z"/>
			<path class="st2" d="M148.3,47.1c0,0.1-0.1,0.2-0.2,0.2H138c-0.1,0-0.2-0.1-0.2-0.2c0-0.1,0.1-0.2,0.2-0.2c1.1,0,2-0.9,2-2v-8.9
				c0-1.1-0.9-2-2-2c-0.1,0-0.2-0.1-0.2-0.2c0-0.1,0.1-0.2,0.2-0.2h10.1c0.1,0,0.2,0.1,0.2,0.2V36c0,0.1-0.1,0.2-0.2,0.2
				c-0.1,0-0.2-0.1-0.2-0.2c0-1.1-0.9-2-2-2h-3.4c-1.1,0-2,0.9-2,2v4.2h4.4c1.3,0,1.5-1.2,1.5-2c0-0.1,0.1-0.2,0.2-0.2
				c0.1,0,0.2,0.1,0.2,0.2v4.4c0,0.1-0.1,0.2-0.2,0.2c-0.1,0-0.2-0.1-0.2-0.2c0-0.7-0.2-2-1.5-2h-4.4v4.2c0,1.1,0.9,2,2,2h3.4
				c1.1,0,2-0.9,2-2c0-0.1,0.1-0.2,0.2-0.2c0.1,0,0.2,0.1,0.2,0.2V47.1z"/>
		</g>
		<g class="st6">
			<path class="st2" d="M34.3,67.8l-2.3,8c0,0.1-0.1,0.1-0.1,0.1c-0.1,0-0.1,0-0.1-0.1l-2.3-8c-0.2-0.8-0.7-1.1-1.6-1.1
				c-0.1,0-0.2-0.1-0.2-0.2c0-0.1,0.1-0.2,0.2-0.2h2.8c0.1,0,0.2,0.1,0.2,0.2c0,0.1-0.1,0.1-0.2,0.2c-0.6,0.1-1.2,0.3-1,1.1l2.2,7.5
				l2.2-7.5c0.2-0.8-0.3-1-1-1.1c-0.1,0-0.1-0.1-0.1-0.2c0-0.1,0.1-0.2,0.2-0.2h2.8c0.1,0,0.2,0.1,0.2,0.2c0,0.1-0.1,0.2-0.2,0.2
				C34.9,66.6,34.5,67,34.3,67.8z"/>
			<path class="st2" d="M44.4,75.7c0,0.1-0.1,0.2-0.2,0.2h-7c-0.1,0-0.2-0.1-0.2-0.2c0-0.1,0.1-0.2,0.2-0.2c0.8,0,1.4-0.6,1.4-1.4
				v-6.1c0-0.8-0.6-1.4-1.4-1.4c-0.1,0-0.2-0.1-0.2-0.2s0.1-0.2,0.2-0.2h7c0.1,0,0.2,0.1,0.2,0.2V68c0,0.1-0.1,0.2-0.2,0.2
				c-0.1,0-0.2-0.1-0.2-0.2c0-0.8-0.6-1.4-1.4-1.4h-2.4c-0.8,0-1.4,0.6-1.4,1.4V71h3c0.9,0,1-0.9,1-1.4c0-0.1,0.1-0.2,0.2-0.2
				c0.1,0,0.2,0.1,0.2,0.2v3.1c0,0.1-0.1,0.2-0.2,0.2c-0.1,0-0.2-0.1-0.2-0.2c0-0.5-0.1-1.4-1-1.4h-3v2.9c0,0.8,0.6,1.4,1.4,1.4h2.4
				c0.8,0,1.4-0.6,1.4-1.4c0-0.1,0.1-0.2,0.2-0.2c0.1,0,0.2,0.1,0.2,0.2V75.7z"/>
			<path class="st2" d="M52.4,68c0-0.8-0.6-1.4-1.4-1.4c-0.1,0-0.2-0.1-0.2-0.2c0-0.1,0.1-0.2,0.2-0.2h3.1c0.1,0,0.2,0.1,0.2,0.2
				c0,0.1-0.1,0.2-0.2,0.2c-0.8,0-1.4,0.6-1.4,1.4v7.7c0,0.1-0.1,0.1-0.2,0.1c-0.1,0-0.1,0-0.1-0.1l-5.1-8.8v7.1
				c0,0.8,0.6,1.4,1.4,1.4c0.1,0,0.2,0.1,0.2,0.2c0,0.1-0.1,0.2-0.2,0.2h-3.1c-0.1,0-0.2-0.1-0.2-0.2c0-0.1,0.1-0.2,0.2-0.2
				c0.8,0,1.4-0.6,1.4-1.4V68c0-0.8-0.6-1.4-1.4-1.4c-0.1,0-0.2-0.1-0.2-0.2c0-0.1,0.1-0.2,0.2-0.2h1.5c0.1,0,0.1,0,0.1,0.1l5.1,8.7
				V68z"/>
			<path class="st2" d="M63.2,68c0,0.1-0.1,0.2-0.2,0.2c-0.1,0-0.2-0.1-0.2-0.2c0-0.8-0.6-1.4-1.4-1.4h-2c0,1.6,0,7.5,0,7.5
				c0,0.8,0.6,1.4,1.4,1.4c0.1,0,0.2,0.1,0.2,0.2c0,0.1-0.1,0.2-0.2,0.2h-3.1c-0.1,0-0.2-0.1-0.2-0.2c0-0.1,0.1-0.2,0.2-0.2
				c0.8,0,1.4-0.6,1.4-1.4c0,0,0-5.9,0-7.5h-2c-0.8,0-1.4,0.6-1.4,1.4c0,0.1-0.1,0.2-0.2,0.2c-0.1,0-0.2-0.1-0.2-0.2v-1.5
				c0-0.1,0.1-0.2,0.2-0.2h7.5c0.1,0,0.2,0.1,0.2,0.2V68z"/>
			<path class="st2" d="M73.1,66.5c0,0.1-0.1,0.2-0.2,0.2c-0.8,0-1.4,0.6-1.4,1.4v5.1c0,1.6-1.3,2.9-2.9,2.9c-1.6,0-2.9-1.3-2.9-2.9
				v-5.1c0-0.8-0.6-1.4-1.4-1.4c-0.1,0-0.2-0.1-0.2-0.2c0-0.1,0.1-0.2,0.2-0.2h3.1c0.1,0,0.2,0.1,0.2,0.2c0,0.1-0.1,0.2-0.2,0.2
				c-0.8,0-1.4,0.6-1.4,1.4v5.1c0,1.4,1.1,2.5,2.5,2.5c1.4,0,2.6-1.1,2.6-2.6v-5.1c0-0.8-0.6-1.4-1.4-1.4c-0.1,0-0.2-0.1-0.2-0.2
				c0-0.1,0.1-0.2,0.2-0.2H73C73.1,66.4,73.1,66.4,73.1,66.5z"/>
			<path class="st2" d="M79.1,66.3c0.6,0,1.2,0.3,1.7,0.8c0.5,0.5,0.7,1.1,0.7,1.7c0,0.6-0.2,1.2-0.7,1.7c-0.4,0.4-0.9,0.6-1.4,0.7
				l1.3,3.2c0.3,0.8,0.7,1.2,1.6,1.2c0.1,0,0.2,0.1,0.2,0.2c0,0.1-0.1,0.2-0.2,0.2h-2.8c-0.1,0-0.2-0.1-0.2-0.2
				c0-0.1,0.1-0.2,0.2-0.2c0.4,0,0.6,0,0.9-0.3c0.2-0.2,0.3-0.4,0.1-0.8c-0.4-1.1-0.8-2.2-1.3-3.2h-3v2.9c0,0.8,0.6,1.4,1.4,1.4
				c0.1,0,0.2,0.1,0.2,0.2c0,0.1-0.1,0.2-0.2,0.2h-3.1c-0.1,0-0.2-0.1-0.2-0.2c0-0.1,0.1-0.2,0.2-0.2c0.8,0,1.4-0.6,1.4-1.4V68
				c0-0.8-0.6-1.4-1.4-1.4c-0.1,0-0.2-0.1-0.2-0.2c0-0.1,0.1-0.2,0.2-0.2H79.1z M76.1,70.9h3c1.2,0,2.1-1,2.1-2.1s-0.9-2.1-2.1-2.1
				h-1.7c-0.8,0-1.4,0.6-1.4,1.4V70.9z"/>
			<path class="st2" d="M90.9,75.7c0,0.1-0.1,0.2-0.2,0.2h-7c-0.1,0-0.2-0.1-0.2-0.2c0-0.1,0.1-0.2,0.2-0.2c0.8,0,1.4-0.6,1.4-1.4
				v-6.1c0-0.8-0.6-1.4-1.4-1.4c-0.1,0-0.2-0.1-0.2-0.2s0.1-0.2,0.2-0.2h7c0.1,0,0.2,0.1,0.2,0.2V68c0,0.1-0.1,0.2-0.2,0.2
				c-0.1,0-0.2-0.1-0.2-0.2c0-0.8-0.6-1.4-1.4-1.4h-2.4c-0.8,0-1.4,0.6-1.4,1.4V71h3c0.9,0,1-0.9,1-1.4c0-0.1,0.1-0.2,0.2-0.2
				c0.1,0,0.2,0.1,0.2,0.2v3.1c0,0.1-0.1,0.2-0.2,0.2c-0.1,0-0.2-0.1-0.2-0.2c0-0.5-0.1-1.4-1-1.4h-3v2.9c0,0.8,0.6,1.4,1.4,1.4h2.4
				c0.8,0,1.4-0.6,1.4-1.4c0-0.1,0.1-0.2,0.2-0.2c0.1,0,0.2,0.1,0.2,0.2V75.7z"/>
			<path class="st2" d="M94.7,66.3c1.4,0,1.9,1,2.3,1c0.3,0,0.3-0.5,0.3-0.8c0-0.1,0.1-0.2,0.2-0.2c0.1,0,0.2,0.1,0.2,0.2v3.1
				c0,0.1-0.1,0.2-0.2,0.2c-0.1,0-0.2-0.1-0.2-0.2c0-1.4-1.1-2.9-2.6-2.9c-1.2,0-2.2,0.5-2.2,1.9c0,3.4,5.4,1.3,5.4,5
				c0,1.4-1.4,2.3-2.7,2.3c-1.4,0-2.2-1-2.6-1c-0.3,0-0.3,0.5-0.3,0.8c0,0.1-0.1,0.2-0.2,0.2c-0.1,0-0.2-0.1-0.2-0.2v-3.1
				c0-0.1,0.1-0.2,0.2-0.2c0.1,0,0.2,0.1,0.2,0.2c0,1.4,1.5,2.9,3,2.9c1.1,0,2.3-0.7,2.3-1.9c0-3.4-5.4-1.4-5.4-5
				C92.2,66.9,93.5,66.3,94.7,66.3z"/>
		</g>
		<rect x="26.4" y="56.9" class="st2" width="122" height="0.2"/>
		<polyline class="st7" points="17.3,0 17.3,17.3 0,17.3 		"/>
		<polyline class="st7" points="0,93.1 17.3,93.1 17.3,110.4 		"/>
		<polyline class="st7" points="165.1,108.4 165.1,91.1 182.4,91.1 		"/>
		<polyline class="st7" points="182.4,17.3 165.1,17.3 165.1,0 		"/>
		<polyline class="st7" points="17.3,103.2 17.3,120.5 0,120.5 		"/>
		<polyline class="st7" points="220.6,120.5 203.3,120.5 203.3,103.2 		"/>
		<polyline class="st7" points="203.3,216.2 203.3,198.9 220.6,198.9 		"/>
	</g>
</g>
</svg>
