<?xml version="1.0" encoding="utf-8"?>
<!-- Generator: Adobe Illustrator 22.0.0, SVG Export Plug-In . SVG Version: 6.00 Build 0)  -->
<svg version="1.1" id="Layer_1" xmlns="http://www.w3.org/2000/svg" xmlns:xlink="http://www.w3.org/1999/xlink" x="0px" y="0px"
	 viewBox="0 0 225 225" style="enable-background:new 0 0 225 225;" xml:space="preserve">
<style type="text/css">
	.st0{fill:#FAE8D4;}
	.st1{fill:#333363;}
	.st2{fill:#574D8E;}
	.st3{font-family:'Foglihten';}
	.st4{font-size:18.21px;}
	.st5{font-size:13.07px;}
	.st6{font-family:'ACBigSerif-One';}
	.st7{font-size:17.25px;}
	.st8{font-size:11.95px;}
	.st9{fill:none;stroke:#FAE8D4;stroke-width:0.5;stroke-miterlimit:10;}
</style>
<title>Asset 1</title>
<g id="Layer_2_1_">
	<g id="Layer_1-2">
		<rect x="2.5" y="105.7" class="st0" width="215.6" height="108"/>
		<path class="st1" d="M215.6,108.2v103H5v-103H215.6 M220.6,103.2H0v113h220.6V103.2z"/>
		<text transform="matrix(1 0 0 1 26.43 145.59)" class="st2 st3 st4">T</text>
		<text transform="matrix(1 0 0 1 36.44 145.59)" class="st2 st3 st4">r</text>
		<text transform="matrix(1 0 0 1 44.06 145.59)" class="st2 st3 st4">ans</text>
		<text transform="matrix(1 0 0 1 71.99 145.59)" class="st2 st3 st4">f</text>
		<text transform="matrix(1 0 0 1 78.27 145.59)" class="st2 st3 st4">or</text>
		<text transform="matrix(1 0 0 1 95.42 145.59)" class="st2 st3 st4">m</text>
		<text transform="matrix(1 0 0 1 110.92 145.59)" class="st2 st3 st4">e</text>
		<text transform="matrix(1 0 0 1 119.88 145.59)" class="st2 st3 st4">d </text>
		<text transform="matrix(1 0 0 1 134.9 145.59)" class="st2 st3 st4">pe</text>
		<text transform="matrix(1 0 0 1 154.42 145.59)" class="st2 st3 st4">o</text>
		<text transform="matrix(1 0 0 1 163.3 145.59)" class="st2 st3 st4">ple</text>
		<text transform="matrix(1 0 0 1 26.43 167.44)" class="st2 st3 st4">t</text>
		<text transform="matrix(1 0 0 1 33.86 167.44)" class="st2 st3 st4">r</text>
		<text transform="matrix(1 0 0 1 41.47 167.44)" class="st2 st3 st4">ans</text>
		<text transform="matrix(1 0 0 1 69.4 167.44)" class="st2 st3 st4">f</text>
		<text transform="matrix(1 0 0 1 75.68 167.44)" class="st2 st3 st4">orm </text>
		<text transform="matrix(1 0 0 1 113.34 167.44)" class="st2 st3 st4">pe</text>
		<text transform="matrix(1 0 0 1 132.86 167.44)" class="st2 st3 st4">o</text>
		<text transform="matrix(1 0 0 1 141.74 167.44)" class="st2 st3 st4">pl</text>
		<text transform="matrix(1 0 0 1 157.39 167.44)" class="st2 st3 st4">e</text>
		<text transform="matrix(1 0 0 1 165.94 167.44)" class="st2 st3 st4">.</text>
		<text transform="matrix(1 0 0 1 26.43 190.98)" class="st2 st3 st5">Ric</text>
		<text transform="matrix(1 0 0 1 44.61 190.98)" class="st2 st3 st5">h</text>
		<text transform="matrix(1 0 0 1 52.38 190.98)" class="st2 st3 st5">a</text>
		<text transform="matrix(1 0 0 1 58.98 190.98)" class="st2 st3 st5">r</text>
		<text transform="matrix(1 0 0 1 64.51 190.98)" class="st2 st3 st5">d </text>
		<text transform="matrix(1 0 0 1 75.3 190.98)" class="st2 st3 st5">R</text>
		<text transform="matrix(1 0 0 1 83.4 190.98)" class="st2 st3 st5">ohr</text>
		<rect x="2.5" y="2.5" class="st0" width="177.4" height="103.4"/>
		<path class="st1" d="M177.4,5v98.4H5V5H177.4 M182.4,0H0v108.4h182.4V0z"/>
		<text transform="matrix(1 0 0 1 27.12 47.37)" class="st2 st6 st7">TreeBridge</text>
		<text transform="matrix(1 0 0 1 27.12 75.89)" class="st2 st6 st8">Ventures</text>
		<rect x="26.4" y="56.9" class="st2" width="122" height="0.2"/>
		<polyline class="st9" points="17.3,0 17.3,17.3 0,17.3 		"/>
		<polyline class="st9" points="0,93.1 17.3,93.1 17.3,110.4 		"/>
		<polyline class="st9" points="165.1,108.4 165.1,91.1 182.4,91.1 		"/>
		<polyline class="st9" points="182.4,17.3 165.1,17.3 165.1,0 		"/>
		<polyline class="st9" points="17.3,103.2 17.3,120.5 0,120.5 		"/>
		<polyline class="st9" points="220.6,120.5 203.3,120.5 203.3,103.2 		"/>
		<polyline class="st9" points="203.3,216.2 203.3,198.9 220.6,198.9 		"/>
	</g>
</g>
</svg>
