<?xml version="1.0" encoding="utf-8"?>
<!-- Generator: Adobe Illustrator 22.0.0, SVG Export Plug-In . SVG Version: 6.00 Build 0)  -->
<svg version="1.1" id="Layer_1" xmlns="http://www.w3.org/2000/svg" xmlns:xlink="http://www.w3.org/1999/xlink" x="0px" y="0px"
	 viewBox="0 0 160 90" style="enable-background:new 0 0 160 90;" xml:space="preserve">
<style type="text/css">
	.st0{fill:#333363;}
</style>
<g>
	<g>
		<path class="st0" d="M21,42.8v4.8c0,0.2-0.1,0.3-0.2,0.3c-0.2,0-0.3-0.1-0.3-0.3c0-0.1-0.1-0.3-0.2-0.5c-0.1-0.2-0.3-0.5-0.5-0.8
			c-0.2-0.3-0.5-0.6-0.8-1c-0.3-0.3-0.7-0.6-1.1-0.9c-0.4-0.3-0.9-0.5-1.4-0.7c-0.5-0.2-1.1-0.3-1.7-0.3c-0.3,0-0.5,0-0.7,0.1
			c-0.2,0.1-0.3,0.2-0.4,0.3c-0.1,0.1-0.2,0.3-0.2,0.5s-0.1,0.4-0.1,0.6v17.6c0,0.5,0.1,1,0.3,1.3c0.2,0.3,0.5,0.6,0.8,0.8
			c0.3,0.2,0.6,0.3,0.9,0.4c0.3,0.1,0.5,0.1,0.7,0.1c0.1,0,0.2,0.1,0.2,0.1c0.1,0.1,0.1,0.1,0.1,0.2c0,0.1,0,0.1-0.1,0.2
			c-0.1,0.1-0.1,0.1-0.3,0.1H5c-0.1,0-0.2,0-0.3-0.1c-0.1-0.1-0.1-0.1-0.1-0.2c0-0.1,0-0.1,0.1-0.2c0.1-0.1,0.1-0.1,0.2-0.1
			c0.1,0,0.4-0.1,0.7-0.1c0.3-0.1,0.6-0.2,0.9-0.4c0.3-0.2,0.6-0.5,0.8-0.8c0.2-0.3,0.3-0.8,0.3-1.3c0-0.1,0-0.4,0-0.9
			c0-0.5,0-1.1,0-1.9s0-1.6,0-2.5c0-0.9,0-1.9,0-2.9c0-1,0-1.9,0-2.9c0-1,0-1.8,0-2.6c0-0.8,0-1.5,0-2c0-0.6,0-1,0-1.2
			c0-0.3,0-0.6,0-0.9c0-0.3-0.1-0.5-0.2-0.8c-0.1-0.2-0.2-0.4-0.4-0.5c-0.2-0.1-0.5-0.2-0.9-0.2c-0.6,0-1.2,0.1-1.7,0.3
			c-0.5,0.2-1,0.4-1.4,0.7c-0.4,0.3-0.7,0.6-1,0.9c-0.3,0.3-0.6,0.6-0.8,1c-0.2,0.3-0.4,0.6-0.5,0.8c-0.1,0.2-0.2,0.4-0.2,0.5
			c-0.1,0.2-0.2,0.3-0.3,0.3c-0.2,0-0.2-0.1-0.2-0.3v-4.8c0-0.2,0.1-0.3,0.4-0.3h20.2C20.9,42.5,21,42.6,21,42.8z"/>
		<path class="st0" d="M29.9,49.8c0.5,0,0.9,0.1,1.2,0.2c0.3,0.1,0.6,0.3,0.8,0.5c0.2,0.2,0.4,0.4,0.5,0.7c0.1,0.3,0.1,0.6,0.1,0.9
			c0,0.6-0.2,1-0.5,1.3c-0.4,0.3-0.8,0.5-1.4,0.5c-0.5,0-0.8-0.1-1.1-0.2c-0.3-0.2-0.5-0.3-0.6-0.5s-0.3-0.4-0.5-0.5
			c-0.2-0.2-0.3-0.2-0.6-0.2c-0.2,0-0.4,0.1-0.6,0.2c-0.2,0.1-0.4,0.4-0.6,0.8c-0.2,0.4-0.3,0.9-0.5,1.5s-0.2,1.5-0.2,2.5v6
			c0,0.5,0.1,0.8,0.2,1.1c0.2,0.3,0.3,0.5,0.5,0.6c0.2,0.1,0.4,0.2,0.6,0.3c0.2,0.1,0.3,0.1,0.4,0.1c0.1,0,0.2,0.1,0.2,0.1
			c0,0.1,0.1,0.1,0,0.2c0,0.1,0,0.1-0.1,0.2c-0.1,0-0.1,0.1-0.2,0.1h-1.7h-0.2h-4.4h-0.2h-1.7c-0.1,0-0.2,0-0.2-0.1
			c-0.1,0-0.1-0.1-0.1-0.2c0-0.1,0-0.1,0-0.2c0-0.1,0.1-0.1,0.2-0.1c0.1,0,0.2,0,0.4-0.1c0.2-0.1,0.4-0.1,0.6-0.3
			c0.2-0.1,0.4-0.3,0.5-0.6c0.2-0.3,0.2-0.6,0.2-1.1v-9.8c0-0.2-0.1-0.2-0.2-0.3c0,0-0.1,0-0.3-0.1c-0.1,0-0.3-0.1-0.5-0.1
			c-0.2,0-0.4-0.1-0.5-0.1c-0.2,0-0.3-0.1-0.3-0.1c-0.2,0-0.2-0.1-0.2-0.2c0-0.1,0.1-0.2,0.3-0.3c0.5-0.1,0.9-0.2,1.5-0.4
			c0.5-0.2,1.1-0.4,1.6-0.6c0.5-0.2,1-0.5,1.5-0.7c0.5-0.3,0.9-0.5,1.3-0.8c0.1-0.1,0.2-0.1,0.3-0.1c0.1,0,0.2,0.1,0.2,0.3v2.5
			c0.4-0.9,1-1.6,1.6-2C28.2,50.1,29,49.8,29.9,49.8z"/>
		<path class="st0" d="M37.7,56.7c-0.2,0-0.3,0.1-0.3,0.3c0,1.2,0.1,2.2,0.3,3c0.2,0.8,0.5,1.5,0.9,2.1c0.4,0.5,0.9,0.9,1.5,1.2
			c0.6,0.3,1.3,0.4,2.1,0.4c0.6,0,1.1-0.1,1.6-0.2c0.5-0.1,0.9-0.3,1.2-0.4c0.3-0.2,0.6-0.3,0.8-0.5c0.2-0.2,0.4-0.2,0.5-0.3
			c0.2-0.1,0.3-0.1,0.4,0c0.1,0.1,0.1,0.2,0,0.4c0,0.1-0.1,0.2-0.2,0.4c-0.1,0.2-0.3,0.4-0.5,0.7c-0.2,0.3-0.5,0.5-0.9,0.8
			c-0.3,0.3-0.8,0.6-1.2,0.8c-0.5,0.2-1,0.4-1.6,0.6c-0.6,0.2-1.3,0.2-2.1,0.2c-1.2,0-2.2-0.2-3.1-0.5c-0.9-0.4-1.7-0.9-2.4-1.6
			c-0.7-0.7-1.2-1.5-1.5-2.5c-0.4-1-0.5-2.1-0.5-3.4c0-1.4,0.2-2.6,0.7-3.6c0.5-1.1,1-1.9,1.8-2.6c0.7-0.7,1.6-1.3,2.5-1.6
			c0.9-0.4,1.9-0.6,2.8-0.6c0.9,0,1.7,0.1,2.4,0.4c0.7,0.2,1.3,0.6,1.8,1c0.5,0.4,0.9,0.8,1.2,1.3c0.3,0.5,0.6,1,0.8,1.5
			c0.2,0.5,0.3,0.9,0.4,1.4c0.1,0.4,0.1,0.8,0.1,1c0,0.1,0,0.2-0.1,0.2c-0.1,0-0.2,0.1-0.3,0.1H37.7z M37.5,55.5
			c0,0.2,0,0.2,0.2,0.2c0,0,0.2,0,0.3,0c0.2,0,0.4,0,0.7,0c0.3,0,0.6,0,0.9,0c0.3,0,0.6,0,0.9,0c0.3,0,0.5,0,0.8,0
			c0.2,0,0.3,0,0.4,0c0.2,0,0.4-0.1,0.6-0.2c0.2-0.2,0.3-0.4,0.3-0.8c0-0.3,0-0.7-0.1-1.2c-0.1-0.4-0.2-0.9-0.4-1.2
			c-0.2-0.4-0.5-0.7-0.8-1c-0.3-0.3-0.7-0.4-1.1-0.4c-0.4,0-0.7,0.1-0.9,0.3c-0.3,0.2-0.5,0.4-0.7,0.7c-0.2,0.3-0.3,0.6-0.5,1
			c-0.1,0.4-0.2,0.7-0.3,1.1s-0.1,0.7-0.2,1C37.6,55.2,37.6,55.4,37.5,55.5z"/>
		<path class="st0" d="M53.5,56.7c-0.2,0-0.3,0.1-0.3,0.3c0,1.2,0.1,2.2,0.3,3c0.2,0.8,0.5,1.5,0.9,2.1c0.4,0.5,0.9,0.9,1.5,1.2
			c0.6,0.3,1.3,0.4,2.1,0.4c0.6,0,1.1-0.1,1.6-0.2c0.5-0.1,0.9-0.3,1.2-0.4c0.3-0.2,0.6-0.3,0.8-0.5c0.2-0.2,0.4-0.2,0.5-0.3
			c0.2-0.1,0.3-0.1,0.4,0c0.1,0.1,0.1,0.2,0,0.4c0,0.1-0.1,0.2-0.2,0.4s-0.3,0.4-0.5,0.7c-0.2,0.3-0.5,0.5-0.9,0.8
			c-0.3,0.3-0.8,0.6-1.2,0.8c-0.5,0.2-1,0.4-1.6,0.6c-0.6,0.2-1.3,0.2-2.1,0.2c-1.2,0-2.2-0.2-3.1-0.5c-0.9-0.4-1.7-0.9-2.4-1.6
			c-0.7-0.7-1.2-1.5-1.5-2.5c-0.4-1-0.5-2.1-0.5-3.4c0-1.4,0.2-2.6,0.7-3.6c0.5-1.1,1-1.9,1.8-2.6c0.7-0.7,1.6-1.3,2.5-1.6
			c0.9-0.4,1.9-0.6,2.8-0.6c0.9,0,1.7,0.1,2.4,0.4c0.7,0.2,1.3,0.6,1.8,1c0.5,0.4,0.9,0.8,1.2,1.3c0.3,0.5,0.6,1,0.8,1.5
			c0.2,0.5,0.3,0.9,0.4,1.4c0.1,0.4,0.1,0.8,0.1,1c0,0.1,0,0.2-0.1,0.2c-0.1,0-0.2,0.1-0.3,0.1H53.5z M53.3,55.5
			c0,0.2,0,0.2,0.2,0.2c0,0,0.2,0,0.3,0c0.2,0,0.4,0,0.7,0c0.3,0,0.6,0,0.9,0c0.3,0,0.6,0,0.9,0c0.3,0,0.5,0,0.8,0
			c0.2,0,0.3,0,0.4,0c0.2,0,0.4-0.1,0.6-0.2c0.2-0.2,0.3-0.4,0.3-0.8c0-0.3,0-0.7-0.1-1.2c-0.1-0.4-0.2-0.9-0.4-1.2
			c-0.2-0.4-0.5-0.7-0.8-1c-0.3-0.3-0.7-0.4-1.1-0.4c-0.4,0-0.7,0.1-0.9,0.3c-0.3,0.2-0.5,0.4-0.7,0.7c-0.2,0.3-0.3,0.6-0.5,1
			c-0.1,0.4-0.2,0.7-0.3,1.1s-0.1,0.7-0.2,1C53.3,55.2,53.3,55.4,53.3,55.5z"/>
		<path class="st0" d="M79.1,53.8c0.9,0.2,1.7,0.6,2.3,1c0.6,0.4,1.1,0.9,1.5,1.4c0.4,0.5,0.6,1.1,0.7,1.7c0.1,0.6,0.2,1.2,0.2,1.8
			c0,0.8-0.1,1.6-0.4,2.4c-0.3,0.8-0.8,1.4-1.4,2c-0.7,0.6-1.5,1-2.6,1.4s-2.4,0.5-3.9,0.5H64.2c-0.1,0-0.2,0-0.3-0.1
			c-0.1-0.1-0.1-0.1-0.1-0.2c0-0.1,0-0.1,0.1-0.2c0.1-0.1,0.1-0.1,0.2-0.1c0.1,0,0.4-0.1,0.7-0.1c0.3-0.1,0.6-0.2,0.9-0.4
			c0.3-0.2,0.6-0.5,0.8-0.8c0.2-0.3,0.3-0.8,0.3-1.3v-17c0-0.5-0.1-1-0.3-1.3c-0.2-0.3-0.5-0.6-0.8-0.8c-0.3-0.2-0.6-0.3-0.9-0.4
			c-0.3-0.1-0.5-0.1-0.7-0.2c-0.1,0-0.2,0-0.2-0.1c-0.1-0.1-0.1-0.1-0.1-0.2c0-0.1,0-0.1,0.1-0.2c0.1-0.1,0.1-0.1,0.3-0.1h12.1
			c1.2,0,2.2,0.1,3,0.4c0.8,0.3,1.5,0.7,2,1.2c0.5,0.5,0.9,1.1,1.1,1.8c0.2,0.7,0.3,1.4,0.3,2.2c0,0.5-0.1,1.1-0.2,1.6
			c-0.1,0.5-0.3,1-0.6,1.5c-0.3,0.5-0.6,0.9-1.1,1.4c-0.5,0.4-1,0.8-1.7,1.1c-0.1,0-0.1,0.1-0.1,0.1C79,53.7,79.1,53.8,79.1,53.8z
			 M72.6,52.3c0,0.3,0.1,0.6,0.3,0.8c0.2,0.2,0.4,0.3,0.8,0.3c0.3,0,0.6-0.1,1-0.2c0.4-0.1,0.7-0.4,1-0.8c0.3-0.4,0.6-1,0.8-1.7
			c0.2-0.7,0.3-1.7,0.3-2.8c0-0.5,0-1-0.1-1.5c0-0.5-0.1-1-0.3-1.4c-0.2-0.4-0.4-0.8-0.7-1c-0.3-0.3-0.7-0.4-1.2-0.4
			c-0.4,0-0.8,0.1-1,0.2c-0.3,0.2-0.5,0.4-0.6,0.7c-0.1,0.3-0.2,0.7-0.3,1.2c0,0.5-0.1,1-0.1,1.6V52.3z M74.9,64.9
			c0.5,0,0.8-0.1,1.1-0.3c0.3-0.2,0.6-0.4,0.8-0.8c0.2-0.3,0.4-0.7,0.5-1c0.1-0.4,0.2-0.8,0.2-1.2c0-0.4,0.1-0.8,0.1-1.1
			c0-0.4,0-0.7,0-0.9c0-0.9-0.1-1.6-0.2-2.2s-0.3-1.1-0.6-1.5c-0.2-0.4-0.5-0.7-0.8-0.9c-0.3-0.2-0.6-0.4-0.8-0.5
			c-0.3-0.1-0.6-0.2-0.8-0.2c-0.3,0-0.5,0-0.6,0c-0.4,0-0.6,0.1-0.8,0.3c-0.2,0.2-0.3,0.4-0.3,0.8v5.4c0,0.6,0,1.2,0.1,1.7
			c0.1,0.5,0.2,0.9,0.4,1.3c0.2,0.4,0.4,0.6,0.7,0.8C74,64.8,74.4,64.9,74.9,64.9z"/>
		<path class="st0" d="M95.5,49.8c0.5,0,0.9,0.1,1.2,0.2c0.3,0.1,0.6,0.3,0.8,0.5c0.2,0.2,0.4,0.4,0.5,0.7c0.1,0.3,0.1,0.6,0.1,0.9
			c0,0.6-0.2,1-0.5,1.3c-0.4,0.3-0.8,0.5-1.4,0.5c-0.5,0-0.8-0.1-1.1-0.2c-0.3-0.2-0.5-0.3-0.6-0.5c-0.2-0.2-0.3-0.4-0.5-0.5
			c-0.2-0.2-0.3-0.2-0.6-0.2c-0.2,0-0.4,0.1-0.6,0.2c-0.2,0.1-0.4,0.4-0.6,0.8c-0.2,0.4-0.3,0.9-0.5,1.5c-0.1,0.6-0.2,1.5-0.2,2.5v6
			c0,0.5,0.1,0.8,0.2,1.1c0.2,0.3,0.3,0.5,0.5,0.6c0.2,0.1,0.4,0.2,0.6,0.3c0.2,0.1,0.3,0.1,0.4,0.1c0.1,0,0.2,0.1,0.2,0.1
			c0,0.1,0.1,0.1,0,0.2c0,0.1,0,0.1-0.1,0.2c-0.1,0-0.1,0.1-0.2,0.1h-1.7h-0.2H87h-0.2h-1.7c-0.1,0-0.2,0-0.2-0.1
			c-0.1,0-0.1-0.1-0.1-0.2c0-0.1,0-0.1,0-0.2c0-0.1,0.1-0.1,0.2-0.1c0.1,0,0.2,0,0.4-0.1c0.2-0.1,0.4-0.1,0.6-0.3
			c0.2-0.1,0.4-0.3,0.5-0.6c0.2-0.3,0.2-0.6,0.2-1.1v-9.8c0-0.2-0.1-0.2-0.2-0.3c0,0-0.1,0-0.3-0.1c-0.1,0-0.3-0.1-0.5-0.1
			c-0.2,0-0.4-0.1-0.5-0.1c-0.2,0-0.3-0.1-0.3-0.1c-0.2,0-0.2-0.1-0.2-0.2c0-0.1,0.1-0.2,0.3-0.3c0.5-0.1,0.9-0.2,1.5-0.4
			c0.5-0.2,1.1-0.4,1.6-0.6c0.5-0.2,1-0.5,1.5-0.7c0.5-0.3,0.9-0.5,1.3-0.8c0.1-0.1,0.2-0.1,0.3-0.1c0.1,0,0.2,0.1,0.2,0.3v2.5
			c0.4-0.9,1-1.6,1.6-2C93.9,50.1,94.7,49.8,95.5,49.8z"/>
		<path class="st0" d="M105.1,63.2c0,0.5,0.1,0.8,0.3,1.1c0.2,0.3,0.4,0.5,0.6,0.7c0.2,0.2,0.5,0.3,0.7,0.3c0.2,0.1,0.4,0.1,0.5,0.1
			c0.1,0,0.2,0.1,0.2,0.1c0,0.1,0.1,0.1,0,0.2c0,0.1,0,0.1-0.1,0.2c-0.1,0-0.1,0.1-0.2,0.1h-8.7c-0.1,0-0.2,0-0.2-0.1
			c-0.1,0-0.1-0.1-0.1-0.2c0-0.1,0-0.1,0-0.2c0-0.1,0.1-0.1,0.2-0.1c0.1,0,0.3,0,0.5-0.1c0.2-0.1,0.5-0.2,0.7-0.3
			c0.2-0.2,0.4-0.4,0.6-0.7c0.2-0.3,0.3-0.7,0.3-1.1v-9.6c0-0.2-0.1-0.2-0.2-0.3c0,0-0.1,0-0.3-0.1c-0.1,0-0.3-0.1-0.5-0.1
			c-0.2,0-0.4-0.1-0.5-0.1c-0.2,0-0.3-0.1-0.3-0.1c-0.2,0-0.2-0.1-0.2-0.2c0-0.1,0.1-0.2,0.3-0.3c0.5-0.1,0.9-0.2,1.5-0.4
			c0.5-0.2,1.1-0.4,1.6-0.6c0.5-0.2,1-0.5,1.5-0.7c0.5-0.3,0.9-0.5,1.3-0.8c0.1-0.1,0.2-0.1,0.3-0.1c0.1,0,0.2,0.1,0.2,0.3V63.2z"/>
		<path class="st0" d="M127.2,65.4c0.1,0,0.2,0.1,0.2,0.1c0,0.1,0.1,0.1,0,0.2c0,0.1,0,0.1-0.1,0.2c-0.1,0-0.1,0.1-0.2,0.1h-6.3
			c-0.1,0-0.2,0-0.3-0.1c-0.1-0.1-0.1-0.2-0.1-0.3V64c0-0.1,0-0.1-0.1-0.2c-0.1,0-0.1,0-0.2,0.1c-0.1,0.1-0.3,0.3-0.5,0.6
			c-0.2,0.3-0.6,0.5-1,0.8c-0.4,0.3-0.9,0.5-1.6,0.7c-0.6,0.2-1.3,0.3-2.2,0.3c-0.9,0-1.7-0.1-2.4-0.4c-0.7-0.2-1.3-0.6-1.8-1
			c-0.5-0.4-0.9-0.9-1.2-1.4c-0.3-0.5-0.6-1.1-0.8-1.7c-0.2-0.6-0.3-1.2-0.4-1.8c-0.1-0.6-0.1-1.1-0.1-1.7c0-1.3,0.2-2.5,0.5-3.5
			c0.3-1.1,0.8-2,1.4-2.7c0.6-0.8,1.4-1.3,2.4-1.7c1-0.4,2.1-0.6,3.4-0.6c0.7,0,1.4,0,1.9,0.1c0.5,0.1,1,0.2,1.3,0.3
			c0.3,0.1,0.6,0.2,0.8,0.3c0.2,0.1,0.3,0.2,0.3,0.2c0.1,0,0.1,0.1,0.2,0c0.1,0,0.1-0.1,0.1-0.1v-7c0-0.2-0.1-0.2-0.2-0.3
			c0,0-0.1,0-0.3-0.1c-0.1,0-0.3-0.1-0.5-0.1c-0.2,0-0.4-0.1-0.5-0.1c-0.2,0-0.3-0.1-0.3-0.1c-0.2,0-0.2-0.1-0.2-0.2
			c0-0.1,0.1-0.2,0.3-0.3c0.5-0.1,0.9-0.2,1.5-0.4c0.5-0.2,1.1-0.4,1.6-0.6c0.5-0.2,1-0.5,1.5-0.7c0.5-0.3,0.9-0.5,1.3-0.8
			c0.1-0.1,0.2-0.1,0.3-0.1c0.1,0,0.2,0.1,0.2,0.3v23c0,0.5,0.1,0.8,0.3,1.1c0.2,0.3,0.4,0.5,0.6,0.7c0.2,0.2,0.5,0.3,0.7,0.3
			C127,65.3,127.1,65.4,127.2,65.4z M120.4,55.6c0-0.3,0-0.6-0.1-1c0-0.3-0.1-0.7-0.2-1c-0.1-0.4-0.2-0.7-0.4-1
			c-0.2-0.3-0.4-0.6-0.6-0.9c-0.3-0.3-0.6-0.5-0.9-0.6c-0.3-0.2-0.7-0.2-1.2-0.2c-0.7,0-1.3,0.2-1.8,0.5c-0.5,0.3-0.9,0.8-1.2,1.4
			s-0.5,1.3-0.7,2.1c-0.1,0.8-0.2,1.7-0.2,2.7c0,0.3,0,0.6,0,1c0,0.4,0,0.9,0.1,1.4c0.1,0.5,0.2,1,0.3,1.5c0.1,0.5,0.3,1,0.6,1.4
			c0.3,0.4,0.6,0.7,1,1c0.4,0.3,0.9,0.4,1.5,0.4c0.8,0,1.4-0.1,1.9-0.4c0.5-0.3,0.8-0.6,1.1-1.1c0.3-0.4,0.4-0.9,0.5-1.3
			c0.1-0.5,0.1-0.9,0.1-1.2V55.6z"/>
		<path class="st0" d="M139,64.1c1.3,0.2,2.3,0.5,3.1,0.8c0.8,0.3,1.5,0.7,2,1c0.5,0.4,0.8,0.8,1,1.3c0.2,0.5,0.3,1,0.3,1.6
			c0,0.4-0.1,0.7-0.2,1.1c-0.1,0.4-0.3,0.8-0.6,1.2c-0.3,0.4-0.7,0.7-1.2,1.1c-0.5,0.3-1.1,0.6-1.8,0.9c-0.7,0.3-1.5,0.5-2.5,0.6
			c-1,0.2-2.1,0.2-3.3,0.2c-1.2,0-2.3-0.1-3.2-0.2c-0.9-0.1-1.7-0.3-2.3-0.5c-0.6-0.2-1.2-0.4-1.6-0.7c-0.4-0.3-0.7-0.5-0.9-0.8
			c-0.2-0.3-0.4-0.6-0.5-0.8c-0.1-0.3-0.1-0.6-0.1-0.8c0-0.4,0.1-0.7,0.3-1c0.2-0.3,0.4-0.7,0.8-0.9c0.3-0.3,0.8-0.5,1.2-0.8
			c0.5-0.2,1-0.4,1.6-0.5c0.1,0,0.1-0.1,0.1-0.1c0,0,0-0.1-0.1-0.1c-0.5-0.3-0.9-0.7-1.2-1.2c-0.3-0.5-0.5-1-0.5-1.7
			c0-0.4,0.1-0.8,0.2-1.1c0.2-0.3,0.4-0.6,0.6-0.9c0.3-0.3,0.6-0.5,1-0.6c0.4-0.2,0.8-0.3,1.3-0.4c0.1,0,0.1-0.1,0.1-0.1
			c0-0.1,0-0.1-0.1-0.1c-0.6-0.2-1.1-0.5-1.6-0.8c-0.5-0.3-0.9-0.7-1.2-1.1c-0.3-0.4-0.6-0.9-0.8-1.4c-0.2-0.5-0.3-1-0.3-1.6
			c0-0.8,0.2-1.5,0.6-2.2c0.4-0.7,0.9-1.3,1.6-1.8c0.7-0.5,1.5-0.9,2.4-1.2c0.9-0.3,1.9-0.4,2.9-0.4c1.4,0,2.6,0.2,3.7,0.7
			c0.2,0.1,0.3,0,0.4,0c0.2-0.2,0.4-0.4,0.5-0.6c0.1-0.2,0.1-0.4,0.1-0.6c0-0.2,0-0.4,0-0.6s0-0.4,0-0.5c0-0.4,0.1-0.7,0.4-1
			c0.2-0.3,0.6-0.4,1.1-0.4s0.9,0.1,1.1,0.4c0.3,0.3,0.4,0.7,0.4,1.2c0,0.3-0.1,0.7-0.2,1c-0.1,0.3-0.3,0.5-0.5,0.8
			s-0.5,0.4-0.8,0.6c-0.3,0.2-0.6,0.3-0.9,0.4c-0.1,0-0.1,0.1-0.1,0.1c0,0.1,0,0.1,0.1,0.1c0.6,0.5,1.1,1.1,1.5,1.8
			c0.4,0.7,0.5,1.4,0.5,2.2c0,0.8-0.2,1.5-0.6,2.2c-0.4,0.7-0.9,1.3-1.6,1.8c-0.7,0.5-1.5,0.9-2.4,1.2c-0.9,0.3-1.9,0.4-2.9,0.4
			c-0.3,0-0.5,0-0.8,0c-0.3,0-0.5,0-0.8,0c-0.2,0-0.5,0.1-0.7,0.3c-0.2,0.2-0.3,0.4-0.3,0.6c0,0.2,0.1,0.4,0.2,0.6
			c0.2,0.2,0.4,0.4,0.8,0.5c0.4,0.2,1,0.3,1.7,0.5C136.9,63.7,137.8,63.9,139,64.1z M136.7,72.9c0.5,0,1.1,0,1.6-0.1
			c0.5-0.1,1.1-0.2,1.5-0.4c0.5-0.2,0.8-0.4,1.1-0.7s0.4-0.6,0.4-1c0-0.4-0.1-0.7-0.4-0.9c-0.3-0.2-0.6-0.5-1.1-0.6
			c-0.5-0.2-1-0.3-1.5-0.5c-0.6-0.1-1.2-0.2-1.8-0.3c-0.5-0.1-1.1-0.2-1.8-0.3c-0.7-0.1-1.4-0.3-2-0.6c-0.1,0-0.1,0-0.2,0
			c-0.4,0.2-0.8,0.4-1.1,0.7c-0.3,0.3-0.5,0.7-0.5,1.3c0,0.6,0.2,1.2,0.5,1.6c0.3,0.5,0.7,0.8,1.3,1.1c0.5,0.3,1.1,0.5,1.8,0.6
			C135.2,72.8,135.9,72.9,136.7,72.9z M136.2,50.7c-0.4,0-0.7,0.1-1,0.4c-0.3,0.2-0.5,0.6-0.7,1c-0.2,0.4-0.3,0.9-0.4,1.5
			s-0.1,1.2-0.1,1.8c0,0.6,0,1.3,0.1,1.8c0.1,0.6,0.2,1.1,0.4,1.5c0.2,0.4,0.4,0.8,0.7,1c0.3,0.2,0.6,0.4,1,0.4c0.4,0,0.7-0.1,1-0.4
			c0.3-0.2,0.5-0.6,0.7-1c0.2-0.4,0.3-0.9,0.4-1.5c0.1-0.6,0.1-1.2,0.1-1.8c0-0.6,0-1.3-0.1-1.8c-0.1-0.6-0.2-1.1-0.4-1.5
			c-0.2-0.4-0.4-0.8-0.7-1C136.9,50.8,136.6,50.7,136.2,50.7z"/>
		<path class="st0" d="M150.7,56.7c-0.2,0-0.3,0.1-0.3,0.3c0,1.2,0.1,2.2,0.3,3c0.2,0.8,0.5,1.5,0.9,2.1c0.4,0.5,0.9,0.9,1.5,1.2
			c0.6,0.3,1.3,0.4,2.1,0.4c0.6,0,1.1-0.1,1.6-0.2c0.5-0.1,0.9-0.3,1.2-0.4c0.3-0.2,0.6-0.3,0.8-0.5c0.2-0.2,0.4-0.2,0.5-0.3
			c0.2-0.1,0.3-0.1,0.4,0c0.1,0.1,0.1,0.2,0,0.4c0,0.1-0.1,0.2-0.2,0.4c-0.1,0.2-0.3,0.4-0.5,0.7c-0.2,0.3-0.5,0.5-0.9,0.8
			c-0.3,0.3-0.8,0.6-1.2,0.8c-0.5,0.2-1,0.4-1.6,0.6c-0.6,0.2-1.3,0.2-2.1,0.2c-1.2,0-2.2-0.2-3.1-0.5c-0.9-0.4-1.7-0.9-2.4-1.6
			c-0.7-0.7-1.2-1.5-1.5-2.5c-0.4-1-0.5-2.1-0.5-3.4c0-1.4,0.2-2.6,0.7-3.6c0.5-1.1,1-1.9,1.8-2.6c0.7-0.7,1.6-1.3,2.5-1.6
			c0.9-0.4,1.9-0.6,2.8-0.6c0.9,0,1.7,0.1,2.4,0.4c0.7,0.2,1.3,0.6,1.8,1c0.5,0.4,0.9,0.8,1.2,1.3c0.3,0.5,0.6,1,0.8,1.5
			c0.2,0.5,0.3,0.9,0.4,1.4c0.1,0.4,0.1,0.8,0.1,1c0,0.1,0,0.2-0.1,0.2c-0.1,0-0.2,0.1-0.3,0.1H150.7z M150.5,55.5
			c0,0.2,0,0.2,0.2,0.2c0,0,0.2,0,0.3,0c0.2,0,0.4,0,0.7,0c0.3,0,0.6,0,0.9,0c0.3,0,0.6,0,0.9,0c0.3,0,0.5,0,0.8,0
			c0.2,0,0.3,0,0.4,0c0.2,0,0.4-0.1,0.6-0.2c0.2-0.2,0.3-0.4,0.3-0.8c0-0.3,0-0.7-0.1-1.2c-0.1-0.4-0.2-0.9-0.4-1.2
			c-0.2-0.4-0.5-0.7-0.8-1c-0.3-0.3-0.7-0.4-1.1-0.4c-0.4,0-0.7,0.1-0.9,0.3c-0.3,0.2-0.5,0.4-0.7,0.7c-0.2,0.3-0.3,0.6-0.5,1
			c-0.1,0.4-0.2,0.7-0.3,1.1s-0.1,0.7-0.2,1C150.5,55.2,150.5,55.4,150.5,55.5z"/>
	</g>
	<g>
		<path class="st0" d="M10.1,79.7l-3.9,10h-1l-3.7-10L0,79.5v-0.6h3.9v0.6l-1.5,0.2l2.9,7.9L5.6,89h0.1l3.5-9.3l-1.6-0.2v-0.6h3.9
			v0.6L10.1,79.7z"/>
		<path class="st0" d="M13,84.5c0,1.1,0.3,2,0.8,2.8c0.5,0.7,1.2,1.3,2,1.6c0.4,0.1,0.7,0.2,1.1,0.3c0.4,0.1,0.8,0.1,1.2,0.1
			c0.3,0,0.5,0,0.8-0.1s0.6-0.1,0.8-0.2c0.3-0.1,0.5-0.1,0.7-0.2c0.2-0.1,0.4-0.1,0.5-0.2l0.2,0.7c-0.1,0.1-0.2,0.1-0.5,0.2
			c-0.2,0.1-0.5,0.1-0.8,0.2c-0.3,0.1-0.6,0.1-0.9,0.2c-0.3,0-0.7,0.1-1,0.1c-0.9,0-1.7-0.1-2.5-0.3s-1.3-0.6-1.9-1
			c-0.5-0.5-0.9-1.1-1.2-1.8c-0.3-0.7-0.4-1.5-0.4-2.5c0-1.1,0.2-2,0.5-2.7c0.3-0.7,0.7-1.3,1.2-1.8c0.5-0.5,1-0.8,1.6-1
			c0.6-0.2,1.2-0.3,1.7-0.3c0.7,0,1.4,0.1,2,0.3c0.6,0.2,1,0.6,1.4,1c0.4,0.5,0.7,1.1,0.8,1.8c0.2,0.8,0.2,1.7,0.2,2.7H13z
			 M17.1,79.3c-0.5,0-1,0.1-1.4,0.2c-0.4,0.1-0.8,0.3-1,0.6c-0.3,0.2-0.5,0.5-0.7,0.8c-0.2,0.3-0.4,0.6-0.5,1
			c-0.1,0.3-0.2,0.7-0.3,1c-0.1,0.3-0.1,0.6-0.1,0.9h7.7c0-1.6-0.3-2.7-0.9-3.4S18.4,79.3,17.1,79.3z"/>
		<path class="st0" d="M31.4,89.7v-0.5l2-0.2v-5.9c0-0.6,0-1.1,0-1.6c0-0.5-0.1-0.9-0.3-1.2c-0.2-0.3-0.4-0.6-0.7-0.8
			c-0.3-0.2-0.8-0.3-1.5-0.3c-0.4,0-0.8,0.1-1.2,0.4c-0.4,0.2-0.7,0.6-1.1,1C28.3,81,28,81.5,27.7,82c-0.3,0.5-0.5,1.1-0.7,1.6
			c-0.2,0.6-0.3,1.1-0.4,1.7c-0.1,0.6-0.2,1.1-0.2,1.6V89l2,0.2v0.5h-4.7v-0.5l2-0.2v-9.2l-2-0.2v-0.6h2.8v3.9l-0.2,1.3h0.1
			c0-0.3,0.1-0.6,0.2-1c0.1-0.4,0.3-0.8,0.5-1.2c0.2-0.4,0.4-0.8,0.7-1.2c0.3-0.4,0.6-0.7,0.9-1.1c0.3-0.3,0.7-0.6,1.1-0.7
			c0.4-0.2,0.8-0.3,1.3-0.3c0.7,0,1.3,0.1,1.7,0.3c0.4,0.2,0.7,0.5,0.9,0.8c0.2,0.3,0.3,0.7,0.4,1.2c0.1,0.5,0.1,0.9,0.1,1.4V89
			l2,0.2v0.5H31.4z"/>
		<path class="st0" d="M44.5,89.5c-0.1,0-0.2,0.1-0.3,0.1s-0.4,0.1-0.6,0.2c-0.3,0.1-0.5,0.1-0.8,0.1c-0.3,0-0.6,0.1-0.9,0.1
			c-0.6,0-1.1-0.1-1.5-0.3c-0.4-0.2-0.6-0.4-0.8-0.7c-0.2-0.3-0.3-0.7-0.3-1c0-0.4-0.1-0.8-0.1-1.2v-7.2h-2.2V79l2.2-0.2l0.3-2.5
			h0.5v2.7h3.8v0.7h-3.8v7.2c0,0.4,0,0.7,0.1,1c0,0.3,0.1,0.6,0.3,0.8c0.1,0.2,0.4,0.4,0.6,0.5c0.3,0.1,0.6,0.2,1.1,0.2
			c0.2,0,0.5,0,0.7,0c0.2,0,0.5-0.1,0.7-0.1c0.2,0,0.4-0.1,0.6-0.1c0.2,0,0.3-0.1,0.4-0.1L44.5,89.5z"/>
		<path class="st0" d="M55.3,89.7v-3.9l0.2-1.3h-0.1c-0.1,0.3-0.1,0.7-0.3,1.1c-0.1,0.4-0.3,0.8-0.5,1.2c-0.2,0.4-0.4,0.8-0.7,1.2
			c-0.3,0.4-0.6,0.7-0.9,1c-0.3,0.3-0.7,0.5-1.1,0.7c-0.4,0.2-0.8,0.3-1.3,0.3c-0.6,0-1-0.1-1.4-0.2c-0.4-0.1-0.7-0.3-1-0.6
			c-0.3-0.3-0.4-0.7-0.6-1.2c-0.1-0.5-0.2-1-0.2-1.7v-6.5l-2.2-0.2v-0.6h3v6.6c0,0.6,0,1.2,0.1,1.6c0,0.5,0.2,0.9,0.3,1.2
			c0.2,0.3,0.4,0.6,0.7,0.7c0.3,0.2,0.7,0.2,1.3,0.2c0.5,0,1-0.1,1.4-0.4c0.4-0.3,0.8-0.6,1.1-1.1c0.3-0.4,0.6-0.9,0.9-1.5
			c0.3-0.6,0.5-1.1,0.6-1.7c0.2-0.6,0.3-1.1,0.4-1.6c0.1-0.5,0.1-0.9,0.1-1.3v-1.9l-2.2-0.2v-0.6h3v10l2,0.2v0.5H55.3z"/>
		<path class="st0" d="M60,79.5v-0.6h2.8v3.9l-0.2,1.3h0.1c0-0.2,0.1-0.5,0.2-0.9c0.1-0.4,0.2-0.7,0.4-1.2c0.2-0.4,0.4-0.8,0.7-1.2
			c0.3-0.4,0.6-0.8,1-1.1c0.4-0.3,0.8-0.6,1.2-0.8s1-0.3,1.6-0.3c0.1,0,0.2,0,0.2,0c0.1,0,0.1,0,0.2,0c0.1,0,0.1,0,0.1,0v4h-0.6
			l-0.2-3.3c-0.5,0.1-1,0.2-1.4,0.5c-0.4,0.3-0.8,0.6-1.2,1.1c-0.4,0.4-0.7,0.9-0.9,1.4s-0.5,1.1-0.7,1.6c-0.2,0.5-0.3,1.1-0.4,1.6
			c-0.1,0.5-0.1,1-0.1,1.3V89l2.4,0.2v0.5H60v-0.5l2-0.2v-9.2L60,79.5z"/>
		<path class="st0" d="M70.8,84.5c0,1.1,0.3,2,0.8,2.8c0.5,0.7,1.2,1.3,2,1.6c0.4,0.1,0.7,0.2,1.1,0.3c0.4,0.1,0.8,0.1,1.2,0.1
			c0.3,0,0.5,0,0.8-0.1c0.3,0,0.6-0.1,0.8-0.2c0.3-0.1,0.5-0.1,0.7-0.2c0.2-0.1,0.4-0.1,0.5-0.2l0.2,0.7c-0.1,0.1-0.2,0.1-0.5,0.2
			c-0.2,0.1-0.5,0.1-0.8,0.2c-0.3,0.1-0.6,0.1-0.9,0.2c-0.3,0-0.7,0.1-1,0.1c-0.9,0-1.7-0.1-2.5-0.3s-1.3-0.6-1.9-1
			c-0.5-0.5-0.9-1.1-1.2-1.8c-0.3-0.7-0.4-1.5-0.4-2.5c0-1.1,0.2-2,0.5-2.7c0.3-0.7,0.7-1.3,1.2-1.8c0.5-0.5,1-0.8,1.6-1
			c0.6-0.2,1.2-0.3,1.7-0.3c0.7,0,1.4,0.1,2,0.3c0.6,0.2,1,0.6,1.4,1c0.4,0.5,0.7,1.1,0.8,1.8c0.2,0.8,0.2,1.7,0.2,2.7H70.8z
			 M74.9,79.3c-0.5,0-1,0.1-1.4,0.2c-0.4,0.1-0.8,0.3-1,0.6c-0.3,0.2-0.5,0.5-0.7,0.8c-0.2,0.3-0.4,0.6-0.5,1
			c-0.1,0.3-0.2,0.7-0.3,1c-0.1,0.3-0.1,0.6-0.1,0.9h7.7c0-1.6-0.3-2.7-0.9-3.4C77,79.7,76.1,79.3,74.9,79.3z"/>
		<path class="st0" d="M89.6,87c0,0.5-0.1,0.9-0.3,1.3c-0.2,0.4-0.5,0.7-0.8,0.9c-0.4,0.2-0.8,0.4-1.3,0.5C86.6,89.9,86,90,85.4,90
			c-0.9,0-1.7-0.1-2.3-0.2s-1-0.2-1.3-0.3V87h0.6l0.2,2c0.1,0,0.2,0.1,0.4,0.1c0.2,0,0.4,0.1,0.7,0.1c0.2,0,0.5,0.1,0.8,0.1
			c0.3,0,0.6,0,0.9,0c0.6,0,1.1,0,1.6-0.1c0.4-0.1,0.8-0.2,1-0.4c0.3-0.2,0.5-0.4,0.6-0.7c0.1-0.3,0.2-0.6,0.2-1
			c0-0.3-0.1-0.6-0.2-0.8c-0.1-0.2-0.3-0.4-0.6-0.6c-0.3-0.2-0.6-0.3-1-0.5c-0.4-0.2-0.8-0.3-1.3-0.5c-0.3-0.1-0.7-0.3-1-0.4
			c-0.3-0.1-0.6-0.2-0.9-0.4c-0.3-0.1-0.6-0.3-0.8-0.4c-0.2-0.2-0.5-0.3-0.6-0.5c-0.2-0.2-0.3-0.4-0.4-0.7c-0.1-0.3-0.2-0.6-0.2-0.9
			c0-0.4,0.1-0.8,0.3-1.1c0.2-0.3,0.4-0.6,0.7-0.9c0.3-0.2,0.7-0.4,1.2-0.6c0.5-0.1,1-0.2,1.6-0.2c0.4,0,0.7,0,1.1,0.1
			c0.3,0,0.7,0.1,0.9,0.1c0.3,0.1,0.5,0.1,0.7,0.2c0.2,0.1,0.3,0.1,0.4,0.1v3.5h-0.6l-0.2-3.1c-0.1,0-0.2,0-0.4-0.1
			c-0.2,0-0.4-0.1-0.6-0.1c-0.2,0-0.5-0.1-0.7-0.1c-0.3,0-0.5,0-0.7,0c-0.4,0-0.8,0-1.1,0.1c-0.4,0.1-0.7,0.2-0.9,0.4
			c-0.3,0.2-0.5,0.4-0.6,0.6c-0.2,0.3-0.2,0.6-0.2,0.9c0,0.4,0.1,0.8,0.3,1c0.2,0.3,0.4,0.5,0.8,0.7c0.3,0.2,0.7,0.3,1.1,0.5
			c0.4,0.1,0.8,0.3,1.2,0.4c0.5,0.2,1,0.4,1.4,0.5c0.5,0.2,0.8,0.4,1.2,0.6c0.3,0.2,0.6,0.5,0.8,0.8C89.5,86.2,89.6,86.6,89.6,87z"
			/>
	</g>
	<rect x="99.7" y="40.3" transform="matrix(0.7071 -0.7071 0.7071 0.7071 -0.4799 85.1132)" class="st0" width="5.7" height="5.7"/>
</g>
<g>
	<path class="st0" d="M35.8,20c-4.5-0.9-9.1-1.7-13.7-1.1c0-0.1,0-0.2-0.1-0.3c2.2-2.1,4.4-4.1,6.6-6.2c0.9,1.7,1.4,1.9,3.1,1.5
		c3.1-0.6,6.2-1.3,9.4-2c1.7-0.3,3.5-0.6,5.2-0.9c-5.2-0.7-10.4-0.8-15.6-0.4c0-0.1-0.1-0.3-0.1-0.4c4-3.4,8-6.8,12.1-10.2
		c0-0.1-0.1-0.2-0.1-0.2c-0.8,0.4-1.6,0.8-2.4,1.2C35.7,3.4,31,5.3,26.6,7.8c-5.4,3.1-10.2,7.1-14.2,12c-0.8,0.9-1.3,2.1-1.8,3.2
		c-0.4,1.1-0.3,2.2,0.8,3c1.1,0.8,2.1,0.4,3.1-0.3c0.8-0.6,1.6-1.3,2.4-2c0.3-0.2,0.6-0.5,0.9-0.6c4.5-0.8,9.1-1.7,13.6-2.5
		C32.8,20.4,34.3,20.2,35.8,20z"/>
	<path class="st0" d="M58.2,6.4c-1.4,0.4-2.7,0.8-3.9,1.4c-10.8,6-18.1,15-23.2,26c-0.9,1.8-1.2,3.7-0.8,5.8
		c1.6-0.8,2.9-1.9,3.7-3.4c4.3-7.6,9.6-14.4,15.3-21c2.1-2.4,4.3-4.8,6.3-7.1"/>
</g>
</svg>
