<?xml version="1.0" encoding="utf-8"?>
<!-- Generator: Adobe Illustrator 22.0.0, SVG Export Plug-In . SVG Version: 6.00 Build 0)  -->
<svg version="1.1" id="Layer_1" xmlns="http://www.w3.org/2000/svg" xmlns:xlink="http://www.w3.org/1999/xlink" x="0px" y="0px"
	 viewBox="0 0 170 60" style="enable-background:new 0 0 170 60;" xml:space="preserve">
<style type="text/css">
	.st0{fill:#574D8E;}
</style>
<g>
	<path class="st0" d="M17.8,3.7c0,0.2-0.1,0.3-0.3,0.3c-0.2,0-0.3-0.1-0.3-0.3c0-1.5-1.2-2.8-2.8-2.8h-4.1c0,3.3,0,15.1,0,15.1
		c0,1.5,1.2,2.8,2.8,2.8c0.2,0,0.3,0.1,0.3,0.3c0,0.2-0.1,0.3-0.3,0.3H6.9c-0.2,0-0.3-0.1-0.3-0.3c0-0.2,0.1-0.3,0.3-0.3
		c1.5,0,2.8-1.2,2.8-2.8c0,0,0-11.8,0-15.1H5.5C4,0.9,2.8,2.1,2.8,3.7C2.8,3.8,2.6,4,2.4,4C2.3,4,2.1,3.8,2.1,3.7V0.6
		c0-0.2,0.1-0.3,0.3-0.3h15.1c0.2,0,0.3,0.1,0.3,0.3V3.7z"/>
	<path class="st0" d="M29.9,0.2c1.3,0,2.5,0.6,3.4,1.5c0.9,0.9,1.4,2.1,1.4,3.4c0,1.3-0.5,2.5-1.4,3.4c-0.7,0.8-1.7,1.3-2.8,1.4
		l2.5,6.4c0.6,1.6,1.4,2.3,3.2,2.3c0.2,0,0.3,0.1,0.3,0.3c0,0.2-0.1,0.3-0.3,0.3h-5.7c-0.2,0-0.3-0.1-0.3-0.3c0-0.2,0.1-0.3,0.3-0.3
		c0.7-0.1,1.3-0.1,1.7-0.6c0.3-0.4,0.5-0.7,0.2-1.6c-0.7-2.2-1.7-4.4-2.6-6.5h-6.1V16c0,1.5,1.2,2.8,2.8,2.8c0.2,0,0.3,0.1,0.3,0.3
		c0,0.2-0.1,0.3-0.3,0.3h-6.2c-0.2,0-0.3-0.1-0.3-0.3c0-0.2,0.1-0.3,0.3-0.3c1.5,0,2.8-1.2,2.8-2.8V3.6c0-1.5-1.2-2.8-2.8-2.8
		c-0.2,0-0.3-0.1-0.3-0.3c0-0.2,0.1-0.3,0.3-0.3H29.9z M23.8,9.5h6.1c2.3,0,4.2-2,4.2-4.3c0-2.3-1.8-4.3-4.2-4.3h-3.3
		c-1.5,0-2.8,1.2-2.8,2.8V9.5z"/>
	<path class="st0" d="M53.5,19.1c0,0.2-0.1,0.3-0.3,0.3H39.1c-0.2,0-0.3-0.1-0.3-0.3c0-0.2,0.1-0.3,0.3-0.3c1.5,0,2.8-1.2,2.8-2.8
		V3.7c0-1.5-1.2-2.8-2.8-2.8c-0.2,0-0.3-0.1-0.3-0.3c0-0.2,0.1-0.3,0.3-0.3h14.1c0.2,0,0.3,0.1,0.3,0.3v3.1c0,0.2-0.1,0.3-0.3,0.3
		c-0.2,0-0.3-0.1-0.3-0.3c0-1.5-1.2-2.8-2.8-2.8h-4.8c-1.5,0-2.8,1.3-2.8,2.8v5.8h6.1c1.8,0,2.1-1.7,2.1-2.8c0-0.2,0.1-0.3,0.3-0.3
		c0.2,0,0.3,0.1,0.3,0.3V13c0,0.2-0.1,0.3-0.3,0.3c-0.2,0-0.3-0.1-0.3-0.3c0-1-0.3-2.8-2.1-2.8h-6.1V16c0,1.5,1.2,2.8,2.8,2.8h4.8
		c1.5,0,2.8-1.2,2.8-2.7c0-0.2,0.1-0.3,0.3-0.3c0.2,0,0.3,0.1,0.3,0.3V19.1z"/>
	<path class="st0" d="M70.5,19.1c0,0.2-0.1,0.3-0.3,0.3H56c-0.2,0-0.3-0.1-0.3-0.3c0-0.2,0.1-0.3,0.3-0.3c1.5,0,2.8-1.2,2.8-2.8V3.7
		c0-1.5-1.2-2.8-2.8-2.8c-0.2,0-0.3-0.1-0.3-0.3c0-0.2,0.1-0.3,0.3-0.3h14.1c0.2,0,0.3,0.1,0.3,0.3v3.1c0,0.2-0.1,0.3-0.3,0.3
		c-0.2,0-0.3-0.1-0.3-0.3c0-1.5-1.2-2.8-2.8-2.8h-4.8c-1.5,0-2.8,1.3-2.8,2.8v5.8h6.1c1.8,0,2.1-1.7,2.1-2.8c0-0.2,0.1-0.3,0.3-0.3
		c0.2,0,0.3,0.1,0.3,0.3V13c0,0.2-0.1,0.3-0.3,0.3c-0.2,0-0.3-0.1-0.3-0.3c0-1-0.3-2.8-2.1-2.8h-6.1V16c0,1.5,1.2,2.8,2.8,2.8H67
		c1.5,0,2.8-1.2,2.8-2.7c0-0.2,0.1-0.3,0.3-0.3c0.2,0,0.3,0.1,0.3,0.3V19.1z"/>
	<path class="st0" d="M79.2,19.4h-3.1H73c-0.2,0-0.3-0.1-0.3-0.3c0-0.2,0.1-0.3,0.3-0.3c1.5,0,2.8-1.2,2.8-2.8V3.7
		c0-1.5-1.2-2.8-2.8-2.8c-0.2,0-0.3-0.1-0.3-0.3c0-0.2,0.1-0.3,0.3-0.3h3.1h3.1h3.3c1.3,0,2.5,0.6,3.4,1.5c0.9,0.9,1.4,2.2,1.4,3.5
		c0,1.3-0.5,2.5-1.4,3.4c-0.5,0.5-1.1,0.9-1.8,1.2c0.7,0.2,1.3,0.6,1.8,1.2c0.9,0.9,1.4,2.2,1.4,3.5c0,1.3-0.5,2.5-1.4,3.4
		c-0.9,0.9-2.1,1.5-3.4,1.5H79.2z M82.6,0.9h-3.3c-1.5,0-2.8,1.2-2.8,2.8v5.8h6.1c2.3,0,4.2-2,4.2-4.3C86.7,2.9,84.9,0.9,82.6,0.9z
		 M82.6,10.2h-6.1V16c0,1.5,1.2,2.8,2.8,2.8h3.3c2.3,0,4.2-2,4.2-4.3C86.7,12.2,84.9,10.2,82.6,10.2z"/>
	<path class="st0" d="M99.4,0.2c1.3,0,2.5,0.6,3.4,1.5c0.9,0.9,1.4,2.1,1.4,3.4c0,1.3-0.5,2.5-1.4,3.4c-0.7,0.8-1.7,1.3-2.8,1.4
		l2.5,6.4c0.6,1.6,1.4,2.3,3.2,2.3c0.2,0,0.3,0.1,0.3,0.3c0,0.2-0.1,0.3-0.3,0.3h-5.7c-0.2,0-0.3-0.1-0.3-0.3c0-0.2,0.1-0.3,0.3-0.3
		c0.7-0.1,1.3-0.1,1.7-0.6c0.3-0.4,0.5-0.7,0.2-1.6c-0.7-2.2-1.7-4.4-2.6-6.5h-6.1V16c0,1.5,1.2,2.8,2.8,2.8c0.2,0,0.3,0.1,0.3,0.3
		c0,0.2-0.1,0.3-0.3,0.3h-6.2c-0.2,0-0.3-0.1-0.3-0.3c0-0.2,0.1-0.3,0.3-0.3c1.5,0,2.8-1.2,2.8-2.8V3.6c0-1.5-1.2-2.8-2.8-2.8
		c-0.2,0-0.3-0.1-0.3-0.3c0-0.2,0.1-0.3,0.3-0.3H99.4z M93.3,9.5h6.1c2.3,0,4.2-2,4.2-4.3c0-2.3-1.8-4.3-4.2-4.3h-3.3
		c-1.5,0-2.8,1.2-2.8,2.8V9.5z"/>
	<path class="st0" d="M112.1,16c0,1.5,1.2,2.8,2.8,2.8c0.2,0,0.3,0.1,0.3,0.3c0,0.2-0.1,0.3-0.3,0.3h-6.2c-0.2,0-0.3-0.1-0.3-0.3
		c0-0.2,0.1-0.3,0.3-0.3c1.5,0,2.8-1.2,2.8-2.8V3.7c0-1.5-1.2-2.8-2.8-2.8c-0.2,0-0.3-0.1-0.3-0.3c0-0.2,0.1-0.3,0.3-0.3h6.2
		c0.2,0,0.3,0.1,0.3,0.3c0,0.2-0.1,0.3-0.3,0.3c-1.5,0-2.8,1.3-2.8,2.8V16z"/>
	<path class="st0" d="M132,9.9c0,5.3-2.8,9.6-8.1,9.6h-6.2c-0.2,0-0.3-0.1-0.3-0.3c0-0.2,0.1-0.3,0.3-0.3c1.5,0,2.8-1.2,2.8-2.8V3.6
		c0-1.5-1.2-2.8-2.8-2.8c-0.2,0-0.3-0.1-0.3-0.3c0-0.2,0.1-0.3,0.3-0.3c7.2,0,6,0,6.2,0C129.2,0.2,132,4.6,132,9.9z M131.4,9.9
		c0-4.9-2.5-9-7.5-9c-1.5,0-2.8,0.7-2.8,2.8v6.5V16c0,1.6,1.2,2.8,2.8,2.8C128.9,18.8,131.4,14.8,131.4,9.9z"/>
	<path class="st0" d="M134.3,9.9c0-5,2.6-9.9,8.2-9.9c1.6,0,3.1,0.4,4.4,1.4c0.3,0.2,0.6,0.5,0.9,0.7c0.1,0.1,0.3,0.2,0.5,0.2
		c0.8,0,0.9-1.3,0.9-2c0-0.2,0.1-0.3,0.3-0.3c0.2,0,0.3,0.1,0.3,0.3v6.2c0,0.2-0.2,0.3-0.3,0.3c-0.2,0-0.3-0.1-0.3-0.3
		c0-0.6-0.1-1.2-0.4-1.8c-1.2-2.6-3.6-4-6.4-4c-5.2,0-7.5,4.5-7.5,9.2c0,4.6,2.3,9.2,7.5,9.2c3.2,0,6.8-1.2,6.8-4.6
		c0-1.5-1.2-2.8-2.8-2.8c-0.2,0-0.3-0.1-0.3-0.3c0-0.2,0.1-0.3,0.3-0.3h6.2c0.2,0,0.3,0.1,0.3,0.3c0,0.2-0.1,0.3-0.3,0.3
		c-1.5,0-2.8,1.2-2.8,2.8c0,3.8-3.9,5.3-7.4,5.3C136.9,19.7,134.3,14.8,134.3,9.9z"/>
	<path class="st0" d="M169.9,19.1c0,0.2-0.1,0.3-0.3,0.3h-14.1c-0.2,0-0.3-0.1-0.3-0.3c0-0.2,0.1-0.3,0.3-0.3c1.5,0,2.8-1.2,2.8-2.8
		V3.7c0-1.5-1.2-2.8-2.8-2.8c-0.2,0-0.3-0.1-0.3-0.3c0-0.2,0.1-0.3,0.3-0.3h14.1c0.2,0,0.3,0.1,0.3,0.3v3.1c0,0.2-0.1,0.3-0.3,0.3
		c-0.2,0-0.3-0.1-0.3-0.3c0-1.5-1.2-2.8-2.8-2.8h-4.8c-1.5,0-2.8,1.3-2.8,2.8v5.8h6.1c1.8,0,2.1-1.7,2.1-2.8c0-0.2,0.1-0.3,0.3-0.3
		c0.2,0,0.3,0.1,0.3,0.3V13c0,0.2-0.1,0.3-0.3,0.3c-0.2,0-0.3-0.1-0.3-0.3c0-1-0.3-2.8-2.1-2.8h-6.1V16c0,1.5,1.2,2.8,2.8,2.8h4.8
		c1.5,0,2.8-1.2,2.8-2.7c0-0.2,0.1-0.3,0.3-0.3c0.2,0,0.3,0.1,0.3,0.3V19.1z"/>
	<g>
		<path class="st0" d="M9.2,48.6L6,59.7c0,0.1-0.1,0.1-0.2,0.1c-0.1,0-0.2-0.1-0.2-0.1L2.4,48.6C2.1,47.5,1.4,47,0.2,47
			C0.1,47,0,46.9,0,46.7c0-0.1,0.1-0.2,0.2-0.2h3.9c0.1,0,0.2,0.1,0.2,0.2c0,0.1-0.1,0.2-0.2,0.2c-0.9,0.1-1.7,0.5-1.4,1.5l3,10.5
			l3-10.5c0.3-1-0.5-1.4-1.4-1.5c-0.1,0-0.2-0.1-0.2-0.2c0-0.1,0.1-0.2,0.2-0.2h3.9c0.1,0,0.2,0.1,0.2,0.2c0,0.1-0.1,0.2-0.2,0.2
			C10.1,47,9.5,47.5,9.2,48.6z"/>
		<path class="st0" d="M23.3,59.6c0,0.1-0.1,0.2-0.2,0.2h-9.8c-0.1,0-0.2-0.1-0.2-0.2c0-0.1,0.1-0.2,0.2-0.2c1.1,0,1.9-0.9,1.9-1.9
			v-8.6c0-1.1-0.9-1.9-1.9-1.9c-0.1,0-0.2-0.1-0.2-0.2s0.1-0.2,0.2-0.2h9.8c0.1,0,0.2,0.1,0.2,0.2v2.1c0,0.1-0.1,0.2-0.2,0.2
			c-0.1,0-0.2-0.1-0.2-0.2c0-1-0.9-1.9-1.9-1.9h-3.3c-1.1,0-1.9,0.9-1.9,1.9v4h4.2c1.2,0,1.4-1.2,1.4-1.9c0-0.1,0.1-0.2,0.2-0.2
			c0.1,0,0.2,0.1,0.2,0.2v4.3c0,0.1-0.1,0.2-0.2,0.2c-0.1,0-0.2-0.1-0.2-0.2c0-0.7-0.2-1.9-1.4-1.9h-4.2v4.1c0,1,0.9,1.9,1.9,1.9
			h3.3c1.1,0,1.9-0.8,1.9-1.9c0-0.1,0.1-0.2,0.2-0.2c0.1,0,0.2,0.1,0.2,0.2V59.6z"/>
		<path class="st0" d="M34.5,48.9c0-1.1-0.9-1.9-1.9-1.9c-0.1,0-0.2-0.1-0.2-0.2c0-0.1,0.1-0.2,0.2-0.2h4.3c0.1,0,0.2,0.1,0.2,0.2
			c0,0.1-0.1,0.2-0.2,0.2c-1.1,0-1.9,0.8-1.9,1.9v10.8c0,0.1-0.1,0.2-0.2,0.2c-0.1,0-0.1,0-0.2-0.1l-7.1-12.2v9.9
			c0,1.1,0.9,1.9,1.9,1.9c0.1,0,0.2,0.1,0.2,0.2c0,0.1-0.1,0.2-0.2,0.2h-4.3c-0.1,0-0.2-0.1-0.2-0.2c0-0.1,0.1-0.2,0.2-0.2
			c1.1,0,1.9-0.8,1.9-1.9v-8.6c0-1.1-0.9-1.9-1.9-1.9c-0.1,0-0.2-0.1-0.2-0.2c0-0.1,0.1-0.2,0.2-0.2h2.1c0.1,0,0.1,0.1,0.2,0.1
			l7.1,12.2V48.9z"/>
		<path class="st0" d="M49.5,48.9c0,0.1-0.1,0.2-0.2,0.2c-0.1,0-0.2-0.1-0.2-0.2c0-1-0.9-1.9-1.9-1.9h-2.8c0,2.3,0,10.5,0,10.5
			c0,1,0.9,1.9,1.9,1.9c0.1,0,0.2,0.1,0.2,0.2c0,0.1-0.1,0.2-0.2,0.2h-4.3c-0.1,0-0.2-0.1-0.2-0.2c0-0.1,0.1-0.2,0.2-0.2
			c1.1,0,1.9-0.9,1.9-1.9c0,0,0-8.2,0-10.5H41c-1,0-1.9,0.9-1.9,1.9c0,0.1-0.1,0.2-0.2,0.2c-0.1,0-0.2-0.1-0.2-0.2v-2.1
			c0-0.1,0.1-0.2,0.2-0.2h10.5c0.1,0,0.2,0.1,0.2,0.2V48.9z"/>
		<path class="st0" d="M63.4,46.8c0,0.1-0.1,0.2-0.2,0.2c-1.1,0-1.9,0.9-1.9,1.9V56c0,2.2-1.8,4-4,4c-2.2,0-4-1.8-4-4v-7.1
			c0-1.1-0.9-1.9-1.9-1.9c-0.1,0-0.2-0.1-0.2-0.2c0-0.1,0.1-0.2,0.2-0.2h4.3c0.1,0,0.2,0.1,0.2,0.2c0,0.1-0.1,0.2-0.2,0.2
			c-1,0-1.9,0.9-1.9,1.9V56c0,2,1.6,3.5,3.5,3.5c2,0,3.6-1.6,3.6-3.6v-7.1c0-1.1-0.9-1.9-1.9-1.9c-0.1,0-0.2-0.1-0.2-0.2
			c0-0.1,0.1-0.2,0.2-0.2h4.3C63.3,46.6,63.4,46.6,63.4,46.8z"/>
		<path class="st0" d="M71.7,46.5c0.9,0,1.7,0.4,2.3,1c0.6,0.6,1,1.5,1,2.4c0,0.9-0.3,1.7-1,2.4c-0.5,0.5-1.2,0.9-1.9,1l1.8,4.4
			c0.4,1.1,1,1.6,2.2,1.6c0.1,0,0.2,0.1,0.2,0.2c0,0.1-0.1,0.2-0.2,0.2h-3.9c-0.1,0-0.2-0.1-0.2-0.2c0-0.1,0.1-0.2,0.2-0.2
			c0.5-0.1,0.9-0.1,1.2-0.4c0.2-0.3,0.3-0.5,0.1-1.1c-0.5-1.5-1.1-3-1.8-4.5h-4.2v4.1c0,1.1,0.9,1.9,1.9,1.9c0.1,0,0.2,0.1,0.2,0.2
			c0,0.1-0.1,0.2-0.2,0.2h-4.3c-0.1,0-0.2-0.1-0.2-0.2c0-0.1,0.1-0.2,0.2-0.2c1.1,0,1.9-0.8,1.9-1.9v-8.6c0-1-0.9-1.9-1.9-1.9
			c-0.1,0-0.2-0.1-0.2-0.2c0-0.1,0.1-0.2,0.2-0.2H71.7z M67.5,52.9h4.2c1.6,0,2.9-1.4,2.9-3s-1.3-3-2.9-3h-2.3
			c-1.1,0-1.9,0.9-1.9,1.9V52.9z"/>
		<path class="st0" d="M88.1,59.6c0,0.1-0.1,0.2-0.2,0.2h-9.8c-0.1,0-0.2-0.1-0.2-0.2c0-0.1,0.1-0.2,0.2-0.2c1.1,0,1.9-0.9,1.9-1.9
			v-8.6c0-1.1-0.9-1.9-1.9-1.9c-0.1,0-0.2-0.1-0.2-0.2s0.1-0.2,0.2-0.2h9.8c0.1,0,0.2,0.1,0.2,0.2v2.1c0,0.1-0.1,0.2-0.2,0.2
			c-0.1,0-0.2-0.1-0.2-0.2c0-1-0.9-1.9-1.9-1.9h-3.3c-1.1,0-1.9,0.9-1.9,1.9v4h4.2c1.2,0,1.4-1.2,1.4-1.9c0-0.1,0.1-0.2,0.2-0.2
			c0.1,0,0.2,0.1,0.2,0.2v4.3c0,0.1-0.1,0.2-0.2,0.2c-0.1,0-0.2-0.1-0.2-0.2c0-0.7-0.2-1.9-1.4-1.9h-4.2v4.1c0,1,0.9,1.9,1.9,1.9
			h3.3c1.1,0,1.9-0.8,1.9-1.9c0-0.1,0.1-0.2,0.2-0.2c0.1,0,0.2,0.1,0.2,0.2V59.6z"/>
		<path class="st0" d="M93.4,46.5c2,0,2.6,1.3,3.2,1.3c0.4,0,0.5-0.8,0.5-1.1c0-0.1,0.1-0.2,0.2-0.2c0.1,0,0.2,0.1,0.2,0.2v4.3
			c0,0.1-0.1,0.2-0.2,0.2c-0.1,0-0.2-0.1-0.2-0.2c0-2-1.6-4.1-3.6-4.1c-1.7,0-3.1,0.7-3.1,2.7c0,4.7,7.6,1.7,7.6,7
			c0,2-2,3.2-3.7,3.2c-2,0-3.1-1.3-3.7-1.3c-0.4,0-0.5,0.8-0.5,1.1c0,0.1-0.1,0.3-0.2,0.3c-0.1,0-0.2-0.1-0.2-0.2v-4.3
			c0-0.1,0.1-0.2,0.2-0.2c0.1,0,0.2,0.1,0.2,0.2c0,2,2.1,4.1,4.1,4.1c1.5,0,3.3-1,3.3-2.7c0-4.8-7.6-1.9-7.6-7
			C89.9,47.4,91.7,46.5,93.4,46.5z"/>
	</g>
	<rect y="33.7" class="st0" width="170" height="0.3"/>
</g>
</svg>
