<svg id="Layer_1" data-name="Layer 1" xmlns="http://www.w3.org/2000/svg" viewBox="0 0 160 50.08"><defs><style>.cls-1,.cls-2{fill:#333363;}.cls-2{font-size:15.08px;font-family:HiraKakuPro-W6-83pv-RKSJ-H, Hiragino Kaku Gothic Pro;}</style></defs><title>logo</title><path class="cls-1" d="M21,2.88v4.8c0,.2-.1.3-.2.3a.27.27,0,0,1-.3-.3,1.69,1.69,0,0,0-.2-.5,9.22,9.22,0,0,0-.5-.8c-.2-.3-.5-.6-.8-1a10.63,10.63,0,0,0-1.1-.9,6.11,6.11,0,0,0-1.4-.7,4.67,4.67,0,0,0-1.7-.3,1.48,1.48,0,0,0-.7.1,1.38,1.38,0,0,0-.4.3.76.76,0,0,0-.2.5c0,.2-.1.4-.1.6v17.6a2.5,2.5,0,0,0,.3,1.3,3,3,0,0,0,.8.8,3.55,3.55,0,0,0,.9.4,2,2,0,0,0,.7.1.35.35,0,0,1,.2.1c.1.1.1.1.1.2s0,.1-.1.2-.1.1-.3.1H5a.37.37,0,0,1-.3-.1c-.1-.1-.1-.1-.1-.2s0-.1.1-.2.1-.1.2-.1a5.64,5.64,0,0,1,.7-.1,3.55,3.55,0,0,0,.9-.4,3,3,0,0,0,.8-.8,2.5,2.5,0,0,0,.3-1.3V4.78A2.35,2.35,0,0,0,7.4,4a1,1,0,0,0-.4-.5,2,2,0,0,0-.9-.2,4.67,4.67,0,0,0-1.7.3,6.11,6.11,0,0,0-1.4.7,9,9,0,0,0-1,.9,3.92,3.92,0,0,0-.8,1A9.22,9.22,0,0,0,.7,7a1.69,1.69,0,0,0-.2.5q-.15.3-.3.3c-.2,0-.2-.1-.2-.3V2.68c0-.2.1-.3.4-.3H20.6C20.9,2.58,21,2.68,21,2.88Z"/><path class="cls-1" d="M29.9,9.88a3.73,3.73,0,0,1,1.2.2,2.18,2.18,0,0,1,.8.5,1.79,1.79,0,0,1,.5.7,2.77,2.77,0,0,1,.1.9,1.73,1.73,0,0,1-.5,1.3,2.17,2.17,0,0,1-1.4.5,3.09,3.09,0,0,1-1.1-.2c-.3-.2-.5-.3-.6-.5a1.21,1.21,0,0,0-.5-.5c-.2-.2-.3-.2-.6-.2a1.42,1.42,0,0,0-.6.2,1.83,1.83,0,0,0-.6.8,13.08,13.08,0,0,0-.5,1.5,9,9,0,0,0-.2,2.5v6a3.09,3.09,0,0,0,.2,1.1c.2.3.3.5.5.6l.6.3a.76.76,0,0,0,.4.1.35.35,0,0,1,.2.1c0,.1.1.1,0,.2s0,.1-.1.2-.1.1-.2.1H19.3c-.1,0-.2,0-.2-.1s-.1-.1-.1-.2v-.2c0-.1.1-.1.2-.1a.76.76,0,0,0,.4-.1c.2-.1.4-.1.6-.3a1,1,0,0,0,.5-.6,1.82,1.82,0,0,0,.2-1.1v-9.8c0-.2-.1-.2-.2-.3a.77.77,0,0,1-.3-.1,4.33,4.33,0,0,0-.5-.1,4.33,4.33,0,0,1-.5-.1.44.44,0,0,1-.3-.1c-.2,0-.2-.1-.2-.2s.1-.2.3-.3a11.31,11.31,0,0,0,1.5-.4c.5-.2,1.1-.4,1.6-.6s1-.5,1.5-.7a14.8,14.8,0,0,0,1.3-.8.37.37,0,0,1,.3-.1c.1,0,.2.1.2.3v2.5a4.73,4.73,0,0,1,1.6-2A5.1,5.1,0,0,1,29.9,9.88Z"/><path class="cls-1" d="M37.7,16.78a.27.27,0,0,0-.3.3,12.62,12.62,0,0,0,.3,3,6.67,6.67,0,0,0,.9,2.1,4.43,4.43,0,0,0,1.5,1.2,4.64,4.64,0,0,0,2.1.4,7.77,7.77,0,0,0,1.6-.2,8.34,8.34,0,0,0,1.2-.4,5.58,5.58,0,0,0,.8-.5c.2-.2.4-.2.5-.3s.3-.1.4,0,.1.2,0,.4-.1.2-.2.4-.3.4-.5.7a3.63,3.63,0,0,1-.9.8,5,5,0,0,1-1.2.8c-.5.2-1,.4-1.6.6a6.82,6.82,0,0,1-2.1.2,9.59,9.59,0,0,1-3.1-.5,7.76,7.76,0,0,1-2.4-1.6,5.79,5.79,0,0,1-1.5-2.5,9,9,0,0,1-.5-3.4,8,8,0,0,1,.7-3.6,7.11,7.11,0,0,1,1.8-2.6,6.69,6.69,0,0,1,2.5-1.6,7.06,7.06,0,0,1,2.8-.6,6.05,6.05,0,0,1,2.4.4,5.24,5.24,0,0,1,1.8,1,4.89,4.89,0,0,1,1.2,1.3,10.93,10.93,0,0,1,.8,1.5,7.37,7.37,0,0,1,.4,1.4,4.14,4.14,0,0,1,.1,1c0,.1,0,.2-.1.2s-.2.1-.3.1Zm-.2-1.2c0,.2,0,.2.2.2h4a1.42,1.42,0,0,0,.6-.2,1,1,0,0,0,.3-.8,5.74,5.74,0,0,0-.1-1.2,4.23,4.23,0,0,0-.4-1.2,3.92,3.92,0,0,0-.8-1,1.5,1.5,0,0,0-1.1-.4,1.22,1.22,0,0,0-.9.3,2.34,2.34,0,0,0-.7.7,9.29,9.29,0,0,0-.5,1c-.1.4-.2.7-.3,1.1s-.1.7-.2,1A.75.75,0,0,1,37.5,15.58Z"/><path class="cls-1" d="M53.5,16.78a.27.27,0,0,0-.3.3,12.62,12.62,0,0,0,.3,3,6.67,6.67,0,0,0,.9,2.1,4.43,4.43,0,0,0,1.5,1.2,4.64,4.64,0,0,0,2.1.4,7.77,7.77,0,0,0,1.6-.2,8.34,8.34,0,0,0,1.2-.4,5.58,5.58,0,0,0,.8-.5c.2-.2.4-.2.5-.3s.3-.1.4,0,.1.2,0,.4-.1.2-.2.4-.3.4-.5.7a3.63,3.63,0,0,1-.9.8,5,5,0,0,1-1.2.8c-.5.2-1,.4-1.6.6a6.82,6.82,0,0,1-2.1.2,9.59,9.59,0,0,1-3.1-.5,7.76,7.76,0,0,1-2.4-1.6,5.79,5.79,0,0,1-1.5-2.5,9,9,0,0,1-.5-3.4,8,8,0,0,1,.7-3.6,7.11,7.11,0,0,1,1.8-2.6,6.69,6.69,0,0,1,2.5-1.6,7.06,7.06,0,0,1,2.8-.6,6.05,6.05,0,0,1,2.4.4,5.24,5.24,0,0,1,1.8,1,4.89,4.89,0,0,1,1.2,1.3,10.93,10.93,0,0,1,.8,1.5,7.37,7.37,0,0,1,.4,1.4,4.14,4.14,0,0,1,.1,1c0,.1,0,.2-.1.2s-.2.1-.3.1Zm-.2-1.2c0,.2,0,.2.2.2h4a1.42,1.42,0,0,0,.6-.2,1,1,0,0,0,.3-.8,5.74,5.74,0,0,0-.1-1.2,4.23,4.23,0,0,0-.4-1.2,3.92,3.92,0,0,0-.8-1A1.5,1.5,0,0,0,56,11a1.22,1.22,0,0,0-.9.3,2.34,2.34,0,0,0-.7.7,9.29,9.29,0,0,0-.5,1c-.1.4-.2.7-.3,1.1s-.1.7-.2,1A1.09,1.09,0,0,0,53.3,15.58Z"/><path class="cls-1" d="M79.1,13.88a7,7,0,0,1,2.3,1,6.73,6.73,0,0,1,1.5,1.4,3.63,3.63,0,0,1,.7,1.7,11,11,0,0,1,.2,1.8,6.72,6.72,0,0,1-.4,2.4,5.58,5.58,0,0,1-1.4,2,8,8,0,0,1-2.6,1.4,11.55,11.55,0,0,1-3.9.5H64.2a.37.37,0,0,1-.3-.1c-.1-.1-.1-.1-.1-.2s0-.1.1-.2.1-.1.2-.1a5.64,5.64,0,0,1,.7-.1,3.55,3.55,0,0,0,.9-.4,3,3,0,0,0,.8-.8,2.5,2.5,0,0,0,.3-1.3v-17a2.5,2.5,0,0,0-.3-1.3,3,3,0,0,0-.8-.8,3.55,3.55,0,0,0-.9-.4,6.37,6.37,0,0,1-.7-.2c-.1,0-.2,0-.2-.1s-.1-.1-.1-.2,0-.1.1-.2.1-.1.3-.1H76.3a8.72,8.72,0,0,1,3,.4,5.61,5.61,0,0,1,2,1.2A4.18,4.18,0,0,1,82.4,6a7.8,7.8,0,0,1,.3,2.2,8.75,8.75,0,0,1-.2,1.6,4.71,4.71,0,0,1-.6,1.5,6.73,6.73,0,0,1-1.1,1.4,7.12,7.12,0,0,1-1.7,1.1.1.1,0,0,0-.1.1C79,13.78,79.1,13.88,79.1,13.88Zm-6.5-1.5a1.14,1.14,0,0,0,.3.8,1,1,0,0,0,.8.3,4.4,4.4,0,0,0,1-.2,1.89,1.89,0,0,0,1-.8,5.39,5.39,0,0,0,.8-1.7A10.88,10.88,0,0,0,76.8,8a7.57,7.57,0,0,0-.1-1.5,3.19,3.19,0,0,0-.3-1.4,2.55,2.55,0,0,0-.7-1,1.59,1.59,0,0,0-1.2-.4,2.51,2.51,0,0,0-1,.2,1.34,1.34,0,0,0-.6.7,10.38,10.38,0,0,0-.3,1.2c0,.5-.1,1-.1,1.6v5ZM74.9,25a1.8,1.8,0,0,0,1.1-.3,2,2,0,0,0,.8-.8,4.67,4.67,0,0,0,.5-1,5,5,0,0,0,.2-1.2c0-.4.1-.8.1-1.1v-.9a12.73,12.73,0,0,0-.2-2.2,3.39,3.39,0,0,0-.6-1.5,2.36,2.36,0,0,0-.8-.9,9.22,9.22,0,0,0-.8-.5,3.09,3.09,0,0,0-.8-.2h-.6a1,1,0,0,0-1.1,1.1v5.4a9.15,9.15,0,0,0,.1,1.7,5,5,0,0,0,.4,1.3,1.85,1.85,0,0,0,.7.8C74,24.88,74.4,25,74.9,25Z"/><path class="cls-1" d="M95.5,9.88a3.73,3.73,0,0,1,1.2.2,2.18,2.18,0,0,1,.8.5,1.79,1.79,0,0,1,.5.7,2.77,2.77,0,0,1,.1.9,1.73,1.73,0,0,1-.5,1.3,2.17,2.17,0,0,1-1.4.5,3.09,3.09,0,0,1-1.1-.2c-.3-.2-.5-.3-.6-.5s-.3-.4-.5-.5-.3-.2-.6-.2a1.42,1.42,0,0,0-.6.2,1.83,1.83,0,0,0-.6.8,13.08,13.08,0,0,0-.5,1.5,15.74,15.74,0,0,0-.2,2.5v6a3.09,3.09,0,0,0,.2,1.1c.2.3.3.5.5.6l.6.3a.76.76,0,0,0,.4.1.35.35,0,0,1,.2.1c0,.1.1.1,0,.2s0,.1-.1.2-.1.1-.2.1h-8c-.1,0-.2,0-.2-.1s-.1-.1-.1-.2v-.2c0-.1.1-.1.2-.1a.76.76,0,0,0,.4-.1c.2-.1.4-.1.6-.3a1,1,0,0,0,.5-.6,1.82,1.82,0,0,0,.2-1.1v-9.8c0-.2-.1-.2-.2-.3a.77.77,0,0,1-.3-.1,4.33,4.33,0,0,0-.5-.1,4.33,4.33,0,0,1-.5-.1.44.44,0,0,1-.3-.1c-.2,0-.2-.1-.2-.2s.1-.2.3-.3a11.31,11.31,0,0,0,1.5-.4c.5-.2,1.1-.4,1.6-.6s1-.5,1.5-.7a14.8,14.8,0,0,0,1.3-.8.37.37,0,0,1,.3-.1c.1,0,.2.1.2.3v2.5a4.73,4.73,0,0,1,1.6-2A4.5,4.5,0,0,1,95.5,9.88Z"/><path class="cls-1" d="M105.1,23.28a1.8,1.8,0,0,0,.3,1.1,4.35,4.35,0,0,0,.6.7,3.07,3.07,0,0,0,1.2.4.35.35,0,0,1,.2.1c0,.1.1.1,0,.2s0,.1-.1.2-.1.1-.2.1H98.4c-.1,0-.2,0-.2-.1s-.1-.1-.1-.2v-.2c0-.1.1-.1.2-.1a1.09,1.09,0,0,0,.5-.1c.2-.1.5-.2.7-.3a4.35,4.35,0,0,0,.6-.7,2,2,0,0,0,.3-1.1v-9.6c0-.2-.1-.2-.2-.3a.77.77,0,0,1-.3-.1,4.33,4.33,0,0,0-.5-.1,4.33,4.33,0,0,1-.5-.1.44.44,0,0,1-.3-.1c-.2,0-.2-.1-.2-.2s.1-.2.3-.3a11.31,11.31,0,0,0,1.5-.4c.5-.2,1.1-.4,1.6-.6s1-.5,1.5-.7a14.8,14.8,0,0,0,1.3-.8.37.37,0,0,1,.3-.1c.1,0,.2.1.2.3Z"/><path class="cls-1" d="M127.2,25.48a.35.35,0,0,1,.2.1c0,.1.1.1,0,.2s0,.1-.1.2-.1.1-.2.1h-6.3a.35.35,0,0,1-.4-.4v-1.6c0-.1,0-.1-.1-.2s-.1,0-.2.1a3.81,3.81,0,0,0-.5.6,4.36,4.36,0,0,1-1,.8,4.79,4.79,0,0,1-1.6.7,6.87,6.87,0,0,1-2.2.3,6.05,6.05,0,0,1-2.4-.4,5.53,5.53,0,0,1-3-2.4,8.86,8.86,0,0,1-.8-1.7,11.63,11.63,0,0,1-.4-1.8,9.7,9.7,0,0,1-.1-1.7,12.3,12.3,0,0,1,.5-3.5,6.91,6.91,0,0,1,1.4-2.7,5.27,5.27,0,0,1,2.4-1.7,9,9,0,0,1,3.4-.6,10.89,10.89,0,0,1,1.9.1,13,13,0,0,1,1.3.3,6.89,6.89,0,0,1,.8.3,1.24,1.24,0,0,1,.3.2c.1,0,.1.1.2,0a.1.1,0,0,0,.1-.1v-7c0-.2-.1-.2-.2-.3a.77.77,0,0,1-.3-.1,4.33,4.33,0,0,0-.5-.1,4.33,4.33,0,0,1-.5-.1.44.44,0,0,1-.3-.1c-.2,0-.2-.1-.2-.2s.1-.2.3-.3a11.31,11.31,0,0,0,1.5-.4c.5-.2,1.1-.4,1.6-.6s1-.5,1.5-.7a14.8,14.8,0,0,0,1.3-.8.37.37,0,0,1,.3-.1c.1,0,.2.1.2.3v23a1.8,1.8,0,0,0,.3,1.1,4.35,4.35,0,0,0,.6.7,1.08,1.08,0,0,0,.7.3C127,25.38,127.1,25.48,127.2,25.48Zm-6.8-9.8a3.75,3.75,0,0,0-.1-1,3.55,3.55,0,0,0-.2-1,3,3,0,0,0-.4-1l-.6-.9a2.36,2.36,0,0,0-.9-.6A2.17,2.17,0,0,0,117,11a3.45,3.45,0,0,0-1.8.5,3.33,3.33,0,0,0-1.2,1.4,10.33,10.33,0,0,0-.7,2.1,21.3,21.3,0,0,0-.2,2.7v1a7.08,7.08,0,0,0,.1,1.4l.3,1.5a3.51,3.51,0,0,0,.6,1.4,4.74,4.74,0,0,0,1,1,2.41,2.41,0,0,0,1.5.4,3.58,3.58,0,0,0,1.9-.4,2.91,2.91,0,0,0,1.1-1.1,3.49,3.49,0,0,0,.5-1.3,5.74,5.74,0,0,0,.1-1.2v-4.7Z"/><path class="cls-1" d="M139,24.18a15.27,15.27,0,0,1,3.1.8,12.35,12.35,0,0,1,2,1,3.05,3.05,0,0,1,1,1.3,4.15,4.15,0,0,1,.3,1.6,4.25,4.25,0,0,1-.2,1.1,3.38,3.38,0,0,1-.6,1.2,6.53,6.53,0,0,1-1.2,1.1,15,15,0,0,1-1.8.9,8.34,8.34,0,0,1-2.5.6,17.22,17.22,0,0,1-3.3.2,28.8,28.8,0,0,1-3.2-.2,11.38,11.38,0,0,1-2.3-.5,5.93,5.93,0,0,1-1.6-.7,3.63,3.63,0,0,1-.9-.8,9.22,9.22,0,0,1-.5-.8,2.49,2.49,0,0,1-.1-.8,1.69,1.69,0,0,1,.3-1,2.28,2.28,0,0,1,.8-.9,12.49,12.49,0,0,1,1.2-.8,7.49,7.49,0,0,1,1.6-.5.1.1,0,0,0,0-.2,3.45,3.45,0,0,1-1.2-1.2,3.1,3.1,0,0,1-.5-1.7,3.59,3.59,0,0,1,.2-1.1l.6-.9a2.07,2.07,0,0,1,1-.6,5,5,0,0,1,1.3-.4.1.1,0,0,0,.1-.1c0-.1,0-.1-.1-.1a8,8,0,0,1-1.6-.8,4.26,4.26,0,0,1-1.2-1.1,6.38,6.38,0,0,1-.8-1.4,4.15,4.15,0,0,1-.3-1.6,4.28,4.28,0,0,1,.6-2.2,5.48,5.48,0,0,1,1.6-1.8,9,9,0,0,1,2.4-1.2,9.25,9.25,0,0,1,2.9-.4,8.73,8.73,0,0,1,3.7.7c.2.1.3,0,.4,0a2.65,2.65,0,0,0,.5-.6,1.27,1.27,0,0,0,.1-.6V8.58a1.28,1.28,0,0,1,.4-1,1.71,1.71,0,0,1,2.2,0,1.59,1.59,0,0,1,.4,1.2,3.55,3.55,0,0,1-.2,1,3.51,3.51,0,0,1-.5.8,2.41,2.41,0,0,1-.8.6,3.55,3.55,0,0,1-.9.4.1.1,0,0,0-.1.1c0,.1,0,.1.1.1a6.55,6.55,0,0,1,1.5,1.8,4.19,4.19,0,0,1,.5,2.2,4.28,4.28,0,0,1-.6,2.2,5.48,5.48,0,0,1-1.6,1.8,9,9,0,0,1-2.4,1.2,9.25,9.25,0,0,1-2.9.4h-1.6a1.08,1.08,0,0,0-.7.3.86.86,0,0,0-.3.6,1.42,1.42,0,0,0,.2.6,1.58,1.58,0,0,0,.8.5,12.2,12.2,0,0,0,1.7.5A11.25,11.25,0,0,1,139,24.18ZM136.7,33a8.6,8.6,0,0,0,1.6-.1,6.58,6.58,0,0,0,1.5-.4,3,3,0,0,0,1.1-.7,1.28,1.28,0,0,0,.4-1,1,1,0,0,0-.4-.9,2.87,2.87,0,0,0-1.1-.6c-.5-.2-1-.3-1.5-.5l-1.8-.3q-.75-.15-1.8-.3a6.64,6.64,0,0,1-2-.6h-.2a4.13,4.13,0,0,0-1.1.7,1.73,1.73,0,0,0-.5,1.3,2.77,2.77,0,0,0,.5,1.6,2.85,2.85,0,0,0,1.3,1.1,4.78,4.78,0,0,0,1.8.6C135.2,32.88,135.9,33,136.7,33Zm-.5-22.2a1.28,1.28,0,0,0-1,.4,2.55,2.55,0,0,0-.7,1,5.41,5.41,0,0,0-.4,1.5,10.87,10.87,0,0,0-.1,1.8,10.28,10.28,0,0,0,.1,1.8,5.41,5.41,0,0,0,.4,1.5,2.55,2.55,0,0,0,.7,1,1.78,1.78,0,0,0,1,.4,1.28,1.28,0,0,0,1-.4,2.55,2.55,0,0,0,.7-1,5.41,5.41,0,0,0,.4-1.5,10.87,10.87,0,0,0,.1-1.8,10.28,10.28,0,0,0-.1-1.8,5.41,5.41,0,0,0-.4-1.5,2.55,2.55,0,0,0-.7-1A1.28,1.28,0,0,0,136.2,10.78Z"/><path class="cls-1" d="M150.7,16.78a.27.27,0,0,0-.3.3,12.62,12.62,0,0,0,.3,3,6.67,6.67,0,0,0,.9,2.1,4.43,4.43,0,0,0,1.5,1.2,4.64,4.64,0,0,0,2.1.4,7.77,7.77,0,0,0,1.6-.2,8.34,8.34,0,0,0,1.2-.4,5.58,5.58,0,0,0,.8-.5c.2-.2.4-.2.5-.3s.3-.1.4,0,.1.2,0,.4-.1.2-.2.4-.3.4-.5.7a3.63,3.63,0,0,1-.9.8,5,5,0,0,1-1.2.8c-.5.2-1,.4-1.6.6a6.82,6.82,0,0,1-2.1.2,9.59,9.59,0,0,1-3.1-.5,7.76,7.76,0,0,1-2.4-1.6,5.79,5.79,0,0,1-1.5-2.5,9,9,0,0,1-.5-3.4,8,8,0,0,1,.7-3.6,7.11,7.11,0,0,1,1.8-2.6,6.69,6.69,0,0,1,2.5-1.6,7.06,7.06,0,0,1,2.8-.6,6.05,6.05,0,0,1,2.4.4,5.24,5.24,0,0,1,1.8,1,4.89,4.89,0,0,1,1.2,1.3,10.93,10.93,0,0,1,.8,1.5,7.37,7.37,0,0,1,.4,1.4,4.14,4.14,0,0,1,.1,1c0,.1,0,.2-.1.2s-.2.1-.3.1Zm-.2-1.2c0,.2,0,.2.2.2h4a1.42,1.42,0,0,0,.6-.2,1,1,0,0,0,.3-.8,5.74,5.74,0,0,0-.1-1.2,4.23,4.23,0,0,0-.4-1.2,3.92,3.92,0,0,0-.8-1,1.5,1.5,0,0,0-1.1-.4,1.22,1.22,0,0,0-.9.3,2.34,2.34,0,0,0-.7.7,9.29,9.29,0,0,0-.5,1c-.1.4-.2.7-.3,1.1s-.1.7-.2,1A1.09,1.09,0,0,0,150.5,15.58Z"/><text class="cls-2" transform="translate(5 44.27)">ventures</text><circle class="cls-1" cx="102.95" cy="5.48" r="2.6"/></svg>